<svg xmlns="http://www.w3.org/2000/svg" viewBox="0 0 1166 1043"><defs><style>.cls-1{fill:#5dafce;}.cls-2{fill:#8542a6;}.cls-3{fill:#ec6f80;}.cls-4{fill:#497bb1;}.cls-5{fill:#2a5aa4;}</style></defs><g id="Layer_2" data-name="Layer 2"><g id="Main"><g id="Logo_Color"><path class="cls-1" d="M59.5,50H25A25,25,0,0,1,25,0H59.5a25,25,0,0,1,0,50Z"/><path class="cls-2" d="M390,50H150a25,25,0,0,1,0-50H390a25,25,0,0,1,0,50Z"/><path class="cls-3" d="M712,257a24.8,24.8,0,0,1-9.71-2c-2.76-.86-26.72-7.36-116.77-7.36H257a25,25,0,0,1,0-50H585.5c73.9,0,122.91,4.31,138,12.14A25,25,0,0,1,712,257Zm-9.45-1.9Zm-2-.89h0Zm0,0,0,0Z"/><path class="cls-4" d="M290.25,150H72a25,25,0,0,1,0-50H290.25a25,25,0,0,1,0,50Z"/><path class="cls-2" d="M523,150H392a25,25,0,0,1,0-50H523a25,25,0,0,1,0,50Z"/><path class="cls-1" d="M159.5,248.75h-36a25,25,0,0,1,0-50h36a25,25,0,0,1,0,50Z"/><path class="cls-2" d="M245,347.67H156a25,25,0,0,1,0-50h89a25,25,0,1,1,0,50Z"/><path class="cls-2" d="M285.67,646H174.33a25,25,0,0,1,0-50H285.67a25,25,0,1,1,0,50Z"/><path class="cls-1" d="M651,549H518.33a25,25,0,0,1,0-50H651a25,25,0,0,1,0,50Z"/><path class="cls-1" d="M572,746.67H155.33a25,25,0,0,1,0-50H572a25,25,0,0,1,0,50Z"/><path class="cls-3" d="M392,844.67H123.33a25,25,0,0,1,0-50H392a25,25,0,1,1,0,50Z"/><path class="cls-2" d="M230,944.33H69.33a25,25,0,0,1,0-50H230a25,25,0,0,1,0,50Z"/><path class="cls-4" d="M383,1043H31.33a25,25,0,1,1,0-50H383a25,25,0,0,1,0,50Z"/><path class="cls-2" d="M651,1043H480a25,25,0,0,1,0-50H651a25,25,0,0,1,0,50Z"/><path class="cls-1" d="M232.58,546A25.29,25.29,0,0,1,208,520.59c.11-49.75,20.44-104.11,54.43-145.5,39.94-48.64,94.84-75.42,154.57-75.42,54.91,0,93.66-.56,131.14-1.09,33-.47,64.11-.91,102.86-.91,51.63,0,100,18.83,139.79,54.45a242.08,242.08,0,0,1,28.7,30.6,25,25,0,0,1-7.82,37.37h0a25,25,0,0,1-31.54-6.55,192.91,192.91,0,0,0-23.94-25.28c-30.67-26.94-66.06-40.59-105.19-40.59-38.39,0-69.36.44-102.14.91-37.66.53-76.6,1.09-131.86,1.09C314.62,349.67,258,451,258,521A25,25,0,0,1,232.58,546Z"/><path class="cls-3" d="M619,646H415c-30,0-66.3-22.73-88.23-55.28-23.59-35-27.83-75.88-11.94-115.11a25,25,0,1,1,46.34,18.78c-12.11,29.89-2.84,53.69,7.06,68.39C382.84,584.46,404.78,596,415,596H619a25,25,0,0,1,0,50Z"/><path class="cls-1" d="M682,944.33H330.38a25,25,0,0,1,0-50H682c66.78,0,161.3-49.89,162.25-50.39a25,25,0,0,1,23.51,44.12C863.46,890.36,761.34,944.33,682,944.33Z"/><path class="cls-4" d="M657,844.67H580.67a25,25,0,0,1,0-50H657c90.65,0,153.7-49.9,190.63-91.75C891.39,653.32,915,595.36,915,566a25,25,0,0,1,50,0c0,21.91-7.47,50.31-21,80a372.11,372.11,0,0,1-58.85,90c-28.38,32.16-60.68,57.8-96,76.19A283.35,283.35,0,0,1,657,844.67Z"/><path class="cls-2" d="M689,739a25,25,0,0,1-6.62-49.12C773.64,664.81,818,608.25,818,517a25,25,0,0,1,50,0c0,63.06-18.44,114.9-54.8,154.07-28.71,30.93-68.27,53.48-117.57,67A25.45,25.45,0,0,1,689,739Z"/><path class="cls-1" d="M921,437a25,25,0,0,1-23-15.1c-17.16-39.73-32-74-120.77-138.7a25,25,0,1,1,29.44-40.42c44.24,32.22,75,60.15,96.81,87.88,19.67,25,29.94,47.15,40.42,71.42A25,25,0,0,1,921,437Z"/><path class="cls-3" d="M999,349.67a25,25,0,0,1-22.62-14.32c-10.68-22.6-44.19-72.08-102-114.18C801.08,167.86,714.68,143.89,617.56,150a25,25,0,0,1-3.12-49.9c58.69-3.66,114.91,2.77,167.1,19.12a421.44,421.44,0,0,1,122.23,61.57c61.72,44.92,102.05,99.85,117.83,133.24A25,25,0,0,1,999,349.67Z"/><path class="cls-4" d="M998,747.67a25,25,0,0,1-21.25-38.14c54.45-88.11,55.73-169.73,39.53-280.93a25,25,0,0,1,49.48-7.2c6.76,46.45,13,101.29,7.51,155.91-5.67,57.05-23.33,108.9-54,158.5A25,25,0,0,1,998,747.67Z"/><path class="cls-4" d="M1141,494a25,25,0,0,1-25-23.76c-4.3-87-57.47-199.15-132.29-279.17a25,25,0,1,1,36.52-34.14c38.13,40.78,73.23,92.13,98.83,144.61,28.14,57.67,44.35,115.15,46.88,166.22A25,25,0,0,1,1142.24,494Z"/><path class="cls-1" d="M877,107A24.93,24.93,0,0,1,864,103.38c-.18-.11-22.75-13.54-61.83-26.76A517.37,517.37,0,0,0,638,50H529a25,25,0,0,1,0-50H638C788.26,0,885.88,58.15,890,60.62A25,25,0,0,1,877,107Z"/><path class="cls-4" d="M741,569a25.31,25.31,0,0,1-5.29-.56,25,25,0,0,1-19.17-29.71c4.82-22.35-1.2-46.7-16.09-65.15-13-16-30.63-25.25-48.47-25.25H531a25,25,0,0,1,0-50H652c33,0,64.87,16,87.37,43.84,24.29,30.08,34,70.12,26.07,107.1A25,25,0,0,1,741,569Z"/><rect class="cls-5" x="405.5" y="497.5" width="50" height="50" rx="20.17"/><rect class="cls-4" x="150.83" y="396.83" width="50" height="50" rx="19.67"/><path class="cls-3" d="M822,1011a25,25,0,0,1-8.71-48.45C996.84,894.39,1087.53,733,1109.42,615.42a25,25,0,0,1,49.16,9.16c-5.92,31.75-26.4,115-88.62,202a508.83,508.83,0,0,1-239.25,182.89A25.18,25.18,0,0,1,822,1011Z"/></g></g></g></svg>