<svg xmlns="http://www.w3.org/2000/svg" xmlns:xlink="http://www.w3.org/1999/xlink" viewBox="0 0 646 259"><defs><style>.cls-1{fill:url(#New_Gradient_Swatch_2);}.cls-2{fill:url(#linear-gradient);}.cls-3{fill:#02d7f2;}</style><linearGradient id="New_Gradient_Swatch_2" x1="646" y1="129.5" x2="0" y2="129.5" gradientUnits="userSpaceOnUse"><stop offset="0" stop-color="#02d7f2"/><stop offset="0.11" stop-color="#3beaef"/><stop offset="0.18" stop-color="#2dd3de"/><stop offset="0.37" stop-color="#04bed8"/><stop offset="0.52" stop-color="#48ffff"/><stop offset="0.71" stop-color="#22c0cf"/><stop offset="0.8" stop-color="#2de6f0"/><stop offset="0.87" stop-color="#32dae3"/><stop offset="1" stop-color="#0b748c"/></linearGradient><linearGradient id="linear-gradient" y1="129.5" x2="401" y2="129.5" gradientUnits="userSpaceOnUse"><stop offset="0" stop-color="#48ffff"/><stop offset="0.18" stop-color="#2dd3de"/><stop offset="0.28" stop-color="#3beaef"/><stop offset="0.37" stop-color="#04bed8"/><stop offset="0.44" stop-color="#02d7f2"/><stop offset="0.71" stop-color="#22c0cf"/><stop offset="0.8" stop-color="#2de6f0"/><stop offset="0.87" stop-color="#32dae3"/><stop offset="1" stop-color="#0b748c"/></linearGradient></defs><g id="Layer_2" data-name="Layer 2"><g id="Layer_2-2" data-name="Layer 2"><g id="Day2"><polygon points="646 15 646 259 339.43 259 328.84 250 152.34 250 141.75 259 0 259 0 0 508.92 0 508.92 140 517.53 140 517.53 0 526.14 0 526.14 99 534.74 99 534.74 0 543.36 0 543.36 78 551.97 78 551.97 0 560.58 0 560.58 128 569.2 128 569.2 0 577.81 0 577.81 121 586.41 121 586.41 0 595.03 0 595.03 97 603.64 97 603.64 0 628.35 0 646 15"/><path class="cls-1" d="M627.61,2,644,15.92V257H340.16l-10-8.52-.56-.48h-178l-.56.48L141,257H2V2H506.92V142h12.61V2h4.61v99h12.6V2h4.62V80H554V2h4.61V130H571.2V2h4.61V123h12.6V2H593V99h12.61V2h22m.74-2H603.64V97H595V0h-8.62V121h-8.6V0H569.2V128h-8.62V0H552V78h-8.61V0h-8.62V99h-8.6V0h-8.61V140h-8.61V0H0V259H141.75l10.59-9h176.5l10.59,9H646V15L628.35,0Z"/><polygon class="cls-2" points="0 0 0 259 141.75 259 143.43 257.57 401 0 0 0"/><path d="M30.65,23.9h24.2l6.48,6.48V55.22L54.85,61.7H30.65ZM51.23,55.43,54,52.68V32.92l-2.75-2.76H38V55.43Z"/><path d="M77.58,23.9h6.69L98.1,61.7H90.65l-3.08-8.37H74.28L71.21,61.7H63.75ZM86,47.28l-5-14.36h-.11L76,47.28Z"/><path d="M107,46.25,93.51,23.9h8l9,15.5h.11l9-15.5h8L114.3,46.25V61.7H107Z"/><path d="M144.54,53.44,164,35.78V31.94l-1.78-1.78h-8.75l-1.78,1.78v3.84h-7.35V29.73l5.83-5.83h15.34l5.83,5.83v8.21L152.15,55v.54h19.39V61.7h-27Z"/><path d="M30.65,67.9H54.36l5.78,5.83V87l-5.83,5.89H38V105.7H30.65ZM51,86.69,52.9,84.8V75.94L51,74.05H38V86.69Z"/><path d="M72.07,67.9h6.7l13.82,37.8H85.14l-3.08-8.37H68.78L65.7,105.7H58.25Zm8.37,23.38-5-14.36h-.11L70.45,91.28Z"/><path d="M94.75,99.87v-5.4H102v3.18l1.78,1.78H115l1.83-1.83V91.33L115,89.55H100.69l-5.83-5.83v-10l5.83-5.83h17.06l5.84,5.83v5.45h-7.24V75.94l-1.78-1.78H103.88l-1.79,1.78v5.57l1.79,1.78h14.31L124,89.12V99.76l-5.94,5.94h-17.5Z"/><path d="M129.15,99.87v-5.4h7.23v3.18l1.79,1.78h11.17l1.84-1.83V91.33l-1.78-1.78H135.09l-5.83-5.83v-10l5.83-5.83h17.06L158,73.73v5.45h-7.23V75.94L149,74.16h-10.7l-1.78,1.78v5.57l1.78,1.78h14.31l5.84,5.83V99.76l-5.94,5.94H135Z"/><path d="M49.39,203.18H43.63l1.3,1.29v1.08h4.46v3.53H44.93V211l-2.48,2.49,2.62,2.84v8.35H40.18v-7.27L37.91,215H28.15v-4H38.81l1.3-1.26v-.65h-12v-3.53h12v-.68l-1.3-1.26H28.15V199.5H49.39Z"/><path d="M52.45,220.82v-4.11h4.9v2.63l1.19,1.19H65l1.18-1.19v-5.69L65,212.46H52.81v-13H70.53v4.18H57.64v4.61h9.47L71,212.21v8.61l-3.89,3.88H56.34Z"/><path d="M74.81,220.82v-3.21h4.9v1.66L81,220.53h6.12l1.26-1.26v-5.8l-2.06,2.05h-8l-3.89-3.88v-8.25l3.89-3.89h11l3.89,3.89v17.43l-3.89,3.88H78.7ZM86,211.35,88.35,209v-4.07l-1.26-1.26H80.61l-1.26,1.26v5.15l1.26,1.26Z"/><path d="M97.38,220.82v-3.21h4.9v1.66l1.26,1.26h6.12l1.26-1.26v-5.8l-2,2.05h-8L97,211.64v-8.25l3.89-3.89h11l3.88,3.89v17.43l-3.88,3.88H101.27Zm11.2-9.47,2.34-2.34v-4.07l-1.26-1.26h-6.48l-1.26,1.26v5.15l1.26,1.26Z"/><g id="Layer_2-3" data-name="Layer 2"><g id="Main"><g id="DYUKSHA23"><path id="_3" data-name=" 3" class="cls-3" d="M198.49,214.47a9.54,9.54,0,0,1-.27-13.47l10-10.05,0,7.55L202,204.75a4.44,4.44,0,0,0,6.24,6.24l6.74-6.73,4.48,4.48-6.73,6.74a4.44,4.44,0,0,0,6.24,6.24l6.26-6.25,7.54,0-10.05,10a9.54,9.54,0,0,1-13.47-.27,9.86,9.86,0,0,1-2.89-7.85A9.84,9.84,0,0,1,198.49,214.47Z"/><g id="_2" data-name=" 2"><rect class="cls-3" x="211.83" y="183.24" width="10.56" height="5.25" transform="translate(-67.84 207.96) rotate(-45)"/><path class="cls-3" d="M235.91,206.8a12.84,12.84,0,0,0,9.22-3.76,14.52,14.52,0,0,0,3.85-7.56l-5-5c0,.85,0,1.72,0,2.52a9.66,9.66,0,0,1-2.55,6.32,7.74,7.74,0,0,1-10.8-.07c-2.58-2.58-2.6-4.17-2.28-12.15.15-3.94.36-9.16.22-16.4L223.29,176c0,4.58-.15,8.16-.26,11-.32,8.09-.47,11.78,3.79,16A12.85,12.85,0,0,0,235.91,206.8Z"/></g><polygon id="APOS" class="cls-3" points="258.54 189.63 251.49 187.25 253.83 194.34 258.54 189.63"/><g id="A"><polygon class="cls-3" points="250.27 165.48 274.56 173.56 262.53 136.73 258.29 140.98 266.18 165.13 254.5 161.25 250.27 165.48"/><polygon class="cls-3" points="243.94 163.23 248.18 159 242.28 156.93 238.04 161.16 243.94 163.23"/></g><polygon id="H" class="cls-3" points="293.22 154.9 282.74 144.41 295.57 131.57 295.65 123.98 285.44 113.77 281.65 117.56 291.91 127.82 279.02 140.7 268.76 130.44 264.97 134.23 289.43 158.69 293.22 154.9"/><g id="S"><path class="cls-3" d="M293.59,105.67l3.77,3.77a5,5,0,0,0,.14,6.74,4.83,4.83,0,0,0,6.58,0l6.51-6.51a9.8,9.8,0,0,1,13.84,0,10.14,10.14,0,0,1,0,14.14L320.62,120a4.83,4.83,0,0,0,0-6.58,4.45,4.45,0,0,0-6.28,0l-6.51,6.51a10.14,10.14,0,0,1-14.14,0A10.38,10.38,0,0,1,293.59,105.67Z"/></g><polygon id="K" class="cls-3" points="304.85 94.36 329.54 93.94 329.39 118.76 334.73 113.42 334.88 88.54 310.25 88.96 304.85 94.36"/><g id="U"><path class="cls-3" d="M331.86,67.4a13.67,13.67,0,0,1,20.31,0L366.76,82,363,85.78,348.38,71.19c-3.92-3.92-8.81-3.93-12.74,0s-3.93,8.81,0,12.74l-3.79,3.79a13.67,13.67,0,0,1,0-20.32Z"/><rect class="cls-3" x="340.55" y="88.51" width="5.36" height="14.09" transform="translate(32.96 270.69) rotate(-45)"/></g><polygon id="Y" class="cls-3" points="373.17 75.07 371.29 58.35 387.9 60.33 392.69 55.55 370.68 52.92 368.21 31.05 363.4 35.86 365.63 55.66 365.86 57.7 368.36 79.88 373.17 75.07"/><path id="D" class="cls-3" d="M400.61,47.54c.33-.28.66-.58,1-.9l8.51-8.5-7.26-.34-5,5c-4.28,4.28-11.54,4-16.21-.7s-5-11.93-.7-16.2l5.06-5.07-.34-7.27-8.53,8.53c-6.36,6.36-6,17,.72,23.8C384.22,52.35,394.18,53,400.61,47.54Z"/></g></g></g><path class="cls-1" d="M627.61,2,644,15.92V257H340.16l-10-8.52-.56-.48h-178l-.56.48L141,257H2V2H506.92V142h12.61V2h4.61v99h12.6V2h4.62V80H554V2h4.61V130H571.2V2h4.61V123h12.6V2H593V99h12.61V2h22m.74-2H603.64V97H595V0h-8.62V121h-8.6V0H569.2V128h-8.62V0H552V78h-8.61V0h-8.62V99h-8.6V0h-8.61V140h-8.61V0H0V259H141.75l10.59-9h176.5l10.59,9H646V15L628.35,0Z"/></g></g></g></svg>