<svg xmlns="http://www.w3.org/2000/svg" viewBox="0 0 646 259"><defs><style>.cls-1{fill:#02d7f2;}</style></defs><g id="Layer_2" data-name="Layer 2"><g id="Layer_2-2" data-name="Layer 2"><polygon points="339.8 258 329.21 249 151.97 249 141.38 258 1 258 1 1 507.92 1 507.92 115.5 518.53 115.5 518.53 1 525.14 1 525.14 100 535.75 100 535.75 1 542.36 1 542.36 115.5 552.97 115.5 552.97 1 559.58 1 559.58 129 570.2 129 570.2 1 576.81 1 576.81 115.5 587.41 115.5 587.41 1 594.03 1 594.03 121 604.64 121 604.64 1 627.98 1 645 15.46 645 258 339.8 258"/><path class="cls-1" d="M627.61,2,644,15.92V257H340.16l-10-8.52-.56-.48h-178l-.56.48L141,257H2V2H506.92V116.5h12.61V2h4.61v99h12.6V2h4.62V116.5H554V2h4.61V130H571.2V2h4.61V116.5h12.6V2H593V122h12.61V2h22m.74-2H603.64V120H595V0h-8.62V114.5h-8.6V0H569.2V128h-8.62V0H552V114.5h-8.61V0h-8.62V99h-8.6V0h-8.61V114.5h-8.61V0H0V259H141.75l10.59-9h176.5l10.59,9H646V15L628.35,0Z"/><polygon class="cls-1" points="0 0 0 259 141.75 259 143.43 257.57 401 0 0 0"/><g id="Layer_2-3" data-name="Layer 2"><g id="Main"><g id="DYUKSHA23"><path id="_3" data-name=" 3" class="cls-1" d="M198.73,214.71a9.13,9.13,0,0,1-.26-12.88l9.6-9.6,0,7.21-6,6a4.25,4.25,0,0,0,6,6l6.44-6.44,4.28,4.28-6.44,6.44a4.25,4.25,0,0,0,6,6l6-6,7.21,0-9.61,9.6A9.12,9.12,0,0,1,209,225a9.41,9.41,0,0,1-2.76-7.5A9.42,9.42,0,0,1,198.73,214.71Z"/><g id="_2" data-name=" 2"><rect class="cls-1" x="211.49" y="184.85" width="10.09" height="5.02" transform="translate(-69.06 207.99) rotate(-45)"/><path class="cls-1" d="M234.51,207.38a12.27,12.27,0,0,0,8.82-3.6,13.76,13.76,0,0,0,3.68-7.22l-4.79-4.79c0,.82,0,1.65,0,2.41a9.31,9.31,0,0,1-2.43,6,7.41,7.41,0,0,1-10.34-.08c-2.46-2.46-2.48-4-2.18-11.61.15-3.77.35-8.76.22-15.68l-5,5c0,4.37-.15,7.8-.26,10.56-.3,7.73-.44,11.26,3.63,15.33A12.3,12.3,0,0,0,234.51,207.38Z"/></g><polygon id="APOS" class="cls-1" points="256.15 190.96 249.41 188.69 251.64 195.46 256.15 190.96"/><g id="A"><polygon class="cls-1" points="248.24 167.87 271.47 175.6 259.97 140.38 255.91 144.44 263.45 167.53 252.29 163.82 248.24 167.87"/><polygon class="cls-1" points="242.19 165.72 246.24 161.67 240.6 159.69 236.55 163.74 242.19 165.72"/></g><polygon id="H" class="cls-1" points="289.31 157.75 279.29 147.72 291.56 135.45 291.64 128.19 281.87 118.42 278.25 122.05 288.06 131.85 275.74 144.17 265.93 134.37 262.3 137.99 285.69 161.38 289.31 157.75"/><g id="S"><path class="cls-1" d="M289.67,110.68l3.6,3.61a4.8,4.8,0,0,0,.13,6.44,4.64,4.64,0,0,0,6.3,0l6.22-6.22a9.37,9.37,0,0,1,13.24,0,9.69,9.69,0,0,1-.05,13.52l-3.6-3.6a4.63,4.63,0,0,0,0-6.29,4.25,4.25,0,0,0-6,0l-6.22,6.22a9.68,9.68,0,0,1-13.52,0A9.92,9.92,0,0,1,289.67,110.68Z"/></g><polygon id="K" class="cls-1" points="300.43 99.86 324.04 99.46 323.9 123.2 329 118.09 329.15 94.3 305.6 94.7 300.43 99.86"/><g id="U"><path class="cls-1" d="M326.26,74.09a13.07,13.07,0,0,1,19.42,0l13.95,14L356,91.66l-13.95-14c-3.76-3.75-8.43-3.76-12.19,0s-3.75,8.42,0,12.18l-3.62,3.63a13.07,13.07,0,0,1,0-19.43Z"/><rect class="cls-1" x="334.57" y="94.27" width="5.13" height="13.47" transform="translate(27.32 267.97) rotate(-45)"/></g><polygon id="Y" class="cls-1" points="365.76 81.42 363.96 65.43 379.85 67.33 384.42 62.75 363.37 60.24 361.01 39.33 356.41 43.93 358.55 62.86 358.77 64.81 361.16 86.02 365.76 81.42"/><path id="D" class="cls-1" d="M392,55.09c.31-.26.63-.55.93-.85l8.13-8.14-6.94-.31-4.83,4.82c-4.08,4.08-11,3.78-15.49-.68s-4.76-11.41-.67-15.49L378,29.6l-.32-7-8.16,8.15c-6.08,6.08-5.77,16.29.69,22.76C376.32,59.7,385.85,60.28,392,55.09Z"/></g></g></g></g></g></svg>