<svg xmlns="http://www.w3.org/2000/svg" xmlns:xlink="http://www.w3.org/1999/xlink" viewBox="0 0 646 259"><defs><style>.cls-1{fill:url(#New_Gradient_Swatch_2);}.cls-2{fill:url(#New_Gradient_Swatch_2-2);}.cls-3{fill:url(#New_Gradient_Swatch_2-3);}.cls-4{fill:url(#New_Gradient_Swatch_2-4);}</style><linearGradient id="New_Gradient_Swatch_2" y1="129.5" x2="646" y2="129.5" gradientUnits="userSpaceOnUse"><stop offset="0" stop-color="#02d7f2"/><stop offset="0.11" stop-color="#3beaef"/><stop offset="0.18" stop-color="#2dd3de"/><stop offset="0.37" stop-color="#04bed8"/><stop offset="0.52" stop-color="#48ffff"/><stop offset="0.71" stop-color="#22c0cf"/><stop offset="0.8" stop-color="#2de6f0"/><stop offset="0.87" stop-color="#32dae3"/><stop offset="1" stop-color="#0b748c"/></linearGradient><linearGradient id="New_Gradient_Swatch_2-2" x1="251.49" y1="190.8" x2="258.54" y2="190.8" xlink:href="#New_Gradient_Swatch_2"/><linearGradient id="New_Gradient_Swatch_2-3" x1="336.36" y1="95.56" x2="350.11" y2="95.56" gradientTransform="translate(168.1 -214.71) rotate(45)" xlink:href="#New_Gradient_Swatch_2"/><linearGradient id="New_Gradient_Swatch_2-4" x2="410.09" xlink:href="#New_Gradient_Swatch_2"/></defs><g id="Layer_2" data-name="Layer 2"><g id="Layer_2-2" data-name="Layer 2"><g id="Day3"><polygon points="646 15 646 259 339.43 259 328.84 250 152.34 250 141.75 259 0 259 0 0 508.92 0 508.92 114.5 517.53 114.5 517.53 0 526.14 0 526.14 99 534.74 99 534.74 0 543.36 0 543.36 114.5 551.97 114.5 551.97 0 560.58 0 560.58 128 569.2 128 569.2 0 577.81 0 577.81 114.5 586.41 114.5 586.41 0 595.03 0 595.03 120 603.64 120 603.64 0 628.35 0 646 15"/><path class="cls-1" d="M627.61,2,644,15.93V257H340.16l-10-8.52-.56-.48h-178l-.56.48L141,257H2V2H506.92V116.5h12.61V2h4.61v99h12.6V2h4.62V116.5H554V2h4.61V130H571.2V2h4.61V116.5h12.6V2H593V122h12.61V2h22m.74-2H603.64V120H595V0h-8.62V114.5h-8.6V0H569.2V128h-8.62V0H552V114.5h-8.61V0h-8.62V99h-8.6V0h-8.61V114.5h-8.61V0H0V259H141.75l10.59-9h176.5l10.59,9H646V15L628.35,0Z"/><polygon class="cls-2" points="253.83 194.34 258.54 189.63 251.49 187.25 253.83 194.34"/><rect class="cls-3" x="340.55" y="88.51" width="5.36" height="14.09" transform="translate(32.96 270.69) rotate(-45)"/><path class="cls-4" d="M402.83,37.8l-5,5c-4.28,4.28-11.54,4-16.21-.7s-5-11.93-.7-16.2l5.06-5.07-.26-5.55L401,0H0V259H141.75l1.68-1.43,52.44-52.44a9.92,9.92,0,0,0,10.46,12.22,9.86,9.86,0,0,0,2.89,7.85,9.54,9.54,0,0,0,13.47.27l10.05-10-7.54,0-6.26,6.25a4.44,4.44,0,0,1-6.24-6.24l6.73-6.74L215,204.26,208.21,211a4.44,4.44,0,0,1-6.24-6.24l6.25-6.25,0-5.75,4.14-4.14,2.84,2.84L222.7,184l-2.84-2.85,3.42-3.42c0,3.75-.15,6.78-.25,9.28-.32,8.09-.47,11.78,3.79,16a13,13,0,0,0,18.31,0,14.52,14.52,0,0,0,3.85-7.56l-5-5c0,.85,0,1.72,0,2.52a9.66,9.66,0,0,1-2.55,6.32,7.74,7.74,0,0,1-10.8-.07c-2.58-2.58-2.6-4.17-2.28-12.15.14-3.62.32-8.33.25-14.68l10.79-10.79,4.57,1.6,4.24-4.23-4.58-1.6,15.12-15.12,7.46,22.85-11.68-3.88-4.23,4.23,24.29,8.08L263,138l2.91-2.91,23.56,23.56,3.79-3.79-10.48-10.49,12.83-12.84.08-7.59-9.31-9.32,4.87-4.87a10.46,10.46,0,0,0,2.5,10.18,10.14,10.14,0,0,0,14.14,0l6.51-6.51a4.45,4.45,0,0,1,6.28,0,4.83,4.83,0,0,1,0,6.58l3.77,3.77a10.14,10.14,0,0,0,0-14.14,9.8,9.8,0,0,0-13.84,0l-6.51,6.51a4.83,4.83,0,0,1-6.58,0,5,5,0,0,1-.14-6.74l-2.9-2.9,12.21-12.21,22.87-.39-.15,24.82,5.34-5.34.15-24.88-22.81.39L328.3,72.7a13,13,0,0,0-1,4.87,14.26,14.26,0,0,0,4.52,10.15l3.79-3.79c-3.93-3.93-3.93-8.81,0-12.74s8.82-3.92,12.74,0L363,85.78,366.76,82,352.17,67.4A14.26,14.26,0,0,0,342,62.88a13.11,13.11,0,0,0-4.86,1l26.41-26.41,2.06,18.23.23,2,2.5,22.18,4.81-4.81-1.88-16.72,16.61,2,4.79-4.78-22-2.63-2.28-20.31,5.27-5.27a17.38,17.38,0,0,0,4.13,18.59c6.43,6.42,16.39,7,22.82,1.61.33-.28.66-.58,1-.9l8.51-8.5Zm-110.92,90L279,140.7l-9.36-9.36,12.89-12.89Z"/><path d="M30.65,23.9h24.2l6.48,6.48V55.22L54.85,61.7H30.65ZM51.23,55.43,54,52.68V32.92l-2.75-2.76H38V55.43Z"/><path d="M77.58,23.9h6.69L98.1,61.7H90.65l-3.08-8.37H74.28L71.21,61.7H63.75ZM86,47.28l-5-14.36h-.11L76,47.28Z"/><path d="M107,46.25,93.51,23.9h8l9,15.5h.11l9-15.5h8L114.3,46.25V61.7H107Z"/><path d="M151.94,31.73l-8.16,4.21V29.19l9.61-5.29h5.89V61.7h-7.34Z"/><path d="M30.65,67.9H54.36l5.78,5.83V87l-5.83,5.89H38V105.7H30.65ZM51,86.69,52.9,84.8V75.94L51,74.05H38V86.69Z"/><path d="M72.07,67.9h6.7l13.82,37.8H85.14l-3.08-8.37H68.78L65.7,105.7H58.25Zm8.37,23.38-5-14.36h-.11L70.45,91.28Z"/><path d="M94.75,99.87v-5.4H102v3.18l1.78,1.78H115l1.83-1.83V91.33L115,89.55H100.69l-5.83-5.83v-10l5.83-5.83h17.06l5.84,5.83v5.45h-7.24V75.94l-1.78-1.78H103.88l-1.79,1.78v5.57l1.79,1.78h14.31L124,89.12V99.76l-5.94,5.94h-17.5Z"/><path d="M129.15,99.87v-5.4h7.23v3.18l1.79,1.78h11.17l1.84-1.83V91.33l-1.78-1.78H135.09l-5.83-5.83v-10l5.83-5.83h17.06L158,73.73v5.45h-7.23V75.94L149,74.16h-10.7l-1.78,1.78v5.57l1.78,1.78h14.31l5.84,5.83V99.76l-5.94,5.94H135Z"/><path d="M49.39,203.18H43.63l1.3,1.29v1.08h4.46v3.53H44.93V211l-2.48,2.49,2.62,2.84v8.35H40.18v-7.27L37.91,215H28.15v-4H38.81l1.3-1.26v-.65h-12v-3.53h12v-.68l-1.3-1.26H28.15V199.5H49.39Z"/><path d="M52.09,220.82v-4H57v2.48l1.19,1.19h6.48l1.19-1.19v-4.07l-1.16-1.15h-7.2v-4.18h7.2l1.16-1.15v-3.92l-1.19-1.19H58.39l-1.18,1.19v2.48h-4.9v-4l3.89-3.89H66.85l3.89,3.89v6.84L68.91,212l1.83,1.84v6.95l-3.89,3.88H56Z"/><path d="M74.7,220.82v-3.21h4.9v1.66l1.26,1.26H87l1.26-1.26v-5.8l-2,2.05h-8l-3.89-3.88v-8.25l3.89-3.89h11l3.88,3.89v17.43l-3.88,3.88H78.59Zm11.2-9.47L88.24,209v-4.07L87,203.68H80.5l-1.26,1.26v5.15l1.26,1.26Z"/><path d="M97.27,220.82v-3.21h4.9v1.66l1.26,1.26h6.12l1.26-1.26v-5.8l-2,2.05h-8l-3.89-3.88v-8.25l3.89-3.89h11l3.89,3.89v17.43l-3.89,3.88H101.16Zm11.2-9.47,2.34-2.34v-4.07l-1.26-1.26h-6.48l-1.26,1.26v5.15l1.26,1.26Z"/><path class="cls-1" d="M627.61,2,644,15.93V257H340.16l-10-8.52-.56-.48h-178l-.56.48L141,257H2V2H506.92V116.5h12.61V2h4.61v99h12.6V2h4.62V116.5H554V2h4.61V130H571.2V2h4.61V116.5h12.6V2H593V122h12.61V2h22m.74-2H603.64V120H595V0h-8.62V114.5h-8.6V0H569.2V128h-8.62V0H552V114.5h-8.61V0h-8.62V99h-8.6V0h-8.61V114.5h-8.61V0H0V259H141.75l10.59-9h176.5l10.59,9H646V15L628.35,0Z"/></g></g></g></svg>