<?xml version="1.0" encoding="utf-8"?>
<!-- Generator: Adobe Illustrator 25.2.3, SVG Export Plug-In . SVG Version: 6.00 Build 0)  -->
<svg version="1.1" id="Layer_1" xmlns="http://www.w3.org/2000/svg" xmlns:xlink="http://www.w3.org/1999/xlink" x="0px" y="0px"
	 viewBox="0 0 1279.2 338.4" style="enable-background:new 0 0 1279.2 338.4;" xml:space="preserve">
<style type="text/css">
	.st0{fill:none;stroke:#131313;stroke-width:2;stroke-miterlimit:10;}
</style>
<rect width="1283" height="338.4"/>
<g id="Layer_2_1_">
	<g id="Main">
		<g id="DYUKSHA23">
			<path id="_3" class="st0" d="M1274.3,120.1c0,24.4-19.4,44.2-43.2,44.2h-65.7l24.8-24.1h40.9c10.2,0,18.4-9,18.4-20.1
				s-8.2-20.1-18.3-20.1h-44V71.2h44c10.2,0,18.4-9,18.4-20.1s-8.3-20.1-18.4-20.1h-40.9l-24.8-24.1h65.7
				c23.8,0,43.2,19.8,43.2,44.2c0.1,13.3-5.9,26-16.3,34.5C1268.4,94.2,1274.4,106.8,1274.3,120.1z"/>
			<g id="_2">
				<rect x="1095.3" y="140.3" class="st0" width="48.8" height="23.9"/>
				<path class="st0" d="M1126.8,24.4c-11.2-11.2-26.6-17.6-42.5-17.6c-12.8,0-25.7,4.2-37.3,11.9V51c2.7-2.8,5.5-5.6,8.3-8.1
					c9-7.8,19.2-12.2,29-12.2c19,0,35.1,16,35.1,35c0,16.6-5.1,21.8-32.2,46.4c-13.4,12.2-31.1,28.3-54.4,52h34.4
					c15-14.7,27.2-25.8,37-34.7c27.5-25,40.1-36.4,40.1-63.8C1144.2,50.3,1138,35.4,1126.8,24.4z"/>
			</g>
			<polygon id="APOS" class="st0" points="996.6,6.9 1011.8,37.2 1027.4,6.9 			"/>
			<g id="A">
				<polygon class="st0" points="944.6,111.1 891.6,7 810.4,164.2 838.2,164.2 891.4,61.1 916.9,111.1 				"/>
				<polygon class="st0" points="957.9,138.7 930.2,138.7 942.8,164.4 970.4,164.4 				"/>
			</g>
			<polygon id="H" class="st0" points="769.4,7 769.4,74.5 685.4,74.5 660.4,98.7 660.4,164.4 685.1,164.4 685.1,98.4 769.4,98.4 
				769.4,164.4 794.2,164.4 794.2,7 			"/>
			<g id="S">
				<path class="st0" d="M607.1,164.2v-24.3c11.1,0,21.6-10.7,21.6-22.1c0-11.1-10.3-21.1-21.6-21.1h-42.6
					c-25,0-45.4-19.8-45.4-44.4S540.4,7,565.5,7v24.2c-11.3,0-21.6,10.1-21.6,21.1c0,11.2,9.3,20.2,20.7,20.2h42.5
					c25.1,0,46.4,20.8,46.4,45.4S631.9,164.2,607.1,164.2z"/>
			</g>
			<polygon id="K" class="st0" points="533.3,164.4 451.1,86.3 532.9,6.9 497.9,6.9 416,86.5 498,164.4 			"/>
			<g id="U">
				<path class="st0" d="M356.7,164.2c-19.3,0-35.9-6.3-48-18.1s-18.4-28.2-18.4-47.2V5h24.8v93.8c0,25.2,16,41,41.7,41
					s41.7-15.7,41.7-41h24.8c0,19-6.4,35.3-18.4,47.2S376.1,164.2,356.7,164.2z"/>
				<rect x="399.2" y="5" class="st0" width="24.8" height="64.1"/>
			</g>
			<polygon id="Y" class="st0" points="246.6,6.7 198.1,66.5 150.3,6.7 119,6.7 182.3,85.9 118.8,164.2 150.4,164.2 207.9,93.3 
				213.8,86 278.2,6.7 			"/>
			<path id="D" class="st0" d="M66.8,7c-2-0.2-4.1-0.3-6.1-0.3H5l22.7,24.4h33c28,0,50.7,24.4,50.7,54.4s-22.7,54.4-50.7,54.4H27.5
				L4.8,164.4h55.8c41.6,0,75.5-35.4,75.5-78.8C136.2,44.2,105.6,10.2,66.8,7z"/>
		</g>
	</g>
</g>
<g id="Layer_2_2_">
	<g id="Main_1_">
		<g id="DYUKSHA23_1_">
			<path id="_3_1_" class="st0" d="M4.9,290.1c0,24.4,19.4,44.2,43.2,44.2h65.7L89,310.2H48.1c-10.2,0-18.4-9-18.4-20.1
				S38,270,48,270h44v-28.8H48c-10.2,0-18.4-9-18.4-20.1C29.6,210,38,201,48,201h40.9l24.8-24.1H48c-23.8,0-43.2,19.8-43.2,44.2
				c-0.1,13.3,5.9,26,16.3,34.5C10.8,264.2,4.8,276.8,4.9,290.1z"/>
			<g id="_2_1_">
				<rect x="135" y="310.3" class="st0" width="48.8" height="23.9"/>
				<path class="st0" d="M152.4,194.4c11.2-11.2,26.6-17.6,42.5-17.6c12.8,0,25.7,4.2,37.3,11.9V221c-2.7-2.8-5.5-5.6-8.3-8.1
					c-9-7.8-19.2-12.2-29-12.2c-19,0-35.1,16-35.1,35c0,16.6,5.1,21.8,32.2,46.4c13.4,12.2,31.1,28.3,54.4,52H212
					c-15-14.7-27.2-25.8-37-34.7c-27.5-25-40.1-36.4-40.1-63.8C135,220.3,141.2,205.4,152.4,194.4z"/>
			</g>
			<polygon id="APOS_1_" class="st0" points="282.6,176.9 267.4,207.2 251.8,176.9 			"/>
			<g id="A_1_">
				<polygon class="st0" points="334.6,281.1 387.6,177 468.8,334.2 441,334.2 387.8,231.1 362.3,281.1 				"/>
				<polygon class="st0" points="321.3,308.7 349,308.7 336.4,334.4 308.8,334.4 				"/>
			</g>
			<polygon id="H_1_" class="st0" points="509.8,177 509.8,244.5 593.8,244.5 618.8,268.7 618.8,334.4 594.1,334.4 594.1,268.4 
				509.8,268.4 509.8,334.4 485,334.4 485,177 			"/>
			<g id="S_1_">
				<path class="st0" d="M672.1,334.2v-24.3c-11.1,0-21.6-10.7-21.6-22.1c0-11.1,10.3-21.1,21.6-21.1h42.6c25,0,45.4-19.8,45.4-44.4
					S738.8,177,713.7,177v24.2c11.3,0,21.6,10.1,21.6,21.1c0,11.2-9.3,20.2-20.7,20.2h-42.5c-25.1,0-46.4,20.8-46.4,45.4
					S647.3,334.2,672.1,334.2z"/>
			</g>
			<polygon id="K_1_" class="st0" points="745.9,334.4 828.1,256.3 746.3,176.9 781.3,176.9 863.2,256.5 781.2,334.4 			"/>
			<g id="U_1_">
				<path class="st0" d="M922.5,334.2c19.3,0,35.9-6.3,48-18.1c12.1-11.8,18.4-28.2,18.4-47.2V175h-24.8v93.8c0,25.2-16,41-41.7,41
					s-41.7-15.7-41.7-41h-24.8c0,19,6.4,35.3,18.4,47.2C886.3,327.9,903.1,334.2,922.5,334.2z"/>
				<rect x="855.2" y="175" class="st0" width="24.8" height="64.1"/>
			</g>
			<polygon id="Y_1_" class="st0" points="1032.6,176.7 1081.1,236.5 1128.9,176.7 1160.2,176.7 1096.9,255.9 1160.4,334.2 
				1128.8,334.2 1071.3,263.3 1065.4,256 1001,176.7 			"/>
			<path id="D_1_" class="st0" d="M1212.4,177c2-0.2,4.1-0.3,6.1-0.3h55.6l-22.7,24.4h-33c-28,0-50.7,24.4-50.7,54.4
				s22.7,54.4,50.7,54.4h33.2l22.7,24.5h-55.8c-41.6,0-75.5-35.4-75.5-78.8C1143,214.2,1173.6,180.2,1212.4,177z"/>
		</g>
	</g>
</g>
</svg>
