<svg xmlns="http://www.w3.org/2000/svg" viewBox="0 0 1279.18 163.35"><defs><style>.cls-1{fill:#f1f2f2;}</style></defs><g id="Layer_2" data-name="Layer 2"><g id="Main"><g id="DYUKSHA23"><path id="_3" data-name="3" class="cls-1" d="M1279.18,118c0,25-19.53,45.33-43.53,45.33h-66.22l25-24.73h41.22c10.22,0,18.53-9.24,18.53-20.6s-8.31-20.59-18.53-20.59h-44.41V67.85h44.41c10.22,0,18.53-9.24,18.53-20.6s-8.31-20.59-18.53-20.59h-41.24l-25-24.73h66.24c24,0,43.53,20.33,43.53,45.32a46,46,0,0,1-16.37,35.39A46,46,0,0,1,1279.18,118Z"/><g id="_2" data-name="2"><rect class="cls-1" x="1098.85" y="138.69" width="49.22" height="24.46"/><path class="cls-1" d="M1130.53,19.93a59.83,59.83,0,0,0-42.83-18c-12.89,0-25.93,4.29-37.59,12.23v33c2.72-2.91,5.58-5.77,8.36-8.26,9-8,19.37-12.47,29.23-12.47,19.17,0,35.37,16.43,35.37,35.87,0,17-5.15,22.3-32.52,47.58-13.5,12.46-31.4,29-54.8,53.32h34.68c15.11-15.06,27.39-26.41,37.28-35.54,27.71-25.59,40.36-37.28,40.36-65.36A60,60,0,0,0,1130.53,19.93Z"/></g><polygon id="APOS" class="cls-1" points="999.29 1.93 1014.69 32.99 1030.35 1.93 999.29 1.93"/><g id="A"><polygon class="cls-1" points="946.93 108.81 893.49 2.07 811.71 163.16 839.7 163.16 893.33 57.51 919.02 108.81 946.93 108.81"/><polygon class="cls-1" points="960.37 137.09 932.46 137.09 945.1 163.35 973.01 163.35 960.37 137.09"/></g><polygon id="H" class="cls-1" points="770.43 2.07 770.43 71.23 685.77 71.23 660.47 96.01 660.47 163.35 685.47 163.35 685.47 95.71 770.43 95.71 770.43 163.35 795.43 163.35 795.43 2.07 770.43 2.07"/><g id="S"><path class="cls-1" d="M606.91,163.16V138.29c11.19,0,21.77-11,21.77-22.64,0-11.33-10.38-21.65-21.77-21.65H564a45.7,45.7,0,0,1-45.77-45.52C518.24,23.27,539.66,2,565,2V26.83c-11.39,0-21.77,10.32-21.77,21.65A20.74,20.74,0,0,0,564,69.14h42.9c25.35,0,46.77,21.3,46.77,46.51S631.82,163.16,606.91,163.16Z"/></g><polygon id="K" class="cls-1" points="532.48 163.35 449.69 83.32 532.03 1.97 496.82 1.97 414.28 83.51 496.88 163.35 532.48 163.35"/><g id="U"><path class="cls-1" d="M354.55,163.16c-19.5,0-36.23-6.43-48.38-18.58S287.59,115.7,287.59,96.2V0h25V96.2c0,25.88,16.08,42,42,42s42-16.08,42-42h25c0,19.5-6.42,36.23-18.57,48.38S374.05,163.16,354.55,163.16Z"/><rect class="cls-1" x="397.39" width="25" height="65.7"/></g><polygon id="Y" class="cls-1" points="243.64 1.7 194.73 63.02 146.48 1.7 114.93 1.7 178.84 82.95 114.87 163.17 146.6 163.17 204.52 90.54 210.49 83.05 275.36 1.7 243.64 1.7"/><path id="D" class="cls-1" d="M62.4,2c-2-.18-4.09-.27-6.16-.27H.14L23,26.78H56.24c28.17,0,51.09,25,51.09,55.75s-22.92,55.74-51.09,55.74H22.84L0,163.35H56.24c41.95,0,76.09-36.26,76.09-80.82C132.33,40.17,101.48,5.31,62.4,2Z"/></g></g></g></svg>