<?xml version="1.0" encoding="utf-8"?>
<!-- Generator: Adobe Illustrator 25.2.3, SVG Export Plug-In . SVG Version: 6.00 Build 0)  -->
<svg version="1.1" id="Layer_1" xmlns="http://www.w3.org/2000/svg" xmlns:xlink="http://www.w3.org/1999/xlink" x="0px" y="0px"
	 viewBox="0 0 1279.2 338.4" style="enable-background:new 0 0 1279.2 338.4;" xml:space="preserve">
<style type="text/css">
	.st0{fill:none;stroke:#231E23;stroke-miterlimit:10;}
	.st1{fill:none;stroke:#1A2223;stroke-miterlimit:10;}
</style>
<g id="Layer_2_1_">
	<g id="Main">
		<g id="DYUKSHA23">
			<path id="_3" class="st0" d="M1263.5,118.1c0,24.4-19.1,44.2-42.5,44.2h-64.6l24.4-24.1h40.2c10,0,18.1-9,18.1-20.1
				s-8.1-20.1-18-20.1h-43.3V69.2h43.3c10,0,18.1-9,18.1-20.1S1231,29,1221.1,29h-40.2l-24.4-24.1h64.6c23.4,0,42.5,19.8,42.5,44.2
				c0.1,13.3-5.8,26-16,34.5C1257.7,92.2,1263.6,104.8,1263.5,118.1z"/>
			<g id="_2">
				<rect x="1087.6" y="138.3" class="st0" width="48" height="23.9"/>
				<path class="st0" d="M1118.5,22.4c-11-11.2-26.1-17.6-41.8-17.6c-12.6,0-25.3,4.2-36.7,11.9V49c2.7-2.8,5.4-5.6,8.2-8.1
					c8.8-7.8,18.9-12.2,28.5-12.2c18.7,0,34.5,16,34.5,35c0,16.6-5,21.8-31.7,46.4c-13.2,12.2-30.6,28.3-53.5,52h33.8
					c14.7-14.7,26.7-25.8,36.4-34.7c27-25,39.4-36.4,39.4-63.8C1135.6,48.3,1129.5,33.4,1118.5,22.4z"/>
			</g>
			<polygon id="APOS" class="st0" points="990.5,4.9 1005.5,35.2 1020.8,4.9 			"/>
			<g id="A">
				<polygon class="st0" points="939.4,109.1 887.3,5 807.5,162.2 834.8,162.2 887.1,59.1 912.2,109.1 				"/>
				<polygon class="st0" points="952.5,136.7 925.3,136.7 937.6,162.4 964.8,162.4 				"/>
			</g>
			<polygon id="H" class="st0" points="767.2,5 767.2,72.5 684.6,72.5 660,96.7 660,162.4 684.3,162.4 684.3,96.4 767.2,96.4 
				767.2,162.4 791.6,162.4 791.6,5 			"/>
			<g id="S">
				<path class="st0" d="M607.7,162.2v-24.3c10.9,0,21.2-10.7,21.2-22.1c0-11.1-10.1-21.1-21.2-21.1h-41.9
					c-24.6,0-44.6-19.8-44.6-44.4S542.1,5,566.8,5v24.2c-11.1,0-21.2,10.1-21.2,21.1c0,11.2,9.1,20.2,20.3,20.2h41.8
					c24.7,0,45.6,20.8,45.6,45.4S632,162.2,607.7,162.2z"/>
			</g>
			<polygon id="K" class="st0" points="535.1,162.4 454.3,84.3 534.7,4.9 500.3,4.9 419.8,84.5 500.4,162.4 			"/>
			<g id="U">
				<path class="st0" d="M361.5,162.2c-19,0-35.3-6.3-47.2-18.1s-18.1-28.2-18.1-47.2V3h24.4v93.8c0,25.2,15.7,41,41,41
					s41-15.7,41-41H427c0,19-6.3,35.3-18.1,47.2S380.6,162.2,361.5,162.2z"/>
				<rect x="403.3" y="3" class="st0" width="24.4" height="64.1"/>
			</g>
			<polygon id="Y" class="st0" points="253.3,4.7 205.6,64.5 158.6,4.7 127.8,4.7 190.1,83.9 127.7,162.2 158.7,162.2 215.2,91.3 
				221,84 284.3,4.7 			"/>
			<path id="D" class="st0" d="M76.5,5c-2-0.2-4-0.3-6-0.3H15.8l22.3,24.4h32.4c27.5,0,49.8,24.4,49.8,54.4S98,137.9,70.5,137.9
				H37.9l-22.3,24.5h54.9c40.9,0,74.2-35.4,74.2-78.8C144.8,42.2,114.7,8.2,76.5,5z"/>
		</g>
	</g>
</g>
<g id="Layer_2_2_">
	<g id="Main_1_">
		<g id="DYUKSHA23_1_">
			<path id="_3_1_" class="st1" d="M15.7,290.1c0,24.4,19.1,44.2,42.5,44.2h64.6l-24.4-24.1H58.2c-10,0-18.1-9-18.1-20.1
				s8.1-20.1,18-20.1h43.3v-28.8H58.1c-10,0-18.1-9-18.1-20.1C40,210,48.2,201,58.1,201h40.2l24.4-24.1H58.1
				c-23.4,0-42.5,19.8-42.5,44.2c-0.1,13.3,5.8,26,16,34.5C21.5,264.2,15.6,276.8,15.7,290.1z"/>
			<g id="_2_1_">
				<rect x="143.6" y="310.3" class="st1" width="48" height="23.9"/>
				<path class="st1" d="M160.7,194.4c11-11.2,26.1-17.6,41.8-17.6c12.6,0,25.3,4.2,36.7,11.9V221c-2.7-2.8-5.4-5.6-8.2-8.1
					c-8.8-7.8-18.9-12.2-28.5-12.2c-18.7,0-34.5,16-34.5,35c0,16.6,5,21.8,31.7,46.4c13.2,12.2,30.6,28.3,53.5,52h-33.8
					c-14.7-14.7-26.7-25.8-36.4-34.7c-27-25-39.4-36.4-39.4-63.8C143.6,220.3,149.7,205.4,160.7,194.4z"/>
			</g>
			<polygon id="APOS_1_" class="st1" points="288.7,176.9 273.7,207.2 258.4,176.9 			"/>
			<g id="A_1_">
				<polygon class="st1" points="339.8,281.1 391.9,177 471.7,334.2 444.4,334.2 392.1,231.1 367,281.1 				"/>
				<polygon class="st1" points="326.7,308.7 353.9,308.7 341.6,334.4 314.4,334.4 				"/>
			</g>
			<polygon id="H_1_" class="st1" points="512,177 512,244.5 594.6,244.5 619.2,268.7 619.2,334.4 594.9,334.4 594.9,268.4 
				512,268.4 512,334.4 487.6,334.4 487.6,177 			"/>
			<g id="S_1_">
				<path class="st1" d="M671.5,334.2v-24.3c-10.9,0-21.2-10.7-21.2-22.1c0-11.1,10.1-21.1,21.2-21.1h41.9
					c24.6,0,44.6-19.8,44.6-44.4S737.1,177,712.4,177v24.2c11.1,0,21.2,10.1,21.2,21.1c0,11.2-9.1,20.2-20.3,20.2h-41.8
					c-24.7,0-45.6,20.8-45.6,45.4S647.2,334.2,671.5,334.2z"/>
			</g>
			<polygon id="K_1_" class="st1" points="744.1,334.4 824.9,256.3 744.5,176.9 778.9,176.9 859.4,256.5 778.8,334.4 			"/>
			<g id="U_1_">
				<path class="st1" d="M917.7,334.2c19,0,35.3-6.3,47.2-18.1c11.9-11.8,18.1-28.2,18.1-47.2V175h-24.4v93.8c0,25.2-15.7,41-41,41
					s-41-15.7-41-41h-24.4c0,19,6.3,35.3,18.1,47.2C882.1,327.9,898.6,334.2,917.7,334.2z"/>
				<rect x="851.5" y="175" class="st1" width="24.4" height="64.1"/>
			</g>
			<polygon id="Y_1_" class="st1" points="1025.9,176.7 1073.6,236.5 1120.6,176.7 1151.4,176.7 1089.1,255.9 1151.5,334.2 
				1120.5,334.2 1064,263.3 1058.2,256 994.9,176.7 			"/>
			<path id="D_1_" class="st1" d="M1202.7,177c2-0.2,4-0.3,6-0.3h54.7l-22.3,24.4h-32.4c-27.5,0-49.8,24.4-49.8,54.4
				s22.3,54.4,49.8,54.4h32.6l22.3,24.5h-54.9c-40.9,0-74.2-35.4-74.2-78.8C1134.4,214.2,1164.5,180.2,1202.7,177z"/>
		</g>
	</g>
</g>
</svg>
