<?xml version="1.0" encoding="utf-8"?>
<!-- Generator: Adobe Illustrator 25.2.3, SVG Export Plug-In . SVG Version: 6.00 Build 0)  -->
<svg version="1.1" id="Layer_1" xmlns="http://www.w3.org/2000/svg" xmlns:xlink="http://www.w3.org/1999/xlink" x="0px" y="0px"
	 viewBox="0 0 1279.2 338.4" style="enable-background:new 0 0 1279.2 338.4;" xml:space="preserve">
<g id="Layer_2_1_">
	<g id="Main">
		<g id="DYUKSHA23">
			<path id="_3" d="M1263.5,120.1c0,24.4-19.1,44.2-42.5,44.2h-64.6l24.4-24.1h40.2c10,0,18.1-9,18.1-20.1s-8.1-20.1-18-20.1h-43.3
				V71.2h43.3c10,0,18.1-9,18.1-20.1S1231,31,1221.1,31h-40.2l-24.4-24.1h64.6c23.4,0,42.5,19.8,42.5,44.2c0.1,13.3-5.8,26-16,34.5
				C1257.7,94.2,1263.6,106.8,1263.5,120.1z"/>
			<g id="_2">
				<rect x="1087.6" y="140.3" width="48" height="23.9"/>
				<path d="M1118.5,24.4c-11-11.2-26.1-17.6-41.8-17.6c-12.6,0-25.3,4.2-36.7,11.9V51c2.7-2.8,5.4-5.6,8.2-8.1
					c8.8-7.8,18.9-12.2,28.5-12.2c18.7,0,34.5,16,34.5,35c0,16.6-5,21.8-31.7,46.4c-13.2,12.2-30.6,28.3-53.5,52h33.8
					c14.7-14.7,26.7-25.8,36.4-34.7c27-25,39.4-36.4,39.4-63.8C1135.6,50.3,1129.5,35.4,1118.5,24.4z"/>
			</g>
			<polygon id="APOS" points="990.5,6.9 1005.5,37.2 1020.8,6.9 			"/>
			<g id="A">
				<polygon points="939.4,111.1 887.3,7 807.5,164.2 834.8,164.2 887.1,61.1 912.2,111.1 				"/>
				<polygon points="952.5,138.7 925.3,138.7 937.6,164.4 964.8,164.4 				"/>
			</g>
			<polygon id="H" points="767.2,7 767.2,74.5 684.6,74.5 660,98.7 660,164.4 684.3,164.4 684.3,98.4 767.2,98.4 767.2,164.4 
				791.6,164.4 791.6,7 			"/>
			<g id="S">
				<path d="M607.7,164.2v-24.3c10.9,0,21.2-10.7,21.2-22.1c0-11.1-10.1-21.1-21.2-21.1h-41.9c-24.6,0-44.6-19.8-44.6-44.4
					S542.1,7,566.8,7v24.2c-11.1,0-21.2,10.1-21.2,21.1c0,11.2,9.1,20.2,20.3,20.2h41.8c24.7,0,45.6,20.8,45.6,45.4
					S632,164.2,607.7,164.2z"/>
			</g>
			<polygon id="K" points="535.1,164.4 454.3,86.3 534.7,6.9 500.3,6.9 419.8,86.5 500.4,164.4 			"/>
			<g id="U">
				<path d="M361.5,164.2c-19,0-35.3-6.3-47.2-18.1s-18.1-28.2-18.1-47.2V5h24.4v93.8c0,25.2,15.7,41,41,41s41-15.7,41-41H427
					c0,19-6.3,35.3-18.1,47.2S380.6,164.2,361.5,164.2z"/>
				<rect x="403.3" y="5" width="24.4" height="64.1"/>
			</g>
			<polygon id="Y" points="253.3,6.7 205.6,66.5 158.6,6.7 127.8,6.7 190.1,85.9 127.7,164.2 158.7,164.2 215.2,93.3 221,86 
				284.3,6.7 			"/>
			<path id="D" d="M76.5,7c-2-0.2-4-0.3-6-0.3H15.8l22.3,24.4h32.4c27.5,0,49.8,24.4,49.8,54.4S98,139.9,70.5,139.9H37.9l-22.3,24.5
				h54.9c40.9,0,74.2-35.4,74.2-78.8C144.8,44.2,114.7,10.2,76.5,7z"/>
		</g>
	</g>
</g>
<g id="Layer_2_2_">
	<g id="Main_1_">
		<g id="DYUKSHA23_1_">
			<path id="_3_1_" d="M15.7,290.1c0,24.4,19.1,44.2,42.5,44.2h64.6l-24.4-24.1H58.2c-10,0-18.1-9-18.1-20.1s8.1-20.1,18-20.1h43.3
				v-28.8H58.1c-10,0-18.1-9-18.1-20.1C40,210,48.2,201,58.1,201h40.2l24.4-24.1H58.1c-23.4,0-42.5,19.8-42.5,44.2
				c-0.1,13.3,5.8,26,16,34.5C21.5,264.2,15.6,276.8,15.7,290.1z"/>
			<g id="_2_1_">
				<rect x="143.6" y="310.3" width="48" height="23.9"/>
				<path d="M160.7,194.4c11-11.2,26.1-17.6,41.8-17.6c12.6,0,25.3,4.2,36.7,11.9V221c-2.7-2.8-5.4-5.6-8.2-8.1
					c-8.8-7.8-18.9-12.2-28.5-12.2c-18.7,0-34.5,16-34.5,35c0,16.6,5,21.8,31.7,46.4c13.2,12.2,30.6,28.3,53.5,52h-33.8
					c-14.7-14.7-26.7-25.8-36.4-34.7c-27-25-39.4-36.4-39.4-63.8C143.6,220.3,149.7,205.4,160.7,194.4z"/>
			</g>
			<polygon id="APOS_1_" points="288.7,176.9 273.7,207.2 258.4,176.9 			"/>
			<g id="A_1_">
				<polygon points="339.8,281.1 391.9,177 471.7,334.2 444.4,334.2 392.1,231.1 367,281.1 				"/>
				<polygon points="326.7,308.7 353.9,308.7 341.6,334.4 314.4,334.4 				"/>
			</g>
			<polygon id="H_1_" points="512,177 512,244.5 594.6,244.5 619.2,268.7 619.2,334.4 594.9,334.4 594.9,268.4 512,268.4 512,334.4 
				487.6,334.4 487.6,177 			"/>
			<g id="S_1_">
				<path d="M671.5,334.2v-24.3c-10.9,0-21.2-10.7-21.2-22.1c0-11.1,10.1-21.1,21.2-21.1h41.9c24.6,0,44.6-19.8,44.6-44.4
					S737.1,177,712.4,177v24.2c11.1,0,21.2,10.1,21.2,21.1c0,11.2-9.1,20.2-20.3,20.2h-41.8c-24.7,0-45.6,20.8-45.6,45.4
					S647.2,334.2,671.5,334.2z"/>
			</g>
			<polygon id="K_1_" points="744.1,334.4 824.9,256.3 744.5,176.9 778.9,176.9 859.4,256.5 778.8,334.4 			"/>
			<g id="U_1_">
				<path d="M917.7,334.2c19,0,35.3-6.3,47.2-18.1c11.9-11.8,18.1-28.2,18.1-47.2V175h-24.4v93.8c0,25.2-15.7,41-41,41
					s-41-15.7-41-41h-24.4c0,19,6.3,35.3,18.1,47.2C882.1,327.9,898.6,334.2,917.7,334.2z"/>
				<rect x="851.5" y="175" width="24.4" height="64.1"/>
			</g>
			<polygon id="Y_1_" points="1025.9,176.7 1073.6,236.5 1120.6,176.7 1151.4,176.7 1089.1,255.9 1151.5,334.2 1120.5,334.2 
				1064,263.3 1058.2,256 994.9,176.7 			"/>
			<path id="D_1_" d="M1202.7,177c2-0.2,4-0.3,6-0.3h54.7l-22.3,24.4h-32.4c-27.5,0-49.8,24.4-49.8,54.4s22.3,54.4,49.8,54.4h32.6
				l22.3,24.5h-54.9c-40.9,0-74.2-35.4-74.2-78.8C1134.4,214.2,1164.5,180.2,1202.7,177z"/>
		</g>
	</g>
</g>
</svg>
