<svg xmlns="http://www.w3.org/2000/svg" xmlns:xlink="http://www.w3.org/1999/xlink" viewBox="0 0 952.95 482.07"><defs><style>.cls-1{fill:gold;}.cls-2{fill:url(#New_Gradient_Swatch_1);}.cls-3{fill:url(#New_Gradient_Swatch_1-2);}.cls-4{fill:url(#New_Gradient_Swatch_1-3);}</style><linearGradient id="New_Gradient_Swatch_1" x1="393.15" y1="370.78" x2="405.26" y2="370.78" gradientUnits="userSpaceOnUse"><stop offset="0" stop-color="gold"/><stop offset="0.11" stop-color="#e7c304"/><stop offset="0.22" stop-color="#e5c204"/><stop offset="0.33" stop-color="#feea05"/><stop offset="0.46" stop-color="#eac603"/><stop offset="0.57" stop-color="#f6dc04"/><stop offset="0.68" stop-color="#d6b506"/><stop offset="0.8" stop-color="#ffde00"/><stop offset="0.86" stop-color="#e6c905"/><stop offset="1" stop-color="#ffff04"/></linearGradient><linearGradient id="New_Gradient_Swatch_1-2" x1="539.1" y1="206.98" x2="562.75" y2="206.98" gradientTransform="translate(307.72 -328.94) rotate(45)" xlink:href="#New_Gradient_Swatch_1"/><linearGradient id="New_Gradient_Swatch_1-3" x1="0" y1="241.03" x2="691.95" y2="241.03" xlink:href="#New_Gradient_Swatch_1"/></defs><g id="Layer_2" data-name="Layer 2"><g id="Layer_3" data-name="Layer 3"><g id="Day1"><polygon points="501.08 481.07 485.46 467.79 224.35 467.79 208.73 481.07 1 481.07 1 1 749.73 1 749.73 132.29 764.44 132.29 764.44 1 775.14 1 775.14 278.46 789.83 278.46 789.83 1 800.54 1 800.54 169.91 815.25 169.91 815.25 1 825.95 1 825.95 154.42 840.66 154.42 840.66 1 851.36 1 851.36 295.46 866.05 295.46 866.05 1 876.76 1 876.76 316.46 891.46 316.46 891.46 1 926.55 1 951.95 22.59 951.95 481.07 501.08 481.07"/><path class="cls-1" d="M926.18,2,951,23.05v457H501.45l-15.06-12.8-.56-.48H224l-.56.48-15.07,12.8H2V2H748.73V133.29h16.71V2h8.7V279.46h16.69V2h8.71V170.91h16.7V2H825V155.42h16.71V2h8.7V296.46h16.69V2h8.71V317.46h16.7V2h33.72m.74-2H890.46V315.46h-12.7V0H865.05V294.46H852.36V0h-12.7V153.42H827V0H814.24V168.91h-12.7V0H788.83V277.46H776.14V0h-12.7V131.29H750.73V0H0V482.07H209.1l15.62-13.28H485.09l15.62,13.28H953V22.13L926.92,0Z"/><polygon class="cls-2" points="397.16 376.87 405.26 368.77 393.15 364.69 397.16 376.87"/><rect class="cls-3" x="546.32" y="194.86" width="9.22" height="24.23" transform="translate(15.01 450.19) rotate(-45)"/><path class="cls-4" d="M644.75,116.33c-7.35,7.34-19.85,6.8-27.87-1.22s-8.56-20.52-1.21-27.86l8.71-8.71L623.89,68,692,0H0V482.07H209.1l2.49-2.12,86.52-86.45a16.75,16.75,0,0,0,3.88,18,17,17,0,0,0,13.49,4.95,17,17,0,0,0,5,13.5c6.52,6.52,16.92,6.73,23.18.47l17.27-17.28-13,.07L337.17,424c-2.67,2.66-7.24,2.42-10.21-.54s-3.2-7.54-.54-10.2L338,401.64l-7.71-7.71-11.59,11.59c-2.66,2.66-7.24,2.42-10.2-.54s-3.2-7.54-.54-10.21L318.72,384l.06-11.17,6.48-6.47,5.53,5.53,12.84-12.84-5.53-5.53,6.54-6.52c0,7-.26,12.65-.45,17.24-.55,13.9-.8,20.25,6.52,27.57a22.38,22.38,0,0,0,31.5,0,24.75,24.75,0,0,0,6.61-13l-8.61-8.61c.05,1.47.05,3,0,4.33a16.62,16.62,0,0,1-4.37,10.88,13.33,13.33,0,0,1-18.59-.13c-4.43-4.43-4.47-7.16-3.92-20.89.25-6.45.59-14.92.41-26.48l17.66-17.65,8.78,3.08,7.28-7.28L378.67,313l26.6-26.59,13.13,40.21L398.32,320,391,327.24l41.78,13.9-20.25-62,4.7-4.7,41.13,41.12,6.52-6.52-18-18L469,268.93l.14-13.07-16.61-16.6,9.58-9.58A18.07,18.07,0,0,0,465.75,249a17.44,17.44,0,0,0,24.33-.07l11.19-11.19a7.64,7.64,0,0,1,10.8,0A8.33,8.33,0,0,1,512,249l6.48,6.47a17.43,17.43,0,0,0,.07-24.32,16.85,16.85,0,0,0-23.81.07l-11.19,11.19a8.33,8.33,0,0,1-11.32,0c-3-3-3.15-8.66-.23-11.58l-5.57-5.58,20.42-20.41,40.49-.68-.26,42.69,9.19-9.18.26-42.8-40.39.69,29.93-29.9a22.66,22.66,0,0,0-2.53,10.35c0,6.34,2.69,12.37,7.77,17.46l6.52-6.52c-6.76-6.76-6.76-15.15,0-21.91s15.16-6.75,21.91,0l25.09,25.09,6.52-6.52L566.3,158.56c-5.08-5.09-11.13-7.77-17.46-7.77a22.69,22.69,0,0,0-10.31,2.5l47.27-47.23,3.64,32.31.4,3.51,4.3,38.14,8.27-8.28L599.17,143l28.58,3.41,8.23-8.23-37.86-4.52-4-35.86,10-10c-5.23,10.71-3,24.45,6.31,33.81,11,11.05,28.19,12.09,39.24,2.77.57-.48,1.14-1,1.68-1.54l14.63-14.63-12.49-.57ZM462.65,262.46,440.5,284.62l-16.7-16.7L446,245.77Z"/><path d="M42.67,81.14l6.69-37.36,10-8.53H86.88l8,9.64-1.43,7.89H82.66l.79-4.54-3-3.75H64.1l-4.78,4.07L54.06,77.71l3.35,4.06H74.05L78.59,78l1.52-8.76H68.24L69.83,60H92.22l-4,22.86L78.44,91H50.79Z"/><path d="M96.52,81.14l6.61-37.36,10-8.53h28.67l8.13,9.8L143.2,82.81,133.48,91H104.64Zm31.94.63,4.78-4.06,5.18-29.15-3.35-4.07H118l-4.78,4.07-5.26,29.15,3.34,4.06Z"/><path d="M161.2,35.25H172l-8.2,46.6h27.8L190,91H151.4Z"/><path d="M205.89,35.25h35l8.44,10.2-6.61,37.36L233,91H196.09ZM228,81.77l4.78-4.06,5.18-29.15-3.35-4.07H215.13l-6.61,37.28Z"/><path d="M260.69,35.25h40.23l-1.59,9.16h-29.4l-2.47,14.1h27.09l-1.6,9H265.87l-2.55,14.33h29.39L291.12,91H250.89Z"/><path d="M309,35.25h9.72l18.24,37.84h.16l6.61-37.84h10.44L344.25,91h-9.72L316.45,53.26h-.16L309.6,91H299.17Z"/><path d="M51.59,100.16H85.84l7.57,9.24-3.5,19.76L80.75,137H56l-3.34,19H41.79Zm25.09,27.72L80,125.09,82.26,112,80,109.24H60.83l-3.27,18.64Z"/><path d="M112.61,100.16h9.88l10.59,55.76h-11l-2.23-12.35h-19.6l-6.85,12.35h-11Zm6.21,34.49-3.58-21.19h-.16l-11,21.19Z"/><path d="M137.94,146.68l1.35-7.33H150l-.88,4.7,2.15,2.63h16.41l3.19-2.71,1.67-9.24-2.15-2.63H149.89l-7.65-9.24,2.55-14.73,9.4-8h25.09L187,109.4l-1.27,7.41H175.06l.8-4.78-2.15-2.63H157.93l-3.1,2.63-1.44,8.2,2.15,2.63H176l7.64,9.24L180.8,148l-9.32,8H145.59Z"/><path d="M188.68,146.68l1.36-7.33h10.67l-.88,4.7,2.16,2.63h16.4l3.19-2.71,1.67-9.24-2.15-2.63H200.63L193,122.86l2.55-14.73,9.4-8H230l7.73,9.24-1.27,7.41H225.8l.8-4.78-2.15-2.63H208.68L205.57,112l-1.43,8.2,2.15,2.63h20.47l7.65,9.24L231.54,148l-9.32,8H196.33Z"/><path d="M72.86,406.72H64.37l1.91,1.91v1.59h6.58v5.21H66.28v2.86L62.62,422l3.87,4.19v12.32H59.27V427.75l-3.35-3.56H41.53v-5.95H57.25l1.91-1.86v-.95H41.53v-5.21H59.16v-1l-1.91-1.86H41.53V401.3H72.86Z"/><path d="M84.34,409l-8,4.14V406.5l9.45-5.2h5.79v37.17H84.34Z"/><path d="M113.76,431.57h-18v-7.28l16.51-23H121v24.11h4.51v6.16H121v6.9h-7.22Zm.31-5.95V409.37h-.21l-11,15.51v.74Z"/><path d="M129.21,432.74V428h7.22v2.44l1.86,1.86h9l1.86-1.86V421.9l-3,3H134.41l-5.73-5.73V407l5.73-5.73h16.25L156.4,407v25.71l-5.74,5.73H134.94Zm16.51-14,3.46-3.45v-6l-1.86-1.86h-9.56l-1.86,1.86v7.59l1.86,1.86Z"/><path d="M162.51,432.74V428h7.22v2.44l1.86,1.86h9l1.86-1.86V421.9l-3,3H167.71L162,419.2V407l5.74-5.73H184L189.7,407v25.71L184,438.47H168.24Zm16.51-14,3.45-3.45v-6l-1.86-1.86h-9.55l-1.86,1.86v7.59l1.86,1.86Z"/><g id="Layer_2-2" data-name="Layer 2"><g id="Main"><g id="Logo_Color" data-name="Logo Color"><path class="cls-1" d="M860.92,393.73h-1.78a1.29,1.29,0,1,1,0-2.58h1.78a1.29,1.29,0,1,1,0,2.58Z"/><path class="cls-1" d="M878,393.73H865.59a1.29,1.29,0,0,1,0-2.58H878a1.29,1.29,0,0,1,0,2.58Z"/><path class="cls-1" d="M894.55,404.4a1.44,1.44,0,0,1-.5-.1c-.14-.05-1.37-.38-6-.38H871.1a1.29,1.29,0,0,1,0-2.58H888c3.81,0,6.34.22,7.12.63a1.29,1.29,0,0,1-.6,2.43Z"/><path class="cls-1" d="M872.81,398.88H861.57a1.29,1.29,0,1,1,0-2.57h11.24a1.29,1.29,0,1,1,0,2.57Z"/><path class="cls-1" d="M884.81,398.88h-6.75a1.29,1.29,0,1,1,0-2.57h6.75a1.29,1.29,0,1,1,0,2.57Z"/><path class="cls-1" d="M866.08,404h-1.86a1.29,1.29,0,1,1,0-2.57h1.86a1.29,1.29,0,0,1,0,2.57Z"/><path class="cls-1" d="M870.48,409.07h-4.59a1.29,1.29,0,0,1,0-2.57h4.59a1.29,1.29,0,1,1,0,2.57Z"/><path class="cls-1" d="M872.58,424.45h-5.74a1.29,1.29,0,0,1,0-2.58h5.74a1.29,1.29,0,0,1,0,2.58Z"/><path class="cls-1" d="M891.41,419.45h-6.84a1.29,1.29,0,0,1,0-2.58h6.84a1.29,1.29,0,1,1,0,2.58Z"/><path class="cls-1" d="M887.34,429.64H865.86a1.29,1.29,0,0,1,0-2.58h21.48a1.29,1.29,0,0,1,0,2.58Z"/><path class="cls-1" d="M878.06,434.69H864.21a1.29,1.29,0,0,1,0-2.58h13.85a1.29,1.29,0,1,1,0,2.58Z"/><path class="cls-1" d="M869.71,439.83h-8.28a1.29,1.29,0,0,1,0-2.58h8.28a1.29,1.29,0,0,1,0,2.58Z"/><path class="cls-1" d="M877.6,444.91H859.47a1.29,1.29,0,1,1,0-2.57H877.6a1.29,1.29,0,0,1,0,2.57Z"/><path class="cls-1" d="M891.41,444.91H882.6a1.29,1.29,0,1,1,0-2.57h8.81a1.29,1.29,0,1,1,0,2.57Z"/><path class="cls-1" d="M869.84,419.3a1.3,1.3,0,0,1-1.26-1.31,12.24,12.24,0,0,1,2.8-7.5,10.2,10.2,0,0,1,8-3.89c2.83,0,4.83,0,6.76-.06,1.7,0,3.3,0,5.3,0a10.69,10.69,0,0,1,7.2,2.8,11.64,11.64,0,0,1,1.48,1.58,1.29,1.29,0,0,1-.22,1.81l-.18.12h0a1.31,1.31,0,0,1-1.63-.34,9.46,9.46,0,0,0-1.23-1.3,8,8,0,0,0-5.42-2.1c-2,0-3.58,0-5.27.05-1.94,0-3.94.06-6.79.06-5.28,0-8.2,5.22-8.2,8.83a1.29,1.29,0,0,1-1.29,1.29Z"/><path class="cls-1" d="M889.76,424.45H879.24a6.47,6.47,0,0,1-5.16-8.78,1.29,1.29,0,0,1,2.39,1,3.63,3.63,0,0,0,.36,3.52,3.74,3.74,0,0,0,2.41,1.71h10.52a1.29,1.29,0,0,1,0,2.58Z"/><path class="cls-1" d="M893,439.83H874.88a1.29,1.29,0,0,1,0-2.58H893c3.44,0,8.31-2.57,8.36-2.6a1.29,1.29,0,0,1,1.21,2.28C902.36,437.05,897.1,439.83,893,439.83Z"/><path class="cls-1" d="M891.72,434.69h-3.94a1.29,1.29,0,0,1,0-2.58h3.94a13,13,0,0,0,9.82-4.73c2.26-2.55,3.48-5.54,3.48-7.05a1.29,1.29,0,1,1,2.57,0,10.51,10.51,0,0,1-1.08,4.12,19,19,0,0,1-3,4.64,17.21,17.21,0,0,1-5,3.93A14.68,14.68,0,0,1,891.72,434.69Z"/><path class="cls-1" d="M893.37,429.24a1.29,1.29,0,0,1-.34-2.53c4.7-1.29,7-4.21,7-8.91a1.29,1.29,0,1,1,2.57,0,11.27,11.27,0,0,1-2.82,7.94,12.63,12.63,0,0,1-6.06,3.46A1.32,1.32,0,0,1,893.37,429.24Z"/><path class="cls-1" d="M905.33,413.68a1.29,1.29,0,0,1-1.19-.78c-.88-2-1.65-3.81-6.22-7.15a1.29,1.29,0,1,1,1.51-2.08h0a24.65,24.65,0,0,1,5,4.53,15.05,15.05,0,0,1,2.09,3.68,1.28,1.28,0,0,1-.68,1.69A1.25,1.25,0,0,1,905.33,413.68Z"/><path class="cls-1" d="M909.35,409.18a1.29,1.29,0,0,1-1.17-.74,17.46,17.46,0,0,0-5.26-5.89,19.85,19.85,0,0,0-13.23-3.67,1.29,1.29,0,0,1-.17-2.57,23.82,23.82,0,0,1,8.62,1,22,22,0,0,1,6.3,3.17,20,20,0,0,1,6.07,6.87,1.28,1.28,0,0,1-.62,1.71A1.26,1.26,0,0,1,909.35,409.18Z"/><path class="cls-1" d="M909.29,429.69A1.28,1.28,0,0,1,908,428.4a1.27,1.27,0,0,1,.19-.68c2.81-4.54,2.87-8.74,2-14.48a1.28,1.28,0,0,1,1.09-1.46,1.3,1.3,0,0,1,1.46,1.09,32.84,32.84,0,0,1,.38,8,18.73,18.73,0,0,1-2.78,8.17A1.28,1.28,0,0,1,909.29,429.69Z"/><path class="cls-1" d="M916.67,416.62a1.29,1.29,0,0,1-1.29-1.23c-.22-4.48-3-10.26-6.82-14.39a1.29,1.29,0,1,1,1.85-1.79l0,0a31,31,0,0,1,5.09,7.46,22.54,22.54,0,0,1,2.42,8.56,1.29,1.29,0,0,1-1.22,1.36h-.06Z"/><path class="cls-1" d="M903.06,396.67a1.3,1.3,0,0,1-.67-.19,18.38,18.38,0,0,0-3.19-1.38,26.72,26.72,0,0,0-8.46-1.37h-5.62a1.29,1.29,0,1,1,0-2.58h5.62a26.71,26.71,0,0,1,13,3.13,1.29,1.29,0,0,1-.67,2.39Z"/><path class="cls-1" d="M896.05,420.48a1.18,1.18,0,0,1-.27,0,1.28,1.28,0,0,1-1-1.53h0a4,4,0,0,0-.83-3.36,3.29,3.29,0,0,0-2.5-1.3h-6.24a1.29,1.29,0,0,1,0-2.58h6.24a5.84,5.84,0,0,1,4.5,2.26,6.63,6.63,0,0,1,1.35,5.52A1.29,1.29,0,0,1,896.05,420.48Z"/><rect class="cls-1" x="878.76" y="416.8" width="2.58" height="2.58" rx="1.04"/><rect class="cls-1" x="865.63" y="411.61" width="2.58" height="2.58" rx="1.01"/><path class="cls-1" d="M900.22,443.26a1.28,1.28,0,0,1-.45-2.49A24.36,24.36,0,0,0,915,422.87a1.29,1.29,0,1,1,2.53.48A27,27,0,0,1,913,433.76a26.16,26.16,0,0,1-12.33,9.42A1.12,1.12,0,0,1,900.22,443.26Z"/></g></g></g></g></g></g></svg>