<svg xmlns="http://www.w3.org/2000/svg" xmlns:xlink="http://www.w3.org/1999/xlink" viewBox="0 0 873.5 427.5"><defs><style>.cls-1,.cls-10,.cls-100,.cls-101,.cls-102,.cls-103,.cls-104,.cls-105,.cls-106,.cls-107,.cls-108,.cls-109,.cls-11,.cls-110,.cls-111,.cls-112,.cls-113,.cls-114,.cls-115,.cls-116,.cls-117,.cls-118,.cls-119,.cls-12,.cls-120,.cls-121,.cls-122,.cls-123,.cls-124,.cls-125,.cls-126,.cls-127,.cls-128,.cls-129,.cls-13,.cls-130,.cls-131,.cls-132,.cls-133,.cls-134,.cls-135,.cls-136,.cls-137,.cls-138,.cls-139,.cls-14,.cls-140,.cls-141,.cls-142,.cls-143,.cls-144,.cls-145,.cls-146,.cls-147,.cls-148,.cls-149,.cls-15,.cls-150,.cls-151,.cls-152,.cls-153,.cls-154,.cls-155,.cls-156,.cls-157,.cls-158,.cls-159,.cls-16,.cls-160,.cls-161,.cls-162,.cls-163,.cls-164,.cls-165,.cls-166,.cls-167,.cls-168,.cls-169,.cls-17,.cls-170,.cls-171,.cls-172,.cls-173,.cls-174,.cls-175,.cls-176,.cls-177,.cls-178,.cls-179,.cls-18,.cls-180,.cls-181,.cls-186,.cls-19,.cls-2,.cls-20,.cls-21,.cls-22,.cls-23,.cls-24,.cls-25,.cls-26,.cls-27,.cls-28,.cls-29,.cls-3,.cls-30,.cls-31,.cls-32,.cls-33,.cls-34,.cls-35,.cls-36,.cls-37,.cls-38,.cls-39,.cls-4,.cls-40,.cls-41,.cls-42,.cls-43,.cls-44,.cls-45,.cls-46,.cls-47,.cls-48,.cls-49,.cls-5,.cls-50,.cls-51,.cls-52,.cls-53,.cls-54,.cls-55,.cls-56,.cls-57,.cls-58,.cls-59,.cls-6,.cls-60,.cls-61,.cls-62,.cls-63,.cls-64,.cls-65,.cls-66,.cls-67,.cls-68,.cls-69,.cls-7,.cls-70,.cls-71,.cls-72,.cls-73,.cls-74,.cls-75,.cls-76,.cls-77,.cls-78,.cls-79,.cls-8,.cls-80,.cls-81,.cls-82,.cls-83,.cls-84,.cls-85,.cls-86,.cls-87,.cls-88,.cls-89,.cls-9,.cls-90,.cls-91,.cls-92,.cls-93,.cls-94,.cls-95,.cls-96,.cls-97,.cls-98,.cls-99{fill:none;}.cls-2{stroke:gold;stroke-width:2px;}.cls-10,.cls-100,.cls-101,.cls-106,.cls-112,.cls-115,.cls-116,.cls-117,.cls-119,.cls-120,.cls-121,.cls-122,.cls-123,.cls-124,.cls-129,.cls-130,.cls-135,.cls-141,.cls-144,.cls-145,.cls-147,.cls-148,.cls-149,.cls-15,.cls-154,.cls-16,.cls-160,.cls-163,.cls-164,.cls-167,.cls-169,.cls-17,.cls-170,.cls-171,.cls-172,.cls-173,.cls-174,.cls-18,.cls-180,.cls-19,.cls-24,.cls-3,.cls-30,.cls-33,.cls-34,.cls-40,.cls-41,.cls-5,.cls-54,.cls-55,.cls-56,.cls-57,.cls-59,.cls-6,.cls-60,.cls-61,.cls-62,.cls-7,.cls-8,.cls-88,.cls-9,.cls-90,.cls-91,.cls-92,.cls-93,.cls-94,.cls-95{stroke-linejoin:bevel;}.cls-3{stroke:url(#linear-gradient);}.cls-4{stroke:url(#linear-gradient-2);}.cls-5{stroke:url(#linear-gradient-3);}.cls-6{stroke:url(#linear-gradient-4);}.cls-7{stroke:url(#linear-gradient-5);}.cls-8{stroke:url(#linear-gradient-6);}.cls-9{stroke:url(#linear-gradient-7);}.cls-10{stroke:url(#linear-gradient-8);}.cls-11{stroke:url(#linear-gradient-9);}.cls-12{stroke:url(#linear-gradient-10);}.cls-13{stroke:url(#linear-gradient-11);}.cls-14{stroke:url(#linear-gradient-12);}.cls-15{stroke:url(#linear-gradient-13);}.cls-16{stroke:url(#linear-gradient-14);}.cls-17{stroke:url(#linear-gradient-15);}.cls-18{stroke:url(#linear-gradient-16);}.cls-19{stroke:url(#linear-gradient-17);}.cls-20{stroke:url(#linear-gradient-18);}.cls-21{stroke:url(#linear-gradient-19);}.cls-22{stroke:url(#linear-gradient-20);}.cls-23{stroke:url(#linear-gradient-21);}.cls-24{stroke:url(#linear-gradient-22);}.cls-25{stroke:url(#linear-gradient-23);}.cls-26{stroke:url(#linear-gradient-24);}.cls-27{stroke:url(#linear-gradient-25);}.cls-28{stroke:url(#linear-gradient-26);}.cls-29{stroke:url(#linear-gradient-27);}.cls-30{stroke:url(#linear-gradient-28);}.cls-31{stroke:url(#linear-gradient-29);}.cls-32{stroke:url(#linear-gradient-30);}.cls-33{stroke:url(#linear-gradient-31);}.cls-34{stroke:url(#linear-gradient-32);}.cls-35{stroke:url(#linear-gradient-33);}.cls-36{stroke:url(#linear-gradient-34);}.cls-37{stroke:url(#linear-gradient-35);}.cls-38{stroke:url(#linear-gradient-36);}.cls-39{stroke:url(#linear-gradient-37);}.cls-40{stroke:url(#linear-gradient-38);}.cls-41{stroke:url(#linear-gradient-39);}.cls-42{stroke:url(#linear-gradient-40);}.cls-43{stroke:url(#linear-gradient-41);}.cls-44{stroke:url(#linear-gradient-42);}.cls-45{stroke:url(#linear-gradient-43);}.cls-46{stroke:url(#linear-gradient-44);}.cls-47{stroke:url(#linear-gradient-45);}.cls-48{stroke:url(#linear-gradient-46);}.cls-49{stroke:url(#linear-gradient-47);}.cls-50{stroke:url(#linear-gradient-48);}.cls-51{stroke:url(#linear-gradient-49);}.cls-52{stroke:url(#linear-gradient-50);}.cls-53{stroke:url(#linear-gradient-51);}.cls-54{stroke:url(#linear-gradient-52);}.cls-55{stroke:url(#linear-gradient-53);}.cls-56{stroke:url(#linear-gradient-54);}.cls-57{stroke:url(#linear-gradient-55);}.cls-58{stroke:url(#linear-gradient-56);}.cls-59{stroke:url(#linear-gradient-57);}.cls-60{stroke:url(#linear-gradient-58);}.cls-61{stroke:url(#linear-gradient-59);}.cls-62{stroke:url(#linear-gradient-60);}.cls-63{stroke:url(#linear-gradient-61);}.cls-64{stroke:url(#linear-gradient-62);}.cls-65{stroke:url(#linear-gradient-63);}.cls-66{stroke:url(#linear-gradient-64);}.cls-67{stroke:url(#linear-gradient-65);}.cls-68{stroke:url(#linear-gradient-66);}.cls-69{stroke:url(#linear-gradient-67);}.cls-70{stroke:url(#linear-gradient-68);}.cls-71{stroke:url(#linear-gradient-69);}.cls-72{stroke:url(#linear-gradient-70);}.cls-73{stroke:url(#linear-gradient-71);}.cls-74{stroke:url(#linear-gradient-72);}.cls-75{stroke:url(#linear-gradient-73);}.cls-76{stroke:url(#linear-gradient-74);}.cls-77{stroke:url(#linear-gradient-75);}.cls-78{stroke:url(#linear-gradient-76);}.cls-79{stroke:url(#linear-gradient-77);}.cls-80{stroke:url(#linear-gradient-78);}.cls-81{stroke:url(#linear-gradient-79);}.cls-82{stroke:url(#linear-gradient-80);}.cls-83{stroke:url(#linear-gradient-81);}.cls-84{stroke:url(#linear-gradient-82);}.cls-85{stroke:url(#linear-gradient-83);}.cls-86{stroke:url(#linear-gradient-84);}.cls-87{stroke:url(#linear-gradient-85);}.cls-88{stroke:url(#linear-gradient-86);}.cls-89{stroke:url(#linear-gradient-87);}.cls-90{stroke:url(#linear-gradient-88);}.cls-91{stroke:url(#linear-gradient-89);}.cls-92{stroke:url(#linear-gradient-90);}.cls-93{stroke:url(#linear-gradient-91);}.cls-94{stroke:url(#linear-gradient-92);}.cls-95{stroke:url(#linear-gradient-93);}.cls-96{stroke:url(#linear-gradient-94);}.cls-97{stroke:url(#linear-gradient-95);}.cls-98{stroke:url(#linear-gradient-96);}.cls-99{stroke:url(#linear-gradient-97);}.cls-100{stroke:url(#linear-gradient-98);}.cls-101{stroke:url(#linear-gradient-99);}.cls-102{stroke:url(#linear-gradient-100);}.cls-103{stroke:url(#linear-gradient-101);}.cls-104{stroke:url(#linear-gradient-102);}.cls-105{stroke:url(#linear-gradient-103);}.cls-106{stroke:url(#linear-gradient-104);}.cls-107{stroke:url(#linear-gradient-105);}.cls-108{stroke:url(#linear-gradient-106);}.cls-109{stroke:url(#linear-gradient-107);}.cls-110{stroke:url(#linear-gradient-108);}.cls-111{stroke:url(#linear-gradient-109);}.cls-112{stroke:url(#linear-gradient-110);}.cls-113{stroke:url(#linear-gradient-111);}.cls-114{stroke:url(#linear-gradient-112);}.cls-115{stroke:url(#linear-gradient-113);}.cls-116{stroke:url(#linear-gradient-114);}.cls-117{stroke:url(#linear-gradient-115);}.cls-118{stroke:url(#linear-gradient-116);}.cls-119{stroke:url(#linear-gradient-117);}.cls-120{stroke:url(#linear-gradient-118);}.cls-121{stroke:url(#linear-gradient-119);}.cls-122{stroke:url(#linear-gradient-120);}.cls-123{stroke:url(#linear-gradient-121);}.cls-124{stroke:url(#linear-gradient-122);}.cls-125{stroke:url(#linear-gradient-123);}.cls-126{stroke:url(#linear-gradient-124);}.cls-127{stroke:url(#linear-gradient-125);}.cls-128{stroke:url(#linear-gradient-126);}.cls-129{stroke:url(#linear-gradient-127);}.cls-130{stroke:url(#linear-gradient-128);}.cls-131{stroke:url(#linear-gradient-129);}.cls-132{stroke:url(#linear-gradient-130);}.cls-133{stroke:url(#linear-gradient-131);}.cls-134{stroke:url(#linear-gradient-132);}.cls-135{stroke:url(#linear-gradient-133);}.cls-136{stroke:url(#linear-gradient-134);}.cls-137{stroke:url(#linear-gradient-135);}.cls-138{stroke:url(#linear-gradient-136);}.cls-139{stroke:url(#linear-gradient-137);}.cls-140{stroke:url(#linear-gradient-138);}.cls-141{stroke:url(#linear-gradient-139);}.cls-142{stroke:url(#linear-gradient-140);}.cls-143{stroke:url(#linear-gradient-141);}.cls-144{stroke:url(#linear-gradient-142);}.cls-145{stroke:url(#linear-gradient-143);}.cls-146{stroke:url(#linear-gradient-144);}.cls-147{stroke:url(#linear-gradient-145);}.cls-148{stroke:url(#linear-gradient-146);}.cls-149{stroke:url(#linear-gradient-147);}.cls-150{stroke:url(#linear-gradient-148);}.cls-151{stroke:url(#linear-gradient-149);}.cls-152{stroke:url(#linear-gradient-150);}.cls-153{stroke:url(#linear-gradient-151);}.cls-154{stroke:url(#linear-gradient-152);}.cls-155{stroke:url(#linear-gradient-153);}.cls-156{stroke:url(#linear-gradient-154);}.cls-157{stroke:url(#linear-gradient-155);}.cls-158{stroke:url(#linear-gradient-156);}.cls-159{stroke:url(#linear-gradient-157);}.cls-160{stroke:url(#linear-gradient-158);}.cls-161{stroke:url(#linear-gradient-159);}.cls-162{stroke:url(#linear-gradient-160);}.cls-163{stroke:url(#linear-gradient-161);}.cls-164{stroke:url(#linear-gradient-162);}.cls-165{stroke:url(#linear-gradient-163);}.cls-166{stroke:url(#linear-gradient-164);}.cls-167{stroke:url(#linear-gradient-165);}.cls-168{stroke:url(#linear-gradient-166);}.cls-169{stroke:url(#linear-gradient-167);}.cls-170{stroke:url(#linear-gradient-168);}.cls-171{stroke:url(#linear-gradient-169);}.cls-172{stroke:url(#linear-gradient-170);}.cls-173{stroke:url(#linear-gradient-171);}.cls-174{stroke:url(#linear-gradient-172);}.cls-175{stroke:url(#linear-gradient-173);}.cls-176{stroke:url(#linear-gradient-174);}.cls-177{stroke:url(#linear-gradient-175);}.cls-178{stroke:url(#linear-gradient-176);}.cls-179{stroke:url(#linear-gradient-177);}.cls-180{stroke:url(#linear-gradient-178);}.cls-181{stroke:url(#linear-gradient-179);}.cls-182{fill:gold;}.cls-183{fill:url(#linear-gradient-180);}.cls-184{fill:url(#linear-gradient-181);}.cls-185{fill:url(#linear-gradient-182);}.cls-186{stroke-miterlimit:10;stroke-width:0.75px;stroke-dasharray:5;stroke:url(#linear-gradient-183);}.cls-187{fill:url(#linear-gradient-184);}.cls-188{opacity:0.16;}.cls-189{fill:url(#Hatching_Dense);}.cls-190{fill:url(#Blazer);}</style><linearGradient id="linear-gradient" x1="-25057.63" y1="-32098.69" x2="-25000.89" y2="-32098.69" gradientTransform="matrix(1, 0, 0, -1, 25148.5, -31867.96)" gradientUnits="userSpaceOnUse"><stop offset="0" stop-color="gold"/><stop offset="0.37" stop-color="#fdd500" stop-opacity="0.99"/><stop offset="0.5" stop-color="#f7d001" stop-opacity="0.97"/><stop offset="0.6" stop-color="#edc603" stop-opacity="0.92"/><stop offset="0.67" stop-color="#deb706" stop-opacity="0.85"/><stop offset="0.74" stop-color="#cba50a" stop-opacity="0.77"/><stop offset="0.8" stop-color="#b38e0e" stop-opacity="0.66"/><stop offset="0.85" stop-color="#977314" stop-opacity="0.53"/><stop offset="0.9" stop-color="#76531a" stop-opacity="0.39"/><stop offset="0.94" stop-color="#502e21" stop-opacity="0.22"/><stop offset="0.98" stop-color="#280828" stop-opacity="0.04"/><stop offset="0.99" stop-color="#20002a" stop-opacity="0"/></linearGradient><linearGradient id="linear-gradient-2" x1="-25044.91" y1="-32084" x2="-25017" y2="-32084" xlink:href="#linear-gradient"/><linearGradient id="linear-gradient-3" x1="-25014.95" y1="-32089.14" x2="-25011.25" y2="-32089.14" xlink:href="#linear-gradient"/><linearGradient id="linear-gradient-4" x1="-24956.74" y1="-32096.01" x2="-24940.67" y2="-32096.01" xlink:href="#linear-gradient"/><linearGradient id="linear-gradient-5" x1="-25005.51" y1="-32094.57" x2="-25000.21" y2="-32094.57" xlink:href="#linear-gradient"/><linearGradient id="linear-gradient-6" x1="-24992.05" y1="-32094.31" x2="-24985.01" y2="-32094.31" xlink:href="#linear-gradient"/><linearGradient id="linear-gradient-7" x1="-24981.5" y1="-32092.86" x2="-24973.97" y2="-32092.86" xlink:href="#linear-gradient"/><linearGradient id="linear-gradient-8" x1="-24966.83" y1="-32094.76" x2="-24954.42" y2="-32094.76" xlink:href="#linear-gradient"/><linearGradient id="linear-gradient-9" x1="-25028.8" y1="-32074.77" x2="-25018.46" y2="-32074.77" xlink:href="#linear-gradient"/><linearGradient id="linear-gradient-10" x1="-25072.92" y1="-32101.26" x2="-25022.22" y2="-32101.26" xlink:href="#linear-gradient"/><linearGradient id="linear-gradient-11" x1="-25134.65" y1="-32076.65" x2="-25118.37" y2="-32076.65" xlink:href="#linear-gradient"/><linearGradient id="linear-gradient-12" x1="-25144.65" y1="-32081.55" x2="-25126.12" y2="-32081.55" xlink:href="#linear-gradient"/><linearGradient id="linear-gradient-13" x1="-24946.08" y1="-32076.99" x2="-24935.62" y2="-32076.99" xlink:href="#linear-gradient"/><linearGradient id="linear-gradient-14" x1="-24947.65" y1="-32082.51" x2="-24936" y2="-32082.51" xlink:href="#linear-gradient"/><linearGradient id="linear-gradient-15" x1="-25154.08" y1="-32076.99" x2="-25143.62" y2="-32076.99" xlink:href="#linear-gradient"/><linearGradient id="linear-gradient-16" x1="-25155.65" y1="-32082.51" x2="-25144" y2="-32082.51" xlink:href="#linear-gradient"/><linearGradient id="linear-gradient-17" x1="-24940.57" y1="-31894.21" x2="-24929.81" y2="-31894.21" xlink:href="#linear-gradient"/><linearGradient id="linear-gradient-18" x1="-24940.83" y1="-31915.03" x2="-24912.88" y2="-31915.03" xlink:href="#linear-gradient"/><linearGradient id="linear-gradient-19" x1="-24941.13" y1="-31928.53" x2="-24885.39" y2="-31928.53" xlink:href="#linear-gradient"/><linearGradient id="linear-gradient-20" x1="-24940.6" y1="-31907.9" x2="-24923.04" y2="-31907.9" xlink:href="#linear-gradient"/><linearGradient id="linear-gradient-21" x1="-24940.62" y1="-31920.55" x2="-24899.15" y2="-31920.55" xlink:href="#linear-gradient"/><linearGradient id="linear-gradient-22" x1="-24941.2" y1="-32019.78" x2="-24923.49" y2="-32019.78" xlink:href="#linear-gradient"/><linearGradient id="linear-gradient-23" x1="-24941.25" y1="-32026.35" x2="-24914.08" y2="-32026.35" xlink:href="#linear-gradient"/><linearGradient id="linear-gradient-24" x1="-24941.75" y1="-32039.24" x2="-24903.93" y2="-32039.24" xlink:href="#linear-gradient"/><linearGradient id="linear-gradient-25" x1="-24941.76" y1="-32058.21" x2="-24932.02" y2="-32058.21" xlink:href="#linear-gradient"/><linearGradient id="linear-gradient-26" x1="-24941.23" y1="-32016.44" x2="-24931.64" y2="-32016.44" xlink:href="#linear-gradient"/><linearGradient id="linear-gradient-27" x1="-24941.63" y1="-32005.06" x2="-24933.37" y2="-32005.06" xlink:href="#linear-gradient"/><linearGradient id="linear-gradient-28" x1="-24941.42" y1="-32010.62" x2="-24930.53" y2="-32010.62" xlink:href="#linear-gradient"/><linearGradient id="linear-gradient-29" x1="-24940.8" y1="-31986.49" x2="-24924.18" y2="-31986.49" xlink:href="#linear-gradient"/><linearGradient id="linear-gradient-30" x1="-24941.1" y1="-31994.12" x2="-24926.4" y2="-31994.12" xlink:href="#linear-gradient"/><linearGradient id="linear-gradient-31" x1="-24940.84" y1="-31976.46" x2="-24918.36" y2="-31976.46" xlink:href="#linear-gradient"/><linearGradient id="linear-gradient-32" x1="-24941.57" y1="-32001.93" x2="-24932.19" y2="-32001.93" xlink:href="#linear-gradient"/><linearGradient id="linear-gradient-33" x1="-24945.86" y1="-32070.14" x2="-24932.34" y2="-32070.14" xlink:href="#linear-gradient"/><linearGradient id="linear-gradient-34" x1="-25044.36" y1="-31922.74" x2="-25030.18" y2="-31922.74" xlink:href="#linear-gradient"/><linearGradient id="linear-gradient-35" x1="-25045.16" y1="-31914.05" x2="-25035.18" y2="-31914.05" xlink:href="#linear-gradient"/><linearGradient id="linear-gradient-36" x1="-25121.63" y1="-31987.54" x2="-25053.91" y2="-31987.54" xlink:href="#linear-gradient"/><linearGradient id="linear-gradient-37" x1="-25124.52" y1="-31998.04" x2="-25049.57" y2="-31998.04" xlink:href="#linear-gradient"/><linearGradient id="linear-gradient-38" x1="-25137.57" y1="-31933.42" x2="-25082.14" y2="-31933.42" xlink:href="#linear-gradient"/><linearGradient id="linear-gradient-39" x1="-25083.38" y1="-31943.38" x2="-25082.02" y2="-31943.38" xlink:href="#linear-gradient"/><linearGradient id="linear-gradient-40" x1="-25125.99" y1="-31891.97" x2="-25054.99" y2="-31891.97" xlink:href="#linear-gradient"/><linearGradient id="linear-gradient-41" x1="-25043.66" y1="-31982.48" x2="-25018.57" y2="-31982.48" xlink:href="#linear-gradient"/><linearGradient id="linear-gradient-42" x1="-25143.11" y1="-31968.99" x2="-25120.95" y2="-31968.99" xlink:href="#linear-gradient"/><linearGradient id="linear-gradient-43" x1="-25063.47" y1="-31938.49" x2="-25062.11" y2="-31938.49" xlink:href="#linear-gradient"/><linearGradient id="linear-gradient-44" x1="-25054.79" y1="-31938.22" x2="-25053.42" y2="-31938.22" xlink:href="#linear-gradient"/><linearGradient id="linear-gradient-45" x1="-25075.24" y1="-31938.22" x2="-25072.97" y2="-31938.22" xlink:href="#linear-gradient"/><linearGradient id="linear-gradient-46" x1="-25092.07" y1="-31947.99" x2="-25090.71" y2="-31947.99" xlink:href="#linear-gradient"/><linearGradient id="linear-gradient-47" x1="-25106.37" y1="-31956.32" x2="-25102.3" y2="-31956.32" xlink:href="#linear-gradient"/><linearGradient id="linear-gradient-48" x1="-25116.87" y1="-31961.03" x2="-25113.16" y2="-31961.03" xlink:href="#linear-gradient"/><linearGradient id="linear-gradient-49" x1="-25125.73" y1="-31962.93" x2="-25122.58" y2="-31962.93" xlink:href="#linear-gradient"/><linearGradient id="linear-gradient-50" x1="-25122.36" y1="-31883.64" x2="-25062.96" y2="-31883.64" xlink:href="#linear-gradient"/><linearGradient id="linear-gradient-51" x1="-25113.86" y1="-31874.59" x2="-25072.37" y2="-31874.59" xlink:href="#linear-gradient"/><linearGradient id="linear-gradient-52" x1="-25132.48" y1="-32007.09" x2="-25051.75" y2="-32007.09" xlink:href="#linear-gradient"/><linearGradient id="linear-gradient-53" x1="-25023.11" y1="-31985.37" x2="-24995.31" y2="-31985.37" xlink:href="#linear-gradient"/><linearGradient id="linear-gradient-54" x1="-25048.42" y1="-32011.08" x2="-24999.69" y2="-32011.08" xlink:href="#linear-gradient"/><linearGradient id="linear-gradient-55" x1="-25016.25" y1="-31991.62" x2="-24996.2" y2="-31991.62" xlink:href="#linear-gradient"/><linearGradient id="linear-gradient-56" x1="-25046.1" y1="-31994.6" x2="-25017.04" y2="-31994.6" xlink:href="#linear-gradient"/><linearGradient id="linear-gradient-57" x1="-25070.58" y1="-32042.57" x2="-25021.34" y2="-32042.57" xlink:href="#linear-gradient"/><linearGradient id="linear-gradient-58" x1="-25058.26" y1="-32035.69" x2="-25018.46" y2="-32035.69" xlink:href="#linear-gradient"/><linearGradient id="linear-gradient-59" x1="-25048.85" y1="-32025.92" x2="-25024.24" y2="-32025.92" xlink:href="#linear-gradient"/><linearGradient id="linear-gradient-60" x1="-25050.64" y1="-32015.6" x2="-25019.2" y2="-32015.6" xlink:href="#linear-gradient"/><linearGradient id="linear-gradient-61" x1="-25009.13" y1="-31943.74" x2="-24991.55" y2="-31943.74" xlink:href="#linear-gradient"/><linearGradient id="linear-gradient-62" x1="-24974.42" y1="-31917.49" x2="-24950.61" y2="-31917.49" xlink:href="#linear-gradient"/><linearGradient id="linear-gradient-63" x1="-24980.33" y1="-31922.56" x2="-24957" y2="-31922.56" xlink:href="#linear-gradient"/><linearGradient id="linear-gradient-64" x1="-24987.61" y1="-31926.54" x2="-24962.76" y2="-31926.54" xlink:href="#linear-gradient"/><linearGradient id="linear-gradient-65" x1="-24995.6" y1="-31932.52" x2="-24964.91" y2="-31932.52" xlink:href="#linear-gradient"/><linearGradient id="linear-gradient-66" x1="-24996.03" y1="-31940.84" x2="-24970.63" y2="-31940.84" xlink:href="#linear-gradient"/><linearGradient id="linear-gradient-67" x1="-25002.58" y1="-31949.53" x2="-24972.77" y2="-31949.53" xlink:href="#linear-gradient"/><linearGradient id="linear-gradient-68" x1="-25139.28" y1="-32045.83" x2="-25102.51" y2="-32045.83" xlink:href="#linear-gradient"/><linearGradient id="linear-gradient-69" x1="-25134.22" y1="-32052.35" x2="-25098.16" y2="-32052.35" xlink:href="#linear-gradient"/><linearGradient id="linear-gradient-70" x1="-25128.44" y1="-32058.5" x2="-25093.08" y2="-32058.5" xlink:href="#linear-gradient"/><linearGradient id="linear-gradient-71" x1="-24992.49" y1="-31973.06" x2="-24985.03" y2="-31973.06" xlink:href="#linear-gradient"/><linearGradient id="linear-gradient-72" x1="-25014.46" y1="-31995.15" x2="-24987.86" y2="-31995.15" xlink:href="#linear-gradient"/><linearGradient id="linear-gradient-73" x1="-25110.79" y1="-32068.64" x2="-25082.5" y2="-32068.64" xlink:href="#linear-gradient"/><linearGradient id="linear-gradient-74" x1="-25004.67" y1="-32012.89" x2="-24987.33" y2="-32012.89" xlink:href="#linear-gradient"/><linearGradient id="linear-gradient-75" x1="-24985.94" y1="-32022.84" x2="-24976.92" y2="-32022.84" xlink:href="#linear-gradient"/><linearGradient id="linear-gradient-76" x1="-24971.06" y1="-32025.92" x2="-24952.16" y2="-32025.92" xlink:href="#linear-gradient"/><linearGradient id="linear-gradient-77" x1="-24995.35" y1="-32018.68" x2="-24982.17" y2="-32018.68" xlink:href="#linear-gradient"/><linearGradient id="linear-gradient-78" x1="-25043.53" y1="-31932.15" x2="-25007.12" y2="-31932.15" xlink:href="#linear-gradient"/><linearGradient id="linear-gradient-79" x1="-25041.37" y1="-31943.38" x2="-25003.49" y2="-31943.38" xlink:href="#linear-gradient"/><linearGradient id="linear-gradient-80" x1="-25044.44" y1="-31954.78" x2="-24997.7" y2="-31954.78" xlink:href="#linear-gradient"/><linearGradient id="linear-gradient-81" x1="-25043.36" y1="-31965.01" x2="-24999.87" y2="-31965.01" xlink:href="#linear-gradient"/><linearGradient id="linear-gradient-82" x1="-25043.55" y1="-31972.52" x2="-25006.37" y2="-31972.52" xlink:href="#linear-gradient"/><linearGradient id="linear-gradient-83" x1="-25033.46" y1="-31979.67" x2="-25012.66" y2="-31979.67" xlink:href="#linear-gradient"/><linearGradient id="linear-gradient-84" x1="-25106.43" y1="-32063.21" x2="-25086.13" y2="-32063.21" xlink:href="#linear-gradient"/><linearGradient id="linear-gradient-85" x1="-25101.37" y1="-32058.05" x2="-25090.82" y2="-32058.05" xlink:href="#linear-gradient"/><linearGradient id="linear-gradient-86" x1="-25057.63" y1="-31892.83" x2="-25000.89" y2="-31892.83" xlink:href="#linear-gradient"/><linearGradient id="linear-gradient-87" x1="-25044.91" y1="-31878.14" x2="-25017" y2="-31878.14" xlink:href="#linear-gradient"/><linearGradient id="linear-gradient-88" x1="-25014.95" y1="-31883.28" x2="-25011.25" y2="-31883.28" xlink:href="#linear-gradient"/><linearGradient id="linear-gradient-89" x1="-24956.74" y1="-31890.15" x2="-24940.67" y2="-31890.15" xlink:href="#linear-gradient"/><linearGradient id="linear-gradient-90" x1="-25005.51" y1="-31888.71" x2="-25000.21" y2="-31888.71" xlink:href="#linear-gradient"/><linearGradient id="linear-gradient-91" x1="-24992.05" y1="-31888.45" x2="-24985.01" y2="-31888.45" xlink:href="#linear-gradient"/><linearGradient id="linear-gradient-92" x1="-24981.5" y1="-31887" x2="-24973.97" y2="-31887" xlink:href="#linear-gradient"/><linearGradient id="linear-gradient-93" x1="-24966.83" y1="-31888.9" x2="-24954.42" y2="-31888.9" xlink:href="#linear-gradient"/><linearGradient id="linear-gradient-94" x1="-25028.8" y1="-31868.91" x2="-25018.46" y2="-31868.91" xlink:href="#linear-gradient"/><linearGradient id="linear-gradient-95" x1="-25072.92" y1="-31895.4" x2="-25022.22" y2="-31895.4" xlink:href="#linear-gradient"/><linearGradient id="linear-gradient-96" x1="-25134.65" y1="-31870.79" x2="-25118.37" y2="-31870.79" xlink:href="#linear-gradient"/><linearGradient id="linear-gradient-97" x1="-25144.65" y1="-31875.69" x2="-25126.12" y2="-31875.69" xlink:href="#linear-gradient"/><linearGradient id="linear-gradient-98" x1="-25148.37" y1="-31883.16" x2="-25132.98" y2="-31883.16" xlink:href="#linear-gradient"/><linearGradient id="linear-gradient-99" x1="-25148.57" y1="-31894.21" x2="-25137.81" y2="-31894.21" xlink:href="#linear-gradient"/><linearGradient id="linear-gradient-100" x1="-25148.83" y1="-31915.03" x2="-25120.88" y2="-31915.03" xlink:href="#linear-gradient"/><linearGradient id="linear-gradient-101" x1="-25149.13" y1="-31928.53" x2="-25093.39" y2="-31928.53" xlink:href="#linear-gradient"/><linearGradient id="linear-gradient-102" x1="-25148.6" y1="-31907.9" x2="-25131.04" y2="-31907.9" xlink:href="#linear-gradient"/><linearGradient id="linear-gradient-103" x1="-25148.62" y1="-31920.55" x2="-25107.15" y2="-31920.55" xlink:href="#linear-gradient"/><linearGradient id="linear-gradient-104" x1="-25149.2" y1="-32019.78" x2="-25131.49" y2="-32019.78" xlink:href="#linear-gradient"/><linearGradient id="linear-gradient-105" x1="-25149.25" y1="-32026.35" x2="-25122.08" y2="-32026.35" xlink:href="#linear-gradient"/><linearGradient id="linear-gradient-106" x1="-25149.75" y1="-32039.24" x2="-25111.93" y2="-32039.24" xlink:href="#linear-gradient"/><linearGradient id="linear-gradient-107" x1="-25149.76" y1="-32058.21" x2="-25140.02" y2="-32058.21" xlink:href="#linear-gradient"/><linearGradient id="linear-gradient-108" x1="-25149.23" y1="-32016.44" x2="-25139.64" y2="-32016.44" xlink:href="#linear-gradient"/><linearGradient id="linear-gradient-109" x1="-25149.63" y1="-32005.06" x2="-25141.37" y2="-32005.06" xlink:href="#linear-gradient"/><linearGradient id="linear-gradient-110" x1="-25149.42" y1="-32010.62" x2="-25138.53" y2="-32010.62" xlink:href="#linear-gradient"/><linearGradient id="linear-gradient-111" x1="-25148.8" y1="-31986.49" x2="-25132.18" y2="-31986.49" xlink:href="#linear-gradient"/><linearGradient id="linear-gradient-112" x1="-25149.1" y1="-31994.12" x2="-25134.4" y2="-31994.12" xlink:href="#linear-gradient"/><linearGradient id="linear-gradient-113" x1="-25148.84" y1="-31976.46" x2="-25126.36" y2="-31976.46" xlink:href="#linear-gradient"/><linearGradient id="linear-gradient-114" x1="-25149.57" y1="-32001.93" x2="-25140.19" y2="-32001.93" xlink:href="#linear-gradient"/><linearGradient id="linear-gradient-115" x1="-25113.83" y1="-32047.15" x2="-25052.06" y2="-32047.15" xlink:href="#linear-gradient"/><linearGradient id="linear-gradient-116" x1="-25102.43" y1="-32046.32" x2="-25038.81" y2="-32046.32" xlink:href="#linear-gradient"/><linearGradient id="linear-gradient-117" x1="-25017.13" y1="-32060.76" x2="-25013.52" y2="-32060.76" xlink:href="#linear-gradient"/><linearGradient id="linear-gradient-118" x1="-24959.92" y1="-32069.92" x2="-24954.37" y2="-32069.92" xlink:href="#linear-gradient"/><linearGradient id="linear-gradient-119" x1="-25009.17" y1="-32055.24" x2="-25004" y2="-32055.24" xlink:href="#linear-gradient"/><linearGradient id="linear-gradient-120" x1="-24996.86" y1="-32056.79" x2="-24990.41" y2="-32056.79" xlink:href="#linear-gradient"/><linearGradient id="linear-gradient-121" x1="-24986.72" y1="-32057.87" x2="-24979.77" y2="-32057.87" xlink:href="#linear-gradient"/><linearGradient id="linear-gradient-122" x1="-24975.49" y1="-32057.23" x2="-24964.71" y2="-32057.23" xlink:href="#linear-gradient"/><linearGradient id="linear-gradient-123" x1="-25087.94" y1="-32047.1" x2="-25023" y2="-32047.1" xlink:href="#linear-gradient"/><linearGradient id="linear-gradient-124" x1="-25087.26" y1="-32066.64" x2="-25067.64" y2="-32066.64" xlink:href="#linear-gradient"/><linearGradient id="linear-gradient-125" x1="-25146.95" y1="-32069" x2="-25126.7" y2="-32069" xlink:href="#linear-gradient"/><linearGradient id="linear-gradient-126" x1="-25153.86" y1="-32070.14" x2="-25140.34" y2="-32070.14" xlink:href="#linear-gradient"/><linearGradient id="linear-gradient-127" x1="-24946.08" y1="-31871.13" x2="-24935.62" y2="-31871.13" xlink:href="#linear-gradient"/><linearGradient id="linear-gradient-128" x1="-24947.65" y1="-31876.65" x2="-24936" y2="-31876.65" xlink:href="#linear-gradient"/><linearGradient id="linear-gradient-129" x1="-24971.4" y1="-31946.13" x2="-24936" y2="-31946.13" xlink:href="#linear-gradient"/><linearGradient id="linear-gradient-130" x1="-24967.75" y1="-31967.54" x2="-24935.73" y2="-31967.54" xlink:href="#linear-gradient"/><linearGradient id="linear-gradient-131" x1="-24963.96" y1="-31926.92" x2="-24935.53" y2="-31926.92" xlink:href="#linear-gradient"/><linearGradient id="linear-gradient-132" x1="-25011.92" y1="-31974.68" x2="-24935.76" y2="-31974.68" xlink:href="#linear-gradient"/><linearGradient id="linear-gradient-133" x1="-24964.05" y1="-32031.26" x2="-24935.82" y2="-32031.26" xlink:href="#linear-gradient"/><linearGradient id="linear-gradient-134" x1="-24966.94" y1="-32041.53" x2="-24935.53" y2="-32041.53" xlink:href="#linear-gradient"/><linearGradient id="linear-gradient-135" x1="-24953.2" y1="-32054.21" x2="-24935.68" y2="-32054.21" xlink:href="#linear-gradient"/><linearGradient id="linear-gradient-136" x1="-24947.37" y1="-32061.18" x2="-24935.87" y2="-32061.18" xlink:href="#linear-gradient"/><linearGradient id="linear-gradient-137" x1="-24979.07" y1="-32012.81" x2="-24936.37" y2="-32012.81" xlink:href="#linear-gradient"/><linearGradient id="linear-gradient-138" x1="-24979.14" y1="-31998.25" x2="-24935.95" y2="-31998.25" xlink:href="#linear-gradient"/><linearGradient id="linear-gradient-139" x1="-24984.16" y1="-32005.14" x2="-24936.18" y2="-32005.14" xlink:href="#linear-gradient"/><linearGradient id="linear-gradient-140" x1="-24948.88" y1="-31978.61" x2="-24935.65" y2="-31978.61" xlink:href="#linear-gradient"/><linearGradient id="linear-gradient-141" x1="-24957.52" y1="-31986.09" x2="-24935.46" y2="-31986.09" xlink:href="#linear-gradient"/><linearGradient id="linear-gradient-142" x1="-24946.37" y1="-31966.15" x2="-24935.14" y2="-31966.15" xlink:href="#linear-gradient"/><linearGradient id="linear-gradient-143" x1="-24963.31" y1="-31994.08" x2="-24935.86" y2="-31994.08" xlink:href="#linear-gradient"/><linearGradient id="linear-gradient-144" x1="-24945.34" y1="-32068.01" x2="-24935.36" y2="-32068.01" xlink:href="#linear-gradient"/><linearGradient id="linear-gradient-145" x1="-24949.04" y1="-32073.41" x2="-24944.22" y2="-32073.41" xlink:href="#linear-gradient"/><linearGradient id="linear-gradient-146" x1="-25154.08" y1="-31871.13" x2="-25143.62" y2="-31871.13" xlink:href="#linear-gradient"/><linearGradient id="linear-gradient-147" x1="-25155.65" y1="-31876.65" x2="-25144" y2="-31876.65" xlink:href="#linear-gradient"/><linearGradient id="linear-gradient-148" x1="-25179.4" y1="-31946.13" x2="-25144" y2="-31946.13" xlink:href="#linear-gradient"/><linearGradient id="linear-gradient-149" x1="-25175.75" y1="-31967.54" x2="-25143.73" y2="-31967.54" xlink:href="#linear-gradient"/><linearGradient id="linear-gradient-150" x1="-25171.96" y1="-31926.92" x2="-25143.53" y2="-31926.92" xlink:href="#linear-gradient"/><linearGradient id="linear-gradient-151" x1="-25219.92" y1="-31974.68" x2="-25143.76" y2="-31974.68" xlink:href="#linear-gradient"/><linearGradient id="linear-gradient-152" x1="-25172.05" y1="-32031.26" x2="-25143.82" y2="-32031.26" xlink:href="#linear-gradient"/><linearGradient id="linear-gradient-153" x1="-25174.94" y1="-32041.53" x2="-25143.53" y2="-32041.53" xlink:href="#linear-gradient"/><linearGradient id="linear-gradient-154" x1="-25161.2" y1="-32054.21" x2="-25143.68" y2="-32054.21" xlink:href="#linear-gradient"/><linearGradient id="linear-gradient-155" x1="-25155.37" y1="-32061.18" x2="-25143.87" y2="-32061.18" xlink:href="#linear-gradient"/><linearGradient id="linear-gradient-156" x1="-25187.07" y1="-32012.81" x2="-25144.37" y2="-32012.81" xlink:href="#linear-gradient"/><linearGradient id="linear-gradient-157" x1="-25187.14" y1="-31998.25" x2="-25143.95" y2="-31998.25" xlink:href="#linear-gradient"/><linearGradient id="linear-gradient-158" x1="-25192.16" y1="-32005.14" x2="-25144.18" y2="-32005.14" xlink:href="#linear-gradient"/><linearGradient id="linear-gradient-159" x1="-25156.88" y1="-31978.61" x2="-25143.65" y2="-31978.61" xlink:href="#linear-gradient"/><linearGradient id="linear-gradient-160" x1="-25165.52" y1="-31986.09" x2="-25143.46" y2="-31986.09" xlink:href="#linear-gradient"/><linearGradient id="linear-gradient-161" x1="-25154.37" y1="-31966.15" x2="-25143.14" y2="-31966.15" xlink:href="#linear-gradient"/><linearGradient id="linear-gradient-162" x1="-25171.31" y1="-31994.08" x2="-25143.86" y2="-31994.08" xlink:href="#linear-gradient"/><linearGradient id="linear-gradient-163" x1="-25153.34" y1="-32068.01" x2="-25143.36" y2="-32068.01" xlink:href="#linear-gradient"/><linearGradient id="linear-gradient-164" x1="-24945.86" y1="-31864.28" x2="-24932.34" y2="-31864.28" xlink:href="#linear-gradient"/><linearGradient id="linear-gradient-165" x1="-25113.83" y1="-31841.29" x2="-25052.06" y2="-31841.29" xlink:href="#linear-gradient"/><linearGradient id="linear-gradient-166" x1="-25102.43" y1="-31840.46" x2="-25038.81" y2="-31840.46" xlink:href="#linear-gradient"/><linearGradient id="linear-gradient-167" x1="-25017.13" y1="-31854.9" x2="-25013.52" y2="-31854.9" xlink:href="#linear-gradient"/><linearGradient id="linear-gradient-168" x1="-24959.92" y1="-31864.06" x2="-24954.37" y2="-31864.06" xlink:href="#linear-gradient"/><linearGradient id="linear-gradient-169" x1="-25009.17" y1="-31849.38" x2="-25004" y2="-31849.38" xlink:href="#linear-gradient"/><linearGradient id="linear-gradient-170" x1="-24996.86" y1="-31850.93" x2="-24990.41" y2="-31850.93" xlink:href="#linear-gradient"/><linearGradient id="linear-gradient-171" x1="-24986.72" y1="-31852.01" x2="-24979.77" y2="-31852.01" xlink:href="#linear-gradient"/><linearGradient id="linear-gradient-172" x1="-24975.49" y1="-31851.37" x2="-24964.71" y2="-31851.37" xlink:href="#linear-gradient"/><linearGradient id="linear-gradient-173" x1="-25087.94" y1="-31841.24" x2="-25023" y2="-31841.24" xlink:href="#linear-gradient"/><linearGradient id="linear-gradient-174" x1="-25087.26" y1="-31860.78" x2="-25067.64" y2="-31860.78" xlink:href="#linear-gradient"/><linearGradient id="linear-gradient-175" x1="-25146.95" y1="-31863.14" x2="-25126.7" y2="-31863.14" xlink:href="#linear-gradient"/><linearGradient id="linear-gradient-176" x1="-25153.86" y1="-31864.28" x2="-25140.34" y2="-31864.28" xlink:href="#linear-gradient"/><linearGradient id="linear-gradient-177" x1="-24945.34" y1="-31862.15" x2="-24935.36" y2="-31862.15" xlink:href="#linear-gradient"/><linearGradient id="linear-gradient-178" x1="-24949.04" y1="-31867.55" x2="-24944.22" y2="-31867.55" xlink:href="#linear-gradient"/><linearGradient id="linear-gradient-179" x1="-25153.34" y1="-31862.15" x2="-25143.36" y2="-31862.15" xlink:href="#linear-gradient"/><linearGradient id="linear-gradient-180" x1="312.63" y1="440.96" x2="585.37" y2="-12.96" gradientUnits="userSpaceOnUse"><stop offset="0" stop-color="#896f00"/><stop offset="0.16" stop-color="gold"/><stop offset="0.44" stop-color="#e9c400"/><stop offset="0.61" stop-color="#caa800"/><stop offset="0.73" stop-color="#fad300"/><stop offset="0.86" stop-color="#ddb900"/><stop offset="0.99" stop-color="#ffcb00"/></linearGradient><linearGradient id="linear-gradient-181" x1="386.63" y1="440.96" x2="659.37" y2="-12.96" xlink:href="#linear-gradient-180"/><linearGradient id="linear-gradient-182" x1="460.63" y1="440.96" x2="733.37" y2="-12.96" xlink:href="#linear-gradient-180"/><linearGradient id="linear-gradient-183" x1="4" y1="363" x2="869" y2="363" gradientUnits="userSpaceOnUse"><stop offset="0" stop-color="#896f00"/><stop offset="0.5" stop-color="gold"/><stop offset="0.66" stop-color="#c0a000"/><stop offset="1" stop-color="#ffcb00"/></linearGradient><linearGradient id="linear-gradient-184" x1="0" y1="213.75" x2="873.5" y2="213.75" xlink:href="#linear-gradient-183"/><pattern id="Hatching_Dense" data-name="Hatching Dense" width="208" height="205.86" patternTransform="translate(1 1)" patternUnits="userSpaceOnUse" viewBox="0 0 208 205.86"><rect class="cls-1" width="208" height="205.86"/><polyline class="cls-3" points="91.23 202.45 96.09 207.36 147.25 259.01"/><polyline class="cls-4" points="103.95 202.21 109.34 207.69 131.14 229.87"/><polyline class="cls-5" points="134.05 202.36 134.48 208.33 136.76 240.01"/><polyline class="cls-6" points="192.25 202.33 193.65 207.1 207.35 253.76"/><polyline class="cls-7" points="143.49 202.36 144.01 208.15 147.8 250.87"/><polyline class="cls-8" points="156.95 202.55 157.59 207.63 163 250.15"/><polyline class="cls-9" points="167.5 202.54 168.24 207.61 174.04 247.25"/><polyline class="cls-10" points="182.16 202.54 183.31 207.42 193.59 251.05"/><polyline class="cls-11" points="120.05 202.22 125.15 207.08 129.7 211.41"/><polyline class="cls-12" points="75.97 202.15 80.48 207.77 125.89 264.44"/><polyline class="cls-13" points="14.21 200.91 21.45 208.15 29.78 216.48"/><polyline class="cls-14" points="4.23 202.92 7.78 207.18 22 224.26"/><polyline class="cls-15" points="202.82 202.36 209.06 210.99 212.48 215.71"/><polyline class="cls-16" points="201.31 201.41 203.82 207.57 208.92 220.05 212.04 227.71"/><polyline class="cls-17" points="-5.18 202.36 1.06 210.99 4.48 215.71"/><polyline class="cls-18" points="-6.69 201.41 -4.17 207.57 0.92 220.05 4.04 227.71"/><polyline class="cls-19" points="208.39 14.19 211.51 21.84 218.23 38.31"/><polyline class="cls-20" points="208.05 62.53 211.6 58.49 235.24 31.61"/><polyline class="cls-21" points="207.73 88.09 211.89 83.93 262.76 33.06"/><polyline class="cls-22" points="208.26 48.62 212.09 44.67 225.11 31.25"/><polyline class="cls-23" points="208.23 72.84 211.87 69.24 249 32.34"/><polyline class="cls-24" points="207.57 157.26 211.89 154.52 224.75 146.37"/><polyline class="cls-25" points="207.52 166.78 212.19 163.84 234.16 150"/><polyline class="cls-26" points="207.03 183.89 212.02 180.51 244.29 158.68"/><polyline class="cls-27" points="216.24 187.65 211.86 190.12 206.99 192.87"/><polyline class="cls-28" points="207.36 147.7 211.53 148.39 216.78 149.27"/><polyline class="cls-29" points="214.97 138.41 211.87 137.38 207.03 135.78"/><polyline class="cls-30" points="217.87 143.84 211.69 142.47 207.19 141.47"/><polyline class="cls-31" points="208 112.4 212.03 115.48 224.02 124.65"/><polyline class="cls-32" points="207.66 121.87 212.26 124.64 221.85 130.45"/><polyline class="cls-33" points="207.99 98.86 212.51 102.85 229.81 118.14"/><polyline class="cls-34" points="207.19 131.34 211.87 134.11 216.06 136.6"/><polyline class="cls-35" points="203.03 194.52 212.23 205.59 215.78 209.84"/><line class="cls-36" x1="104.35" y1="51.53" x2="118.11" y2="58.04"/><line class="cls-37" x1="103.63" y1="42.84" x2="113.04" y2="49.35"/><line class="cls-38" x1="26.88" y1="120.31" x2="94.58" y2="118.86"/><line class="cls-39" x1="23.99" y1="130.45" x2="98.92" y2="129.72"/><line class="cls-40" x1="11.32" y1="97.5" x2="65.98" y2="33.42"/><line class="cls-41" x1="65.98" y1="43.56" x2="65.62" y2="107.28"/><line class="cls-42" x1="22.54" y1="22.56" x2="93.49" y2="25.46"/><line class="cls-43" x1="129.7" y1="121.03" x2="105.08" y2="108"/><line class="cls-44" x1="27.24" y1="109.45" x2="5.7" y2="92.61"/><line class="cls-45" x1="85.89" y1="34.87" x2="85.53" y2="106.19"/><line class="cls-46" x1="94.58" y1="34.87" x2="94.22" y2="105.65"/><line class="cls-47" x1="73.76" y1="33.97" x2="75.03" y2="106.55"/><line class="cls-48" x1="57.29" y1="52.25" x2="56.93" y2="107.82"/><line class="cls-49" x1="45.71" y1="68.18" x2="42.63" y2="108.54"/><line class="cls-50" x1="34.85" y1="76.87" x2="32.13" y2="109.27"/><line class="cls-51" x1="25.43" y1="89.18" x2="23.26" y2="100.76"/><line class="cls-52" x1="26.16" y1="14.6" x2="85.53" y2="16.77"/><line class="cls-53" x1="34.67" y1="5.91" x2="76.12" y2="7.36"/><line class="cls-54" x1="16.02" y1="139.13" x2="96.75" y2="139.13"/><line class="cls-55" x1="152.87" y1="105.83" x2="125.71" y2="129"/><line class="cls-56" x1="148.52" y1="160.13" x2="100.37" y2="126.1"/><line class="cls-57" x1="132.59" y1="132.62" x2="151.96" y2="114.7"/><line class="cls-58" x1="131.14" y1="138.41" x2="102.73" y2="114.88"/><line class="cls-59" x1="78.29" y1="149.27" x2="126.8" y2="199.95"/><line class="cls-60" x1="90.6" y1="148.55" x2="129.7" y2="186.92"/><line class="cls-61" x1="100.01" y1="145.65" x2="123.9" y2="170.27"/><line class="cls-62" x1="98.2" y1="133.7" x2="128.97" y2="161.58"/><line class="cls-63" x1="139.83" y1="55.15" x2="156.49" y2="96.42"/><line class="cls-64" x1="174.22" y1="46.09" x2="197.76" y2="52.97"/><line class="cls-65" x1="168.43" y1="47.54" x2="191.24" y2="61.66"/><line class="cls-66" x1="161.19" y1="49.72" x2="185.45" y2="67.45"/><line class="cls-67" x1="153.23" y1="51.89" x2="183.28" y2="77.23"/><line class="cls-68" x1="152.87" y1="57.32" x2="177.48" y2="88.45"/><line class="cls-69" x1="146.35" y1="58.04" x2="175.31" y2="105.1"/><line class="cls-70" x1="9.51" y1="190.54" x2="45.71" y2="165.2"/><line class="cls-71" x1="50.05" y1="171.72" x2="14.57" y2="197.06"/><line class="cls-72" x1="55.12" y1="177.51" x2="20.37" y2="203.57"/><line class="cls-73" x1="156.49" y1="96.42" x2="163" y2="113.79"/><line class="cls-74" x1="160.29" y1="114.15" x2="134.4" y2="140.22"/><line class="cls-75" x1="37.74" y1="199.95" x2="65.98" y2="201.4"/><line class="cls-76" x1="160.83" y1="136.96" x2="144.18" y2="152.89"/><line class="cls-77" x1="171.15" y1="147.46" x2="163" y2="162.3"/><line class="cls-78" x1="177.48" y1="157.23" x2="196.31" y2="158.68"/><line class="cls-79" x1="165.9" y1="139.86" x2="153.59" y2="161.58"/><line class="cls-80" x1="105.08" y1="60.21" x2="141.28" y2="68.18"/><line class="cls-81" x1="107.25" y1="71.07" x2="144.9" y2="79.76"/><line class="cls-82" x1="104.17" y1="81.57" x2="150.69" y2="92.07"/><line class="cls-83" x1="105.26" y1="91.89" x2="148.52" y2="102.21"/><line class="cls-84" x1="105.08" y1="99.67" x2="142" y2="109.45"/><line class="cls-85" x1="115.22" y1="108" x2="135.67" y2="115.42"/><line class="cls-86" x1="42.09" y1="194.89" x2="62.36" y2="195.61"/><line class="cls-87" x1="47.16" y1="189.82" x2="57.65" y2="190.36"/><polyline class="cls-88" points="91.23 -3.41 96.09 1.5 147.25 53.15"/><polyline class="cls-89" points="103.95 -3.65 109.34 1.83 131.14 24.01"/><polyline class="cls-90" points="134.05 -3.5 134.48 2.47 136.76 34.15"/><polyline class="cls-91" points="192.25 -3.53 193.65 1.24 207.35 47.91"/><polyline class="cls-92" points="143.49 -3.5 144.01 2.29 147.8 45.01"/><polyline class="cls-93" points="156.95 -3.31 157.59 1.77 163 44.28"/><polyline class="cls-94" points="167.5 -3.31 168.24 1.75 174.04 41.39"/><polyline class="cls-95" points="182.16 -3.31 183.31 1.56 193.59 45.19"/><polyline class="cls-96" points="120.05 -3.64 125.15 1.22 129.7 5.55"/><polyline class="cls-97" points="75.97 -3.71 80.48 1.91 125.89 58.59"/><polyline class="cls-98" points="14.21 -4.95 21.45 2.29 29.78 10.62"/><polyline class="cls-99" points="4.23 -2.94 7.78 1.32 22 18.4"/><polyline class="cls-100" points="0.54 5.13 3.96 9.85 15.12 25.28"/><polyline class="cls-101" points="0.39 14.19 3.52 21.84 10.23 38.31"/><polyline class="cls-102" points="0.05 62.53 3.6 58.49 27.24 31.61"/><polyline class="cls-103" points="-0.27 88.09 3.89 83.93 54.76 33.06"/><polyline class="cls-104" points="0.26 48.62 4.09 44.67 17.11 31.25"/><polyline class="cls-105" points="0.23 72.84 3.87 69.24 41 32.34"/><polyline class="cls-106" points="-0.43 157.26 3.89 154.52 16.75 146.37"/><polyline class="cls-107" points="-0.48 166.78 4.19 163.84 26.16 150"/><polyline class="cls-108" points="-0.96 183.89 4.02 180.51 36.3 158.68"/><polyline class="cls-109" points="8.24 187.65 3.86 190.12 -1.01 192.87"/><polyline class="cls-110" points="-0.64 147.7 3.53 148.39 8.78 149.27"/><polyline class="cls-111" points="6.97 138.41 3.87 137.38 -0.96 135.78"/><polyline class="cls-112" points="9.87 143.84 3.69 142.47 -0.81 141.47"/><polyline class="cls-113" points="0.01 112.4 4.03 115.48 16.02 124.65"/><polyline class="cls-114" points="-0.34 121.87 4.26 124.64 13.85 130.45"/><polyline class="cls-115" points="-0.01 98.86 4.51 102.85 21.81 118.14"/><polyline class="cls-116" points="-0.81 131.34 3.87 134.11 8.06 136.6"/><polyline class="cls-117" points="35.03 148.37 91.23 205.11 96.09 210.03"/><polyline class="cls-118" points="46.43 146.37 103.95 204.88 109.34 210.36"/><polyline class="cls-119" points="131.87 174.61 134.05 205.02 134.48 210.99"/><polyline class="cls-120" points="189.07 194.16 192.25 204.99 193.65 209.76"/><polyline class="cls-121" points="139.83 163.75 143.49 205.02 144.01 210.81"/><polyline class="cls-122" points="152.14 167.37 156.95 205.21 157.59 210.29"/><polyline class="cls-123" points="162.28 169.54 167.5 205.21 168.24 210.27"/><polyline class="cls-124" points="173.5 168.46 182.16 205.21 183.31 210.08"/><polyline class="cls-125" points="60.91 148.55 120.05 204.88 125.15 209.75"/><polyline class="cls-126" points="61.64 186.92 75.97 204.81 80.48 210.44"/><polyline class="cls-127" points="1.9 191.26 14.21 203.57 21.45 210.81"/><polyline class="cls-128" points="-4.97 194.52 4.23 205.59 7.78 209.84"/><polyline class="cls-129" points="202.82 -3.5 209.06 5.13 212.48 9.85"/><polyline class="cls-130" points="201.31 -4.46 203.82 1.71 208.92 14.19 212.04 21.84"/><polyline class="cls-131" points="177.48 97.86 208.57 62.53 212.12 58.49"/><polyline class="cls-132" points="181.1 115.24 208.25 88.09 212.42 83.93"/><polyline class="cls-133" points="184.9 73.25 208.79 48.62 212.62 44.67"/><polyline class="cls-134" points="136.94 144.2 208.76 72.84 212.39 69.24"/><polyline class="cls-135" points="184.72 172.08 208.09 157.26 212.42 154.52"/><polyline class="cls-136" points="181.83 183.3 208.04 166.78 212.71 163.84"/><polyline class="cls-137" points="195.58 191.99 207.56 183.89 212.55 180.51"/><polyline class="cls-138" points="212.38 190.12 207.51 192.87 201.38 196.33"/><polyline class="cls-139" points="169.52 141.31 207.88 147.7 212.05 148.39"/><polyline class="cls-140" points="212.4 137.38 207.56 135.78 169.52 123.2"/><polyline class="cls-141" points="212.21 142.47 207.71 141.47 164.45 131.89"/><polyline class="cls-142" points="199.93 105.83 208.53 112.4 212.55 115.48"/><polyline class="cls-143" points="191.24 111.62 208.19 121.87 212.78 124.64"/><polyline class="cls-144" points="202.46 93.52 208.51 98.86 213.03 102.85"/><polyline class="cls-145" points="185.45 118.14 207.72 131.34 212.39 134.11"/><line class="cls-146" x1="203.55" y1="194.52" x2="212.76" y2="205.58"/><polyline class="cls-147" points="199.93 200.68 201.31 204.07 203.82 210.23"/><polyline class="cls-148" points="-5.18 -3.5 1.06 5.13 4.48 9.85"/><polyline class="cls-149" points="-6.69 -4.46 -4.17 1.71 0.92 14.19 4.04 21.84"/><polyline class="cls-150" points="-30.52 97.86 0.57 62.53 4.12 58.49"/><polyline class="cls-151" points="-26.9 115.24 0.25 88.09 4.42 83.93"/><polyline class="cls-152" points="-23.1 73.25 0.79 48.62 4.62 44.67"/><polyline class="cls-153" points="-71.06 144.2 0.76 72.84 4.39 69.24"/><polyline class="cls-154" points="-23.28 172.08 0.09 157.26 4.42 154.52"/><polyline class="cls-155" points="-26.17 183.3 0.04 166.78 4.71 163.84"/><polyline class="cls-156" points="-12.42 191.99 -0.44 183.89 4.55 180.51"/><polyline class="cls-157" points="4.38 190.12 -0.49 192.87 -6.62 196.33"/><polyline class="cls-158" points="-38.48 141.31 -0.12 147.7 4.05 148.39"/><polyline class="cls-159" points="4.39 137.38 -0.44 135.78 -38.48 123.2"/><polyline class="cls-160" points="4.21 142.47 -0.29 141.47 -43.55 131.89"/><polyline class="cls-161" points="-8.07 105.83 0.53 112.4 4.55 115.48"/><polyline class="cls-162" points="-16.76 111.62 0.19 121.87 4.79 124.64"/><polyline class="cls-163" points="-5.54 93.52 0.52 98.86 5.03 102.85"/><polyline class="cls-164" points="-22.55 118.14 -0.28 131.34 4.39 134.11"/><line class="cls-165" x1="-4.45" y1="194.52" x2="4.76" y2="205.58"/><polyline class="cls-166" points="203.03 -11.34 212.23 -0.28 215.78 3.98"/><polyline class="cls-167" points="35.03 -57.49 91.23 -0.75 96.09 4.17"/><polyline class="cls-168" points="46.43 -59.49 103.95 -0.98 109.34 4.5"/><polyline class="cls-169" points="131.87 -31.25 134.05 -0.84 134.48 5.13"/><polyline class="cls-170" points="189.07 -11.7 192.25 -0.87 193.65 3.9"/><polyline class="cls-171" points="139.83 -42.11 143.49 -0.84 144.01 4.95"/><polyline class="cls-172" points="152.14 -38.49 156.95 -0.65 157.59 4.43"/><polyline class="cls-173" points="162.28 -36.32 167.5 -0.65 168.24 4.41"/><polyline class="cls-174" points="173.5 -37.4 182.16 -0.65 183.31 4.22"/><polyline class="cls-175" points="60.91 -57.31 120.05 -0.98 125.15 3.88"/><polyline class="cls-176" points="61.64 -18.94 75.97 -1.05 80.48 4.58"/><polyline class="cls-177" points="1.9 -14.6 14.21 -2.29 21.45 4.95"/><polyline class="cls-178" points="-4.97 -11.34 4.23 -0.28 7.78 3.98"/><line class="cls-179" x1="203.55" y1="-11.34" x2="212.76" y2="-0.28"/><polyline class="cls-180" points="199.93 -5.18 201.31 -1.79 203.82 4.37"/><line class="cls-181" x1="-4.45" y1="-11.34" x2="4.76" y2="-0.28"/></pattern><pattern id="Blazer" data-name="Blazer" width="156.19" height="150.12" patternTransform="translate(1 1)" patternUnits="userSpaceOnUse" viewBox="0 0 156.19 150.12"><rect class="cls-1" width="156.19" height="150.12"/><path class="cls-2" d="M209.14,87.85c-4.34,9.42,1.16,18,1.16,28.15,0,6.85-5.19,13.73-12.56,13.73-11.79,0-13.55-14.83-7-17.83,5.8-2.65,10.75,3.34,10.24,10.31,8.52-12.86.23-25-8.85-34.36-8.78-9-10-18.09-4.65-23C180.59,68,174.1,75.31,179,90.25c3.49,10.62,1.13,19.08-5.62,19.08-3.51,0-7.42-4.64-7-9.45-3.49,7.51-4.19,18.46,1.16,29.2,0,0-10.7-9.45-8.15-27.49s18.95-32.09,23.35-48.74-6.29-30.28-14-33.93c7.79,13.1-3.41,22.24-17,38.53-10.68,12.84-8.92,23.32-7.29,30.19-8-7.41-7.85-18.7-5.35-25.13,0,0-10.95,7.86-9.6,20.78,1.23,11.8,8,14.82,11.69,24.06,3.44,8.56,1.07,15.88-4.42,16.79s-9.65-2.72-10.23-9.66c-.53-6.21,3.26-12.83-.24-18.9,1.33,8.75-14.63,14.6-13,29.42,1.07,9.89,9.68,17,17.12,19.87-.9-3-.38-5.73,1.63-7.11,3-2.07,8.33-.21,11.82,4.14s3.85,9.57.82,11.64c-2.85,1.94-8.27,1-11.82-2.72,2.18,15.35,16.7,27.09,31.16,31.73-3.81-13,.52-24.71,13.26-34.36-4.24,9-2.91,20.61,5.12,25.76-2.61-21.31,39-22.39,41.33-47.66C225.16,110.45,207.64,99.65,209.14,87.85Z"/><path class="cls-2" d="M107.15,115.17C97,142.42,53.45,150.54,49,170.56c2.51-4,10.2-6.36,12.83-1.8,1.91,3.3-.12,7.9-5.09,10.57-4.56,2.46-9.79,1.49-12-2-2.76-4.51-.6-10.93,3.1-15.3-7.49,2-18.71,10.88-16.63,28.57S46,220,40.62,234.89c16.52-15.64,2.42-34,23-46.11-11.15,13-15.74,40.44,1.33,62.76-3.81-13.28-3.74-21.62-1.33-30.59,0,17.47,5,22.46,7.84,39.25,3.1,18.22-.25,30-8.66,36.64,11.08-4,26.25-13.88,25.75-31.42-.3-10.48-2.46-14-4.1-22.83-1.77-9.48,1.6-12.87,5-13.35,4.53-.63,8.42,4.31,8.7,11.73.52,13.71-6.34,20.77-2.65,36.21,1.91-15.25,16.58-21.58,17.22-36.89.83-19.81-26.59-36.59-14.79-59.83-.79,11.8,2.12,19,8.19,25.19-2.8-5.65-2.3-13.47,3.32-14.17,3.32-.41,7.6,3.08,4.89,13.8-3.14,12.41-3.6,28.26,9.86,41.8-10-26.93,20-38.24,10.45-62.8,4.91,3.95,8.07,14.09,3.08,24.39,0,0,12.28-10.73,8.65-24.43-4.46-16.78-28.15-26.07-34.28-41.8a44.7,44.7,0,0,0,4.21,18C104.22,149.67,106,125.42,107.15,115.17Z"/><path class="cls-2" d="M53,87.85c-4.34,9.42,1.16,18,1.16,28.15,0,6.85-5.19,13.73-12.56,13.73-11.79,0-13.55-14.83-7-17.83,5.8-2.65,10.75,3.34,10.24,10.31,8.52-12.86.23-25-8.85-34.36-8.78-9-9.95-18.09-4.65-23C24.4,68,17.91,75.31,22.81,90.25c3.49,10.62,1.13,19.08-5.62,19.08-3.51,0-7.42-4.64-7-9.45-3.49,7.51-4.19,18.46,1.16,29.2,0,0-10.7-9.45-8.14-27.49S22.1,69.5,26.5,52.85s-6.29-30.28-14-33.93c7.78,13.1-3.42,22.24-17,38.53-10.68,12.84-8.92,23.32-7.29,30.19-8-7.41-7.85-18.7-5.35-25.13,0,0-10.95,7.86-9.6,20.78,1.23,11.8,8,14.82,11.69,24.06,3.44,8.56,1.08,15.88-4.41,16.79s-9.66-2.72-10.24-9.66c-.52-6.21,3.26-12.83-.24-18.9,1.33,8.75-14.63,14.6-13,29.42,1.07,9.89,9.68,17,17.12,19.87-.9-3-.38-5.73,1.63-7.11,3-2.07,8.33-.21,11.82,4.14s3.85,9.57.82,11.64c-2.85,1.94-8.27,1-11.82-2.72,2.18,15.35,16.7,27.09,31.16,31.73-3.81-13,.52-24.71,13.26-34.36-4.24,9-2.91,20.61,5.12,25.76-2.61-21.31,39-22.39,41.33-47.66C69,110.45,51.45,99.65,53,87.85Z"/><path class="cls-2" d="M209.14-62.27c-4.34,9.43,1.16,18,1.16,28.16,0,6.84-5.19,13.72-12.56,13.72-11.79,0-13.55-14.83-7-17.83,5.8-2.65,10.75,3.35,10.24,10.31,8.52-12.86.23-25-8.85-34.36-8.78-9-10-18.09-4.65-23-6.91,3.11-13.4,10.43-8.5,25.37,3.49,10.62,1.13,19.08-5.62,19.08-3.51,0-7.42-4.64-7-9.45-3.49,7.51-4.19,18.47,1.16,29.2,0,0-10.7-9.45-8.15-27.48s18.95-32.1,23.35-48.75-6.29-30.28-14-33.93c7.79,13.1-3.41,22.24-17,38.53-10.68,12.84-8.92,23.32-7.29,30.19-8-7.41-7.85-18.7-5.35-25.12,0,0-10.95,7.85-9.6,20.77,1.23,11.8,8,14.83,11.69,24.06,3.44,8.56,1.07,15.88-4.42,16.79s-9.65-2.71-10.23-9.66c-.53-6.21,3.26-12.83-.24-18.9,1.33,8.75-14.63,14.61-13,29.42,1.07,9.89,9.68,17,17.12,19.87-.9-3-.38-5.73,1.63-7.11,3-2.07,8.33-.21,11.82,4.15s3.85,9.57.82,11.64c-2.85,1.93-8.27,1-11.82-2.73C135,16.06,149.54,27.79,164,32.43c-3.81-13,.52-24.71,13.26-34.35-4.24,9-2.91,20.6,5.12,25.75-2.61-21.31,39-22.38,41.33-47.66C225.16-39.67,207.64-50.47,209.14-62.27Z"/><path class="cls-2" d="M107.15-34.95C97-7.7,53.45.42,49,20.44c2.51-4,10.2-6.36,12.83-1.8,1.91,3.3-.12,7.9-5.09,10.57-4.56,2.46-9.79,1.49-12-2-2.76-4.51-.6-10.93,3.1-15.3-7.49,2-18.71,10.88-16.63,28.57S46,69.86,40.62,84.78c16.52-15.65,2.42-34,23-46.12C52.48,51.64,47.89,79.1,65,101.42c-3.81-13.28-3.74-21.62-1.33-30.59,0,17.47,5,22.46,7.84,39.25,3.1,18.22-.25,30-8.66,36.64,11.08-4,26.25-13.88,25.75-31.42-.3-10.48-2.46-14-4.1-22.83-1.77-9.48,1.6-12.87,5-13.34,4.53-.64,8.42,4.3,8.7,11.72.52,13.71-6.34,20.78-2.65,36.22,1.91-15.26,16.58-21.58,17.22-36.9.83-19.8-26.59-36.59-14.79-59.83-.79,11.8,2.12,19,8.19,25.19-2.8-5.65-2.3-13.47,3.32-14.17,3.32-.41,7.6,3.08,4.89,13.8-3.14,12.41-3.6,28.26,9.86,41.8-10-26.93,20-38.24,10.45-62.8,4.91,4,8.07,14.09,3.08,24.39,0,0,12.28-10.73,8.65-24.43-4.46-16.78-28.15-26.07-34.28-41.8a44.66,44.66,0,0,0,4.21,18C104.22-.45,106-24.7,107.15-34.95Z"/><path class="cls-2" d="M53-62.27c-4.34,9.43,1.16,18,1.16,28.16,0,6.84-5.19,13.72-12.56,13.72-11.79,0-13.55-14.83-7-17.83,5.8-2.65,10.75,3.35,10.24,10.31,8.52-12.86.23-25-8.85-34.36-8.78-9-9.95-18.09-4.65-23-6.91,3.11-13.4,10.43-8.5,25.37,3.49,10.62,1.13,19.08-5.62,19.08-3.51,0-7.42-4.64-7-9.45C6.65-42.73,6-31.77,11.3-21c0,0-10.7-9.45-8.14-27.48S22.1-80.62,26.5-97.27s-6.29-30.28-14-33.93c7.78,13.1-3.42,22.24-17,38.53-10.68,12.84-8.92,23.32-7.29,30.19-8-7.41-7.85-18.7-5.35-25.12,0,0-10.95,7.85-9.6,20.77C-25.46-55-18.71-52-15-42.77c3.44,8.56,1.08,15.88-4.41,16.79s-9.66-2.71-10.24-9.66c-.52-6.21,3.26-12.83-.24-18.9,1.33,8.75-14.63,14.61-13,29.42,1.07,9.89,9.68,17,17.12,19.87-.9-3-.38-5.73,1.63-7.11,3-2.07,8.33-.21,11.82,4.15s3.85,9.57.82,11.64c-2.85,1.93-8.27,1-11.82-2.73,2.18,15.36,16.7,27.09,31.16,31.73C4,19.42,8.33,7.72,21.07-1.92c-4.24,9-2.91,20.6,5.12,25.75-2.61-21.31,39-22.38,41.33-47.66C69-39.67,51.45-50.47,53-62.27Z"/></pattern></defs><g id="Layer_2" data-name="Layer 2"><g id="Layer_3" data-name="Layer 3"><polygon points="833 0 0 0 0 427.5 873.5 427.5 873.5 40.5 833 0"/><path class="cls-182" d="M34.59,75.65l6-33.77,9-7.71H74.55l7.27,8.72L80.53,50h-9.8l.73-4.1-2.74-3.38H54L49.64,46.2,44.89,72.55l3,3.67H63l4.1-3.45,1.37-7.92H57.7l1.44-8.36H79.38L75.77,77.16l-8.85,7.41h-25Z"/><path class="cls-182" d="M83.26,75.65l6-33.77,9-7.71h25.92L131.5,43l-6,34.13-8.78,7.41H90.61Zm28.87.57,4.32-3.67,4.68-26.35-3-3.67H102.63L98.31,46.2,93.56,72.55l3,3.67Z"/><path class="cls-182" d="M141.73,34.17h9.79L144.1,76.29h25.13l-1.44,8.28H132.87Z"/><path class="cls-182" d="M182.12,34.17h31.6l7.64,9.22-6,33.77-8.78,7.41H173.26Zm19.94,42.05,4.32-3.67,4.68-26.35-3-3.67H190.47l-6,33.69Z"/><path class="cls-182" d="M231.65,34.17H268l-1.44,8.28H240L237.77,55.2h24.48l-1.44,8.13H236.33l-2.3,13H260.6l-1.44,8.28H222.8Z"/><path class="cls-182" d="M275.28,34.17h8.79l16.48,34.2h.15l6-34.2h9.44l-8.93,50.4h-8.79L282.05,50.45h-.14l-6.05,34.12h-9.43Z"/><path class="cls-182" d="M42.65,94.17h31l6.85,8.36-3.17,17.85L69,127.44H46.61l-3,17.13H33.8Zm22.68,25.06,3-2.52,2.09-11.81-2.09-2.52H51l-3,16.85Z"/><path class="cls-182" d="M97.81,94.17h8.92l9.58,50.4h-9.94l-2-11.16H86.65l-6.2,11.16H70.52Zm5.61,31.18-3.24-19.15H100L90.1,125.35Z"/><path class="cls-182" d="M120.7,136.22l1.23-6.62h9.64l-.79,4.25,1.95,2.37h14.83l2.88-2.45,1.51-8.35L150,123.05H131.5l-6.91-8.36,2.3-13.32,8.5-7.2h22.68l7,8.36-1.15,6.69h-9.65l.72-4.32L153,102.53H138.77L136,104.9l-1.3,7.42,1.94,2.37h18.51l6.91,8.36-2.59,14.32-8.43,7.2h-23.4Z"/><path class="cls-182" d="M166.57,136.22l1.22-6.62h9.65l-.79,4.25,1.94,2.37h14.83l2.88-2.45,1.51-8.35-1.94-2.37h-18.5l-6.92-8.36,2.31-13.32,8.49-7.2h22.68l7,8.36-1.15,6.69h-9.65l.72-4.32-2-2.37H184.64l-2.81,2.37-1.3,7.42,1.95,2.37H201l6.91,8.36-2.59,14.32-8.42,7.2h-23.4Z"/><path class="cls-182" d="M757.17,384.91h-6.08l1.14,1.37-.19,1.14h4.67l-.65,3.72h-4.67l-.42,2.28L747.86,396l2.24,3-1.48,8.59h-5.17l1.33-7.67-1.94-2.55h-10.3l.76-4.26h11.25l1.6-1.33.11-.68H733.64l.65-3.72H747l.11-.73-1.14-1.33H734.67l.08-.45.68-3.88h22.42Z"/><path class="cls-182" d="M765.07,386.54l-6.27,3,.84-4.75,7.41-3.73h4.14l-4.68,26.6h-5.16Z"/><path class="cls-182" d="M783.27,402.69H770.43l.91-5.2L786.08,381h6.2l-3.08,17.25h3.23l-.76,4.41h-3.23l-.87,4.94H782.4Zm1-4.25,2-11.63h-.15l-9.84,11.09-.08.54Z"/><path class="cls-182" d="M794.22,403.22l.57-3.07H800l-.3,1.74,1.06,1.33h6.46l1.6-1.33,1.06-6.11-2.54,2.16h-8.06l-3.65-4.41,1.52-8.7,4.45-3.8h11.63l3.65,4.41-3.27,18.47-4.37,3.72H797.83Zm13.52-9.69,2.93-2.47.76-4.29-1.1-1.33h-6.84l-1.56,1.33L801,392.2l1.06,1.33Z"/><path class="cls-182" d="M818,403.22l.57-3.07h5.17l-.3,1.74,1.06,1.33H831l1.6-1.33,1.06-6.11-2.55,2.16h-8.05l-3.65-4.41,1.52-8.7,4.45-3.8H837l3.65,4.41-3.27,18.47L833,407.63H821.65Zm13.53-9.69,2.93-2.47.76-4.29-1.11-1.33h-6.84l-1.55,1.33-1,5.43,1.06,1.33Z"/><g id="Layer_2-2" data-name="Layer 2"><g id="Main"><g id="Logo_Color" data-name="Logo Color"><path class="cls-182" d="M796.31,36.84h-1.38a1,1,0,1,1,0-2h1.38a1,1,0,1,1,0,2Z"/><path class="cls-182" d="M809.51,36.84h-9.58a1,1,0,1,1,0-2h9.58a1,1,0,1,1,0,2Z"/><path class="cls-182" d="M822.37,45.11A1,1,0,0,1,822,45a20.43,20.43,0,0,0-4.66-.29H804.2a1,1,0,0,1,0-2h13.12c2.95,0,4.91.17,5.51.48a1,1,0,0,1-.46,1.89Z"/><path class="cls-182" d="M805.53,40.84h-8.72a1,1,0,0,1,0-2h8.72a1,1,0,0,1,0,2Z"/><path class="cls-182" d="M814.82,40.84h-5.23a1,1,0,0,1,0-2h5.23a1,1,0,0,1,0,2Z"/><path class="cls-182" d="M800.3,44.78h-1.43a1,1,0,0,1,0-2h1.43a1,1,0,0,1,0,2Z"/><path class="cls-182" d="M803.72,48.73h-3.55a1,1,0,0,1,0-2h3.55a1,1,0,0,1,0,2Z"/><path class="cls-182" d="M805.34,60.65H800.9a1,1,0,0,1,0-2h4.44a1,1,0,0,1,0,2Z"/><path class="cls-182" d="M819.93,56.77h-5.29a1,1,0,0,1,0-2h5.29a1,1,0,0,1,0,2Z"/><path class="cls-182" d="M816.78,64.67H800.14a1,1,0,0,1,0-2h16.64a1,1,0,0,1,0,2Z"/><path class="cls-182" d="M809.59,68.58H798.86a1,1,0,0,1,0-2h10.73a1,1,0,0,1,0,2Z"/><path class="cls-182" d="M803.12,72.56H796.7a1,1,0,0,1,0-2h6.42a1,1,0,0,1,0,2Z"/><path class="cls-182" d="M809.23,76.5h-14a1,1,0,0,1,0-2h14a1,1,0,0,1,0,2Z"/><path class="cls-182" d="M819.93,76.5H813.1a1,1,0,0,1,0-2h6.83a1,1,0,0,1,0,2Z"/><path class="cls-182" d="M803.22,56.65a1,1,0,0,1-1-1,9.54,9.54,0,0,1,2.18-5.81,7.87,7.87,0,0,1,6.17-3c2.19,0,3.74,0,5.24,0,1.31,0,2.56,0,4.1,0a8.29,8.29,0,0,1,5.59,2.18,9.41,9.41,0,0,1,1.14,1.22,1,1,0,0,1-.17,1.4.42.42,0,0,1-.14.09h0a1,1,0,0,1-1.26-.26,8.32,8.32,0,0,0-1-1,6.22,6.22,0,0,0-4.2-1.62c-1.53,0-2.77,0-4.08,0-1.5,0-3.05,0-5.26,0-4.09,0-6.35,4-6.35,6.84a1,1,0,0,1-1,1Z"/><path class="cls-182" d="M818.66,60.65h-8.15a5,5,0,0,1-4-6.81,1,1,0,0,1,1.85.75,2.84,2.84,0,0,0,.28,2.73,2.87,2.87,0,0,0,1.87,1.33h8.15a1,1,0,0,1,0,2Z"/><path class="cls-182" d="M821.17,72.56h-14a1,1,0,0,1,0-2h14c2.67,0,6.44-2,6.48-2a1,1,0,0,1,.94,1.76C828.42,70.4,824.34,72.56,821.17,72.56Z"/><path class="cls-182" d="M820.17,68.58h-3a1,1,0,0,1,0-2h3a11.15,11.15,0,0,0,10.31-9.13,1,1,0,1,1,2,0,8.19,8.19,0,0,1-.83,3.2,15,15,0,0,1-2.36,3.59,13.29,13.29,0,0,1-3.83,3A11.3,11.3,0,0,1,820.17,68.58Z"/><path class="cls-182" d="M821.45,64.36a1,1,0,0,1-.26-2c3.64-1,5.41-3.26,5.41-6.91a1,1,0,0,1,2,0,8.76,8.76,0,0,1-2.19,6.16,9.87,9.87,0,0,1-4.69,2.67A.84.84,0,0,1,821.45,64.36Z"/><path class="cls-182" d="M830.72,52.3a1,1,0,0,1-.92-.6c-.69-1.59-1.28-3-4.83-5.54a1,1,0,0,1,1.18-1.62h0A19.15,19.15,0,0,1,830,48.05a12,12,0,0,1,1.61,2.85,1,1,0,0,1-.52,1.32A1,1,0,0,1,830.72,52.3Z"/><path class="cls-182" d="M833.83,48.81a1,1,0,0,1-.9-.57,13.63,13.63,0,0,0-4.08-4.56,15.26,15.26,0,0,0-10.25-2.84,1,1,0,0,1-.13-2,18.43,18.43,0,0,1,6.68.77A16.85,16.85,0,0,1,830,42.07a15.44,15.44,0,0,1,4.7,5.32,1,1,0,0,1-.47,1.33A1.07,1.07,0,0,1,833.83,48.81Z"/><path class="cls-182" d="M833.79,64.71a1,1,0,0,1-1-1,1.08,1.08,0,0,1,.15-.53c2.18-3.52,2.23-6.78,1.58-11.22a1,1,0,0,1,2-.28,25.64,25.64,0,0,1,.3,6.22,14.49,14.49,0,0,1-2.16,6.33A1,1,0,0,1,833.79,64.71Z"/><path class="cls-182" d="M839.5,54.57a1,1,0,0,1-1-.94c-.17-3.48-2.29-8-5.28-11.15a1,1,0,0,1,1.44-1.39l0,0a24.52,24.52,0,0,1,4,5.78,17.52,17.52,0,0,1,1.87,6.64,1,1,0,0,1-1,1h0Z"/><path class="cls-182" d="M829,39.12a1,1,0,0,1-.52-.15A14.36,14.36,0,0,0,826,37.91a20.59,20.59,0,0,0-6.56-1.07h-4.35a1,1,0,1,1,0-2h4.35a20.74,20.74,0,0,1,10.07,2.42,1,1,0,0,1-.52,1.85Z"/><path class="cls-182" d="M823.53,57.57l-.21,0a1,1,0,0,1-.77-1.19h0a3.16,3.16,0,0,0-.64-2.6,2.54,2.54,0,0,0-1.94-1h-4.83a1,1,0,0,1,0-2H820a4.52,4.52,0,0,1,3.49,1.75,5.16,5.16,0,0,1,1,4.28A1,1,0,0,1,823.53,57.57Z"/><rect class="cls-182" x="810.13" y="54.71" width="2" height="2" rx="0.81"/><rect class="cls-182" x="799.96" y="50.69" width="2" height="2" rx="0.79"/><path class="cls-182" d="M826.76,75.22a1,1,0,0,1-.34-1.93,18.82,18.82,0,0,0,11.82-13.87,1,1,0,0,1,2,.37,20.88,20.88,0,0,1-3.53,8.07,20.33,20.33,0,0,1-9.56,7.3A1,1,0,0,1,826.76,75.22Z"/></g></g></g><g id="Layer_2-3" data-name="Layer 2"><g id="Main-2" data-name="Main"><g id="DYUKSHA23"><path id="_3" data-name=" 3" class="cls-182" d="M238.84,399.24a7.13,7.13,0,0,1-7,7.26H221.26l4-4h6.6a3.32,3.32,0,0,0,0-6.6h-7.12V391.2h7.12a3.32,3.32,0,0,0,0-6.6h-6.61l-4-4h10.61a7.13,7.13,0,0,1,7,7.26,7.37,7.37,0,0,1-2.62,5.67A7.37,7.37,0,0,1,238.84,399.24Z"/><g id="_2" data-name=" 2"><rect class="cls-182" x="209.96" y="402.55" width="7.88" height="3.92"/><path class="cls-182" d="M215,383.53a9.59,9.59,0,0,0-6.86-2.89,10.76,10.76,0,0,0-6,2v5.29a18.64,18.64,0,0,1,1.34-1.33,7.2,7.2,0,0,1,4.68-2,5.78,5.78,0,0,1,5.66,5.74c0,2.73-.82,3.58-5.2,7.62-2.17,2-5,4.65-8.78,8.55h5.55c2.42-2.42,4.39-4.23,6-5.7,4.44-4.1,6.47-6,6.47-10.47A9.59,9.59,0,0,0,215,383.53Z"/></g><polygon id="APOS" class="cls-182" points="194.01 380.64 196.47 385.62 198.98 380.64 194.01 380.64"/><g id="A"><polygon class="cls-182" points="185.62 397.76 177.06 380.67 163.96 406.47 168.44 406.47 177.03 389.55 181.15 397.76 185.62 397.76"/><polygon class="cls-182" points="187.77 402.29 183.3 402.29 185.33 406.5 189.8 406.5 187.77 402.29"/></g><polygon id="H" class="cls-182" points="157.35 380.67 157.35 391.74 143.78 391.74 139.73 395.71 139.73 406.5 143.74 406.5 143.74 395.67 157.35 395.67 157.35 406.5 161.35 406.5 161.35 380.67 157.35 380.67"/><g id="S"><path class="cls-182" d="M131.15,406.47v-4a3.75,3.75,0,0,0,3.49-3.63,3.61,3.61,0,0,0-3.49-3.47h-6.87A7.31,7.31,0,0,1,117,388.1a7.57,7.57,0,0,1,7.49-7.45v4A3.61,3.61,0,0,0,121,388.1a3.33,3.33,0,0,0,3.33,3.31h6.87a7.57,7.57,0,0,1,7.49,7.45A7.76,7.76,0,0,1,131.15,406.47Z"/></g><polygon id="K" class="cls-182" points="119.23 406.5 105.97 393.68 119.16 380.65 113.52 380.65 100.3 393.71 113.53 406.5 119.23 406.5"/><g id="U"><path class="cls-182" d="M90.73,406.47A10.22,10.22,0,0,1,80,395.74V380.33h4v15.41c0,4.15,2.57,6.73,6.72,6.73s6.73-2.57,6.73-6.73h4a10.22,10.22,0,0,1-10.74,10.73Z"/><rect class="cls-182" x="97.59" y="380.33" width="4" height="10.52"/></g><polygon id="Y" class="cls-182" points="72.96 380.61 65.13 390.43 57.4 380.61 52.34 380.61 62.58 393.62 52.33 406.47 57.42 406.47 66.69 394.84 67.65 393.64 78.04 380.61 72.96 380.61"/><path id="D" class="cls-182" d="M43.93,380.65c-.32,0-.66,0-1,0H34l3.66,4h5.32c4.52,0,8.19,4,8.19,8.93s-3.67,8.93-8.19,8.93H37.59l-3.66,4h9c6.72,0,12.19-5.81,12.19-12.95C55.13,386.77,50.19,381.18,43.93,380.65Z"/></g></g></g><polygon class="cls-183" points="361.24 427.5 290.24 427.5 536.76 0.5 607.76 0.5 361.24 427.5"/><polygon class="cls-184" points="435.24 427.5 364.24 427.5 610.76 0.5 681.76 0.5 435.24 427.5"/><polygon class="cls-185" points="509.24 427.5 438.24 427.5 684.76 0.5 755.76 0.5 509.24 427.5"/><path d="M499.22,363.86l7.9-13.93,5.9-1.63,15,8.51,1.63,5.89-7.9,13.93Zm26.17-1.18-.76-2.86-12.47-7.07-2.84.81L504.55,362l16.08,9.12Z"/><path d="M514.89,336.23l2-3.53L544,337.33l-2.15,3.8-6.43-1.1-4.76,8.39,4.24,5-2.15,3.79Zm16.94,2.9L520.43,337l0,.06,7.68,8.65Z"/><path d="M537.9,326.55l-17.75.42,2.31-4.08,13-.15,0-.06L529,311.44l2.31-4.08L540,322.82l9.26,5.25-2.12,3.73Z"/><path d="M543.46,295.1l-.25,6.36-3.45-1.95.11-7.3,1.75-3.08,22.51,12.77L562,305.63Z"/><path d="M481.85,259l7.9-13.93,5.9-1.62,15,8.5,1.63,5.89-7.9,13.93ZM508,257.79l-.77-2.86-12.47-7.07-2.84.81-4.76,8.39,16.07,9.12Z"/><path d="M497.52,231.34l2-3.53,27.13,4.63-2.16,3.8-6.43-1.1-4.76,8.39,4.24,5-2.15,3.79Zm16.94,2.9-11.4-2.09,0,.06,7.68,8.65Z"/><path d="M520.53,221.66l-17.75.42,2.31-4.08,13-.15,0-.06-6.55-11.24,2.32-4.08,8.74,15.46,9.26,5.25-2.12,3.73Z"/><path d="M537.38,202.52l-4.27-17.8-2.47-1.41-1.94.56-3.13,5.54.51,1.94,2.09,1.19-2.12,3.73-3.21-1.83-1.44-5.19,5-8.87,5.19-1.44,4.69,2.67,4.1,17.58.67.38,6.63-11.67,3.18,1.81-8.79,15.5Z"/><path d="M461.93,167l7.9-13.93,5.9-1.62,15,8.5,1.63,5.89-7.9,13.93Zm26.17-1.18-.76-2.86-12.47-7.07-2.85.81-4.76,8.39,16.08,9.12Z"/><path d="M477.6,139.34l2-3.53,27.12,4.63-2.15,3.8-6.43-1.1-4.76,8.39,4.24,5-2.15,3.79Zm16.94,2.9-11.4-2.09,0,.06,7.68,8.65Z"/><path d="M500.61,129.66l-17.75.42,2.31-4.08,13-.15,0-.06-6.54-11.24,2.31-4.08,8.75,15.46,9.26,5.25-2.12,3.73Z"/><path d="M518.8,111.46l-3.18-1.81,2.11-3.73,2.06,1.17,1.93-.56,3.47-6.11-.51-2-4.09-2.32-1.86.52-3.65,6.43-3.21-1.83,3.64-6.43L515,93l-4-2.25-1.93.57-3.36,5.91.51,2,2.06,1.17-2.11,3.73L503,102.25l-1.43-5.19,5.25-9.26L512,86.37l6.18,3.5.72,2.7,2.72-.75,6.27,3.56,1.43,5.19L524,110Z"/><line class="cls-186" x1="4" y1="363" x2="869" y2="363"/><path class="cls-187" d="M831.76,3,870.5,41.74V424.5H3V3H831.76M833,0H0V427.5H873.5V40.5L833,0Z"/><g class="cls-188"><polygon class="cls-189" points="1.5 0.5 1.5 363.6 871.5 363.6 871.5 38.5 833.5 0.5 1.5 0.5"/><path class="cls-190" d="M833.09,1.5,870.5,38.91V362.6H2.5V1.5H833.09m.41-1H1.5V363.6h870V38.5l-38-38Z"/></g></g></g></svg>