<svg xmlns="http://www.w3.org/2000/svg" xmlns:xlink="http://www.w3.org/1999/xlink" viewBox="0 0 870 363.1"><defs><style>.cls-1,.cls-2,.cls-4,.cls-5,.cls-7,.cls-8{fill:none;}.cls-2,.cls-4{stroke:#231f20;}.cls-2,.cls-4,.cls-5,.cls-7,.cls-8{stroke-linecap:round;}.cls-2,.cls-7{stroke-width:2.5px;}.cls-3{fill:#231f20;}.cls-4,.cls-8{stroke-width:2.7px;}.cls-5,.cls-7,.cls-8{stroke:gold;}.cls-5{stroke-width:2px;}.cls-6{fill:gold;}.cls-9{opacity:0.16;}.cls-10{fill:url(#Lotus_Squares);}</style><pattern id="Lotus_Squares" data-name="Lotus Squares" width="42.5" height="42.5" patternTransform="translate(-53.3 -45.41) scale(1.02 1.02)" patternUnits="userSpaceOnUse" viewBox="0 0 42.5 42.5"><rect class="cls-1" width="42.5" height="42.5"/><line class="cls-2" x1="42.39" y1="42.46" x2="42.39" y2="42.46"/><path class="cls-3" d="M6,42.51c0-1.49-.67-1.64-1.71-2.74,1.93-2.2,6.3.32,7.38,2.74-1.08,2.43-5.45,4.94-7.38,2.75C5.28,44.15,6,44,6,42.51Z"/><path class="cls-3" d="M36.33,42.52c0-1.49.67-1.64,1.71-2.74-1.93-2.2-6.3.32-7.39,2.74C31.74,45,36.11,47.46,38,45.27,37,44.16,36.33,44,36.33,42.52Z"/><line class="cls-2" x1="-0.11" y1="42.46" x2="-0.11" y2="42.46"/><line class="cls-2" x1="42.39" y1="42.46" x2="42.39" y2="42.46"/><line class="cls-4" x1="21.14" y1="42.4" x2="21.14" y2="42.4"/><line class="cls-2" x1="-0.11" y1="42.46" x2="-0.11" y2="42.46"/><path class="cls-3" d="M42.49,36.41c1.49,0,1.64.66,2.75,1.7,2.19-1.93-.33-6.3-2.75-7.38-2.42,1.08-4.94,5.45-2.75,7.38C40.85,37.07,41,36.41,42.49,36.41Z"/><path class="cls-3" d="M42.49,6c1.49,0,1.64-.66,2.74-1.7,2.19,1.93-.32,6.29-2.74,7.38-2.43-1.09-4.94-5.45-2.75-7.38C40.84,5.36,41,6,42.49,6Z"/><line class="cls-2" x1="42.39" y1="-0.04" x2="42.39" y2="-0.04"/><line class="cls-2" x1="42.39" y1="42.46" x2="42.39" y2="42.46"/><line class="cls-4" x1="42.39" y1="21.15" x2="42.39" y2="21.15"/><line class="cls-5" x1="3.27" y1="24.57" x2="17.42" y2="38.72"/><line class="cls-5" x1="38.84" y1="24.79" x2="24.7" y2="38.93"/><line class="cls-5" x1="17.56" y1="3.5" x2="3.41" y2="17.64"/><line class="cls-5" x1="24.52" y1="3.32" x2="38.67" y2="17.47"/><path class="cls-6" d="M21.14,14.91c1.5,0,1.64.66,2.75,1.7,2.19-1.93-.33-6.3-2.75-7.38-2.42,1.08-4.94,5.45-2.75,7.38C19.5,15.57,19.64,14.91,21.14,14.91Z"/><path class="cls-6" d="M14.83,21.21c0-1.49.67-1.64,1.71-2.74-1.93-2.19-6.3.32-7.38,2.75,1.08,2.42,5.45,4.93,7.38,2.74C15.5,22.85,14.83,22.71,14.83,21.21Z"/><path class="cls-6" d="M21.14,27.52c-1.5,0-1.64-.66-2.75-1.7-2.19,1.93.33,6.3,2.75,7.38,2.42-1.08,4.94-5.45,2.75-7.38C22.78,26.86,22.64,27.52,21.14,27.52Z"/><path class="cls-6" d="M27.45,21.21c0,1.5-.67,1.64-1.71,2.75,1.93,2.19,6.3-.32,7.39-2.74-1.09-2.43-5.46-4.94-7.39-2.75C26.78,19.57,27.45,19.72,27.45,21.21Z"/><path class="cls-3" d="M0,36.41c1.5,0,1.64.66,2.75,1.7,2.19-1.93-.33-6.3-2.75-7.38-2.42,1.08-4.94,5.45-2.75,7.38C-1.65,37.07-1.51,36.41,0,36.41Z"/><path class="cls-6" d="M6,42.48c0,1.49-.67,1.64-1.71,2.74,1.93,2.2,6.3-.32,7.38-2.74-1.08-2.43-5.45-4.94-7.38-2.75C5.28,40.84,6,41,6,42.48Z"/><path class="cls-3" d="M0,6c1.49,0,1.64-.66,2.74-1.7C4.92,6.25,2.41,10.61,0,11.7c-2.43-1.09-4.94-5.45-2.75-7.38C-1.65,5.36-1.51,6,0,6Z"/><path class="cls-3" d="M6,0c0-1.49-.67-1.64-1.71-2.74,1.93-2.2,6.3.32,7.38,2.74C10.54,2.44,6.17,5,4.24,2.76,5.28,1.65,6,1.51,6,0Z"/><path class="cls-6" d="M42.51,36.41c-1.49,0-1.64.66-2.74,1.7-2.2-1.93.32-6.3,2.74-7.38,2.43,1.08,4.94,5.45,2.75,7.38C44.15,37.07,44,36.41,42.51,36.41Z"/><path class="cls-6" d="M36.33,42.48c0,1.5.67,1.65,1.71,2.75-1.93,2.2-6.3-.32-7.39-2.74,1.09-2.43,5.46-4.94,7.39-2.75C37,40.85,36.33,41,36.33,42.48Z"/><path class="cls-6" d="M42.51,6c-1.49,0-1.64-.66-2.74-1.7-2.2,1.93.32,6.29,2.74,7.38,2.43-1.09,4.94-5.45,2.75-7.38C44.15,5.36,44,6,42.51,6Z"/><path class="cls-3" d="M36.33,0c0-1.49.67-1.64,1.71-2.74-1.93-2.2-6.3.32-7.39,2.74C31.74,2.45,36.11,5,38,2.77,37,1.66,36.33,1.52,36.33,0Z"/><line class="cls-7" x1="21.14" y1="21.21" x2="21.14" y2="21.21"/><line class="cls-2" x1="-0.11" y1="-0.04" x2="-0.11" y2="-0.04"/><line class="cls-2" x1="42.39" y1="-0.04" x2="42.39" y2="-0.04"/><line class="cls-2" x1="-0.11" y1="42.46" x2="-0.11" y2="42.46"/><line class="cls-2" x1="42.39" y1="42.46" x2="42.39" y2="42.46"/><line class="cls-8" x1="21.14" y1="42.4" x2="21.14" y2="42.4"/><line class="cls-4" x1="21.14" y1="-0.1" x2="21.14" y2="-0.1"/><line class="cls-4" x1="-0.11" y1="21.15" x2="-0.11" y2="21.15"/><line class="cls-8" x1="42.39" y1="21.15" x2="42.39" y2="21.15"/><path class="cls-6" d="M0,36.41c-1.49,0-1.64.66-2.74,1.7-2.2-1.93.32-6.3,2.74-7.38C2.44,31.81,5,36.18,2.76,38.11,1.65,37.07,1.51,36.41,0,36.41Z"/><path class="cls-6" d="M0,6c-1.49,0-1.64-.66-2.74-1.7-2.2,1.93.32,6.29,2.74,7.38C2.44,10.61,5,6.25,2.76,4.32,1.65,5.36,1.51,6,0,6Z"/><line class="cls-2" x1="-0.11" y1="-0.04" x2="-0.11" y2="-0.04"/><line class="cls-2" x1="-0.11" y1="42.46" x2="-0.11" y2="42.46"/><line class="cls-8" x1="-0.11" y1="21.15" x2="-0.11" y2="21.15"/><line class="cls-2" x1="42.39" y1="-0.04" x2="42.39" y2="-0.04"/><path class="cls-6" d="M6,0c0,1.49-.67,1.64-1.71,2.74,1.93,2.2,6.3-.32,7.38-2.74C10.54-2.45,6.17-5,4.24-2.77,5.28-1.66,6-1.52,6,0Z"/><path class="cls-6" d="M36.33,0c0,1.5.67,1.65,1.71,2.75-1.93,2.2-6.3-.32-7.39-2.74C31.74-2.44,36.11-4.95,38-2.76,37-1.65,36.33-1.51,36.33,0Z"/><line class="cls-2" x1="-0.11" y1="-0.04" x2="-0.11" y2="-0.04"/><line class="cls-2" x1="42.39" y1="-0.04" x2="42.39" y2="-0.04"/><line class="cls-8" x1="21.14" y1="-0.1" x2="21.14" y2="-0.1"/><line class="cls-2" x1="-0.11" y1="-0.04" x2="-0.11" y2="-0.04"/></pattern></defs><g id="Layer_2" data-name="Layer 2"><g id="Layer_3" data-name="Layer 3"><g class="cls-9"><rect class="cls-10" width="870" height="363.1"/></g></g></g></svg>