<svg xmlns="http://www.w3.org/2000/svg" xmlns:xlink="http://www.w3.org/1999/xlink" viewBox="0 0 870 363.1"><defs><style>.cls-1{fill:none;}.cls-2{fill:#02d7f2;}.cls-3{fill:url(#Lotus_Squares);}</style><pattern id="Lotus_Squares" data-name="Lotus Squares" width="42.5" height="42.5" patternUnits="userSpaceOnUse" viewBox="0 0 42.5 42.5"><rect class="cls-1" width="42.5" height="42.5"/><path class="cls-2" d="M42.39,43.71l-.24,0-.24-.07a1.13,1.13,0,0,1-.21-.12.7.7,0,0,1-.19-.15,1.26,1.26,0,0,1-.37-.89,1.22,1.22,0,0,1,.37-.88,1,1,0,0,1,.19-.16l.21-.11a1.09,1.09,0,0,1,.24-.07,1.26,1.26,0,0,1,1.12.34,1.22,1.22,0,0,1,.37.88,1.25,1.25,0,0,1-1.25,1.25Z"/><path class="cls-2" d="M6,42.51c0-1.49-.67-1.64-1.71-2.74,1.93-2.2,6.3.32,7.38,2.74-1.08,2.43-5.45,4.94-7.38,2.75C5.28,44.15,6,44,6,42.51Z"/><path class="cls-2" d="M36.33,42.52c0-1.49.67-1.64,1.71-2.74-1.93-2.2-6.3.32-7.39,2.74C31.74,45,36.11,47.46,38,45.27,37,44.16,36.33,44,36.33,42.52Z"/><path class="cls-2" d="M-.11,43.71l-.24,0-.24-.07A1.13,1.13,0,0,1-.8,43.5.7.7,0,0,1-1,43.35a1.26,1.26,0,0,1-.37-.89A1.22,1.22,0,0,1-1,41.58a1,1,0,0,1,.19-.16l.21-.11a1.09,1.09,0,0,1,.24-.07,1.26,1.26,0,0,1,1.12.34,1.22,1.22,0,0,1,.37.88,1.26,1.26,0,0,1-.37.89A1.25,1.25,0,0,1-.11,43.71Z"/><path class="cls-2" d="M42.39,43.71a1.25,1.25,0,0,1-1.25-1.25,1.22,1.22,0,0,1,.37-.88,1.28,1.28,0,0,1,1.76,0,1.22,1.22,0,0,1,.37.88,1.25,1.25,0,0,1-1.25,1.25Z"/><path class="cls-2" d="M21.14,43.75a1.34,1.34,0,0,1-.52-.1,1.6,1.6,0,0,1-.44-.29,1.38,1.38,0,0,1-.39-1,1.09,1.09,0,0,1,0-.26,1.25,1.25,0,0,1,.07-.26l.13-.23a1.22,1.22,0,0,1,.37-.37,1.71,1.71,0,0,1,.23-.13,1.11,1.11,0,0,1,.26-.07,1.14,1.14,0,0,1,.52,0,1.25,1.25,0,0,1,.26.07,1.71,1.71,0,0,1,.23.13,1.06,1.06,0,0,1,.2.17,1.32,1.32,0,0,1,.4.95,1.35,1.35,0,0,1-.4,1,1.42,1.42,0,0,1-.43.29A1.34,1.34,0,0,1,21.14,43.75Z"/><path class="cls-2" d="M-.11,43.71A1.25,1.25,0,0,1-1,43.35a1.26,1.26,0,0,1-.37-.89A1.22,1.22,0,0,1-1,41.58a1.28,1.28,0,0,1,1.76,0,1.22,1.22,0,0,1,.37.88,1.26,1.26,0,0,1-.37.89A1.25,1.25,0,0,1-.11,43.71Z"/><path class="cls-2" d="M42.49,36.41c1.49,0,1.64.66,2.75,1.7,2.19-1.93-.33-6.3-2.75-7.38-2.42,1.08-4.94,5.45-2.75,7.38C40.85,37.07,41,36.41,42.49,36.41Z"/><path class="cls-2" d="M42.49,6c1.49,0,1.64-.66,2.74-1.7,2.19,1.93-.32,6.29-2.74,7.38-2.43-1.09-4.94-5.45-2.75-7.38C40.84,5.36,41,6,42.49,6Z"/><path class="cls-2" d="M42.39,1.21l-.24,0-.24-.07L41.7,1a.7.7,0,0,1-.19-.15A1.26,1.26,0,0,1,41.14,0a1.22,1.22,0,0,1,.37-.88,1,1,0,0,1,.19-.16l.21-.11a1.09,1.09,0,0,1,.24-.07,1.26,1.26,0,0,1,1.12.34,1.22,1.22,0,0,1,.37.88,1.26,1.26,0,0,1-.37.89A1.25,1.25,0,0,1,42.39,1.21Z"/><path class="cls-2" d="M42.39,43.71l-.24,0-.24-.07a1.13,1.13,0,0,1-.21-.12.7.7,0,0,1-.19-.15,1.26,1.26,0,0,1-.37-.89,1.22,1.22,0,0,1,.37-.88,1,1,0,0,1,.19-.16l.21-.11a1.09,1.09,0,0,1,.24-.07,1.26,1.26,0,0,1,1.12.34,1.22,1.22,0,0,1,.37.88,1.25,1.25,0,0,1-1.25,1.25Z"/><path class="cls-2" d="M42.39,22.5a1.34,1.34,0,0,1-.52-.1,1.5,1.5,0,0,1-.73-.73,1.35,1.35,0,0,1,.3-1.47,1.38,1.38,0,0,1,1.9,0,1.35,1.35,0,0,1,.3,1.47,1.28,1.28,0,0,1-.3.43A1.31,1.31,0,0,1,42.39,22.5Z"/><path class="cls-2" d="M17.42,39.72a1,1,0,0,1-.71-.3L2.57,25.28A1,1,0,0,1,4,23.87L18.12,38a1,1,0,0,1,0,1.41A1,1,0,0,1,17.42,39.72Z"/><path class="cls-2" d="M24.7,39.93a1,1,0,0,1-.71-.29,1,1,0,0,1,0-1.42L38.14,24.08a1,1,0,1,1,1.41,1.41L25.41,39.64A1,1,0,0,1,24.7,39.93Z"/><path class="cls-2" d="M3.41,18.64a1,1,0,0,1-.7-1.7L16.85,2.79a1,1,0,0,1,1.41,1.42L4.12,18.35A1,1,0,0,1,3.41,18.64Z"/><path class="cls-2" d="M38.67,18.47a1,1,0,0,1-.71-.3L23.82,4a1,1,0,1,1,1.41-1.41L39.37,16.76a1,1,0,0,1,0,1.41A1,1,0,0,1,38.67,18.47Z"/><path class="cls-2" d="M21.14,14.91c1.5,0,1.64.66,2.75,1.7,2.19-1.93-.33-6.3-2.75-7.38-2.42,1.08-4.94,5.45-2.75,7.38C19.5,15.57,19.64,14.91,21.14,14.91Z"/><path class="cls-2" d="M14.83,21.21c0-1.49.67-1.64,1.71-2.74-1.93-2.19-6.3.32-7.38,2.75,1.08,2.42,5.45,4.93,7.38,2.74C15.5,22.85,14.83,22.71,14.83,21.21Z"/><path class="cls-2" d="M21.14,27.52c-1.5,0-1.64-.66-2.75-1.7-2.19,1.93.33,6.3,2.75,7.38,2.42-1.08,4.94-5.45,2.75-7.38C22.78,26.86,22.64,27.52,21.14,27.52Z"/><path class="cls-2" d="M27.45,21.21c0,1.5-.67,1.64-1.71,2.75,1.93,2.19,6.3-.32,7.39-2.74-1.09-2.43-5.46-4.94-7.39-2.75C26.78,19.57,27.45,19.72,27.45,21.21Z"/><path class="cls-2" d="M0,36.41c1.5,0,1.64.66,2.75,1.7,2.19-1.93-.33-6.3-2.75-7.38-2.42,1.08-4.94,5.45-2.75,7.38C-1.65,37.07-1.51,36.41,0,36.41Z"/><path class="cls-2" d="M6,42.48c0,1.49-.67,1.64-1.71,2.74,1.93,2.2,6.3-.32,7.38-2.74-1.08-2.43-5.45-4.94-7.38-2.75C5.28,40.84,6,41,6,42.48Z"/><path class="cls-2" d="M0,6c1.49,0,1.64-.66,2.74-1.7C4.92,6.25,2.41,10.61,0,11.7c-2.43-1.09-4.94-5.45-2.75-7.38C-1.65,5.36-1.51,6,0,6Z"/><path class="cls-2" d="M6,0c0-1.49-.67-1.64-1.71-2.74,1.93-2.2,6.3.32,7.38,2.74C10.54,2.44,6.17,5,4.24,2.76,5.28,1.65,6,1.51,6,0Z"/><path class="cls-2" d="M42.51,36.41c-1.49,0-1.64.66-2.74,1.7-2.2-1.93.32-6.3,2.74-7.38,2.43,1.08,4.94,5.45,2.75,7.38C44.15,37.07,44,36.41,42.51,36.41Z"/><path class="cls-2" d="M36.33,42.48c0,1.5.67,1.65,1.71,2.75-1.93,2.2-6.3-.32-7.39-2.74,1.09-2.43,5.46-4.94,7.39-2.75C37,40.85,36.33,41,36.33,42.48Z"/><path class="cls-2" d="M42.51,6c-1.49,0-1.64-.66-2.74-1.7-2.2,1.93.32,6.29,2.74,7.38,2.43-1.09,4.94-5.45,2.75-7.38C44.15,5.36,44,6,42.51,6Z"/><path class="cls-2" d="M36.33,0c0-1.49.67-1.64,1.71-2.74-1.93-2.2-6.3.32-7.39,2.74C31.74,2.45,36.11,5,38,2.77,37,1.66,36.33,1.52,36.33,0Z"/><path class="cls-2" d="M21.14,22.46l-.24,0-.24-.07a.88.88,0,0,1-.21-.12,1,1,0,0,1-.19-.15,1.46,1.46,0,0,1-.16-.19,1.21,1.21,0,0,1-.19-.45,1.51,1.51,0,0,1,0-.49,1.21,1.21,0,0,1,.19-.45,1.46,1.46,0,0,1,.16-.19A1.26,1.26,0,0,1,21.38,20a1.09,1.09,0,0,1,.24.07l.21.11a1,1,0,0,1,.19.16,1.46,1.46,0,0,1,.16.19,1.51,1.51,0,0,1,.11.22.88.88,0,0,1,.07.23,1,1,0,0,1,0,.24,1,1,0,0,1,0,.25.88.88,0,0,1-.07.23,1.51,1.51,0,0,1-.11.22,1.46,1.46,0,0,1-.16.19,1,1,0,0,1-.19.15.88.88,0,0,1-.21.12l-.24.07Z"/><path class="cls-2" d="M-.11,1.21l-.24,0-.24-.07A1.13,1.13,0,0,1-.8,1,.7.7,0,0,1-1,.85,1.26,1.26,0,0,1-1.36,0,1.22,1.22,0,0,1-1-.92,1,1,0,0,1-.8-1.08l.21-.11a1.09,1.09,0,0,1,.24-.07A1.26,1.26,0,0,1,.77-.92,1.22,1.22,0,0,1,1.14,0,1.26,1.26,0,0,1,.77.85,1.25,1.25,0,0,1-.11,1.21Z"/><path class="cls-2" d="M42.39,1.21a1.25,1.25,0,0,1-.88-.36A1.26,1.26,0,0,1,41.14,0a1.22,1.22,0,0,1,.37-.88,1.28,1.28,0,0,1,1.76,0,1.22,1.22,0,0,1,.37.88,1.26,1.26,0,0,1-.37.89A1.25,1.25,0,0,1,42.39,1.21Z"/><path class="cls-2" d="M-.11,43.71l-.24,0-.24-.07A1.13,1.13,0,0,1-.8,43.5.7.7,0,0,1-1,43.35a1.26,1.26,0,0,1-.37-.89A1.22,1.22,0,0,1-1,41.58a1,1,0,0,1,.19-.16l.21-.11a1.09,1.09,0,0,1,.24-.07,1.26,1.26,0,0,1,1.12.34,1.22,1.22,0,0,1,.37.88,1.26,1.26,0,0,1-.37.89A1.25,1.25,0,0,1-.11,43.71Z"/><path class="cls-2" d="M42.39,43.71a1.25,1.25,0,0,1-1.25-1.25,1.23,1.23,0,0,1,.37-.88,1.28,1.28,0,0,1,1.76,0,1.22,1.22,0,0,1,.37.88,1.25,1.25,0,0,1-1.25,1.25Z"/><path class="cls-2" d="M21.14,43.75a1.34,1.34,0,0,1-.52-.1,1.43,1.43,0,0,1-.44-.3,1.34,1.34,0,0,1-.39-1,1.09,1.09,0,0,1,0-.26,1.25,1.25,0,0,1,.07-.26,1.71,1.71,0,0,1,.13-.23l.16-.21.21-.16a1.71,1.71,0,0,1,.23-.13l.26-.07a1.14,1.14,0,0,1,.52,0l.26.07a1.71,1.71,0,0,1,.23.13,1.22,1.22,0,0,1,.37.37,1.71,1.71,0,0,1,.13.23,1.25,1.25,0,0,1,.07.26,1.09,1.09,0,0,1,0,.26,1.31,1.31,0,0,1-.4,1,1.28,1.28,0,0,1-.43.3A1.34,1.34,0,0,1,21.14,43.75Z"/><path class="cls-2" d="M21.14,1.25a1.34,1.34,0,0,1-.52-.1,1.6,1.6,0,0,1-.44-.29,1.38,1.38,0,0,1-.39-1,1.09,1.09,0,0,1,0-.26,1.25,1.25,0,0,1,.07-.26L20-.85a1.56,1.56,0,0,1,.16-.2,1.57,1.57,0,0,1,.21-.17,1.71,1.71,0,0,1,.23-.13,1.11,1.11,0,0,1,.26-.07,1.14,1.14,0,0,1,.52,0,1.25,1.25,0,0,1,.26.07,1.71,1.71,0,0,1,.23.13,1.06,1.06,0,0,1,.2.17,1.32,1.32,0,0,1,.4,1,1.35,1.35,0,0,1-.4,1,1.42,1.42,0,0,1-.43.29A1.34,1.34,0,0,1,21.14,1.25Z"/><path class="cls-2" d="M-.11,22.5a1.34,1.34,0,0,1-.52-.1,1.28,1.28,0,0,1-.43-.3,1.28,1.28,0,0,1-.3-.43,1.34,1.34,0,0,1-.1-.52,1.32,1.32,0,0,1,.4-.95,1.38,1.38,0,0,1,1.9,0,1.31,1.31,0,0,1,.4.95,1.3,1.3,0,0,1-.1.52,1.28,1.28,0,0,1-.3.43A1.31,1.31,0,0,1-.11,22.5Z"/><path class="cls-2" d="M42.39,22.5a1.34,1.34,0,0,1-.52-.1,1.42,1.42,0,0,1-.43-.29,1.43,1.43,0,0,1-.3-.44,1.34,1.34,0,0,1-.1-.52,1.09,1.09,0,0,1,0-.26,1.25,1.25,0,0,1,.07-.26,1.71,1.71,0,0,1,.13-.23,1.57,1.57,0,0,1,.17-.21,1.39,1.39,0,0,1,1.9,0,1.57,1.57,0,0,1,.17.21,1,1,0,0,1,.12.23,1.29,1.29,0,0,1,.08.26,1.09,1.09,0,0,1,0,.26,1.55,1.55,0,0,1-.1.52,1.43,1.43,0,0,1-.3.44,1.42,1.42,0,0,1-.43.29A1.34,1.34,0,0,1,42.39,22.5Z"/><path class="cls-2" d="M0,36.41c-1.49,0-1.64.66-2.74,1.7-2.2-1.93.32-6.3,2.74-7.38C2.44,31.81,5,36.18,2.76,38.11,1.65,37.07,1.51,36.41,0,36.41Z"/><path class="cls-2" d="M0,6c-1.49,0-1.64-.66-2.74-1.7-2.2,1.93.32,6.29,2.74,7.38C2.44,10.61,5,6.25,2.76,4.32,1.65,5.36,1.51,6,0,6Z"/><path class="cls-2" d="M-.11,1.21A1.25,1.25,0,0,1-1,.85,1.26,1.26,0,0,1-1.36,0,1.22,1.22,0,0,1-1-.92a1.28,1.28,0,0,1,1.76,0A1.22,1.22,0,0,1,1.14,0,1.26,1.26,0,0,1,.77.85,1.25,1.25,0,0,1-.11,1.21Z"/><path class="cls-2" d="M-.11,43.71A1.25,1.25,0,0,1-1,43.35a1.26,1.26,0,0,1-.37-.89A1.23,1.23,0,0,1-1,41.58a1.28,1.28,0,0,1,1.76,0,1.22,1.22,0,0,1,.37.88,1.26,1.26,0,0,1-.37.89A1.25,1.25,0,0,1-.11,43.71Z"/><path class="cls-2" d="M-.11,22.5a1.34,1.34,0,0,1-.52-.1,1.42,1.42,0,0,1-.43-.29,1.43,1.43,0,0,1-.3-.44,1.34,1.34,0,0,1-.1-.52,1.09,1.09,0,0,1,0-.26,1.25,1.25,0,0,1,.07-.26,1.71,1.71,0,0,1,.13-.23,1.57,1.57,0,0,1,.17-.21,1.39,1.39,0,0,1,1.9,0A1.57,1.57,0,0,1,1,20.4a1,1,0,0,1,.12.23,1.29,1.29,0,0,1,.08.26,1.09,1.09,0,0,1,0,.26,1.55,1.55,0,0,1-.1.52,1.43,1.43,0,0,1-.3.44,1.42,1.42,0,0,1-.43.29A1.34,1.34,0,0,1-.11,22.5Z"/><path class="cls-2" d="M42.39,1.21l-.24,0-.24-.07L41.7,1a.7.7,0,0,1-.19-.15A1.26,1.26,0,0,1,41.14,0a1.22,1.22,0,0,1,.37-.88,1,1,0,0,1,.19-.16l.21-.11a1.09,1.09,0,0,1,.24-.07,1.26,1.26,0,0,1,1.12.34,1.22,1.22,0,0,1,.37.88,1.26,1.26,0,0,1-.37.89A1.25,1.25,0,0,1,42.39,1.21Z"/><path class="cls-2" d="M6,0c0,1.49-.67,1.64-1.71,2.74,1.93,2.2,6.3-.32,7.38-2.74C10.54-2.45,6.17-5,4.24-2.77,5.28-1.66,6-1.52,6,0Z"/><path class="cls-2" d="M36.33,0c0,1.5.67,1.65,1.71,2.75-1.93,2.2-6.3-.32-7.39-2.74C31.74-2.44,36.11-4.95,38-2.76,37-1.65,36.33-1.51,36.33,0Z"/><path class="cls-2" d="M-.11,1.21l-.24,0-.24-.07A1.13,1.13,0,0,1-.8,1,.7.7,0,0,1-1,.85,1.26,1.26,0,0,1-1.36,0,1.22,1.22,0,0,1-1-.92,1,1,0,0,1-.8-1.08l.21-.11a1.09,1.09,0,0,1,.24-.07A1.26,1.26,0,0,1,.77-.92,1.22,1.22,0,0,1,1.14,0,1.26,1.26,0,0,1,.77.85,1.25,1.25,0,0,1-.11,1.21Z"/><path class="cls-2" d="M42.39,1.21a1.25,1.25,0,0,1-.88-.36A1.26,1.26,0,0,1,41.14,0a1.23,1.23,0,0,1,.37-.88,1.28,1.28,0,0,1,1.76,0,1.22,1.22,0,0,1,.37.88,1.26,1.26,0,0,1-.37.89A1.25,1.25,0,0,1,42.39,1.21Z"/><path class="cls-2" d="M21.14,1.25a1.34,1.34,0,0,1-.52-.1,1.43,1.43,0,0,1-.44-.3,1.34,1.34,0,0,1-.39-.95,1.09,1.09,0,0,1,0-.26,1.25,1.25,0,0,1,.07-.26A1.71,1.71,0,0,1,20-.85l.16-.21.21-.16a1.71,1.71,0,0,1,.23-.13l.26-.07a1.14,1.14,0,0,1,.52,0l.26.07a1.71,1.71,0,0,1,.23.13,1.56,1.56,0,0,1,.2.16,1.57,1.57,0,0,1,.17.21,1.71,1.71,0,0,1,.13.23,1.25,1.25,0,0,1,.07.26,1.09,1.09,0,0,1,0,.26,1.31,1.31,0,0,1-.4,1,1.28,1.28,0,0,1-.43.3A1.34,1.34,0,0,1,21.14,1.25Z"/><path class="cls-2" d="M-.11,1.21A1.25,1.25,0,0,1-1,.85,1.26,1.26,0,0,1-1.36,0,1.23,1.23,0,0,1-1-.92a1.28,1.28,0,0,1,1.76,0A1.22,1.22,0,0,1,1.14,0,1.26,1.26,0,0,1,.77.85,1.25,1.25,0,0,1-.11,1.21Z"/></pattern></defs><g id="Layer_2" data-name="Layer 2"><g id="Layer_3" data-name="Layer 3"><rect class="cls-3" width="870" height="363.1"/></g></g></svg>