<?xml version="1.0" encoding="utf-8"?>
<!-- Generator: Adobe Illustrator 25.2.3, SVG Export Plug-In . SVG Version: 6.00 Build 0)  -->
<svg version="1.1" id="Layer_1" xmlns="http://www.w3.org/2000/svg" xmlns:xlink="http://www.w3.org/1999/xlink" x="0px" y="0px"
	 viewBox="0 0 540.7 149.7" style="enable-background:new 0 0 540.7 149.7;" xml:space="preserve">
<style type="text/css">
	.st0{stroke:url(#SVGID_1_);stroke-width:2;stroke-miterlimit:10;}
	.st1{fill:#02D7F2;}
	.st2{fill:url(#SVGID_2_);stroke:url(#SVGID_3_);stroke-width:2;stroke-miterlimit:10;}
</style>
<linearGradient id="SVGID_1_" gradientUnits="userSpaceOnUse" x1="93.4876" y1="68.4524" x2="439.4333" y2="-276.5528" gradientTransform="matrix(1 0 0 -1 0 -25.29)">
	<stop  offset="0" style="stop-color:#02D7F2"/>
	<stop  offset="0.11" style="stop-color:#3BEAEF"/>
	<stop  offset="0.18" style="stop-color:#2DD3DE"/>
	<stop  offset="0.37" style="stop-color:#04BED8"/>
	<stop  offset="0.52" style="stop-color:#48FFFF"/>
	<stop  offset="0.71" style="stop-color:#22C0CF"/>
	<stop  offset="0.8" style="stop-color:#2DE6F0"/>
	<stop  offset="0.87" style="stop-color:#32DAE3"/>
	<stop  offset="1" style="stop-color:#0B748C"/>
</linearGradient>
<polygon class="st0" points="522.1,1 539.7,16 539.7,148.7 349.1,148.7 338.5,139.7 91.1,139.7 80.5,148.7 1,148.7 1,1 "/>
<g>
	<path class="st1" d="M33.3,43.2h-7v-2.8h17.3v2.8h-7v20.6h-3.2V43.2z"/>
	<path class="st1" d="M46.9,40.5h15.7v2.8H50.1v7.4h11.5v2.8H50.1V61h12.5v2.8H46.9V40.5z"/>
	<path class="st1" d="M66.2,60.1V44.2l3.7-3.7h10.5l3.6,3.6v2.6h-3.2v-1.5l-1.9-1.9h-7.4l-2.1,2.1v13.6l2.1,2.1h7.4l1.9-1.9v-1.5H84
		v2.6l-3.6,3.6H69.9L66.2,60.1z"/>
	<path class="st1" d="M87.8,40.5H91v10.2h11.3V40.5h3.2v23.3h-3.2V53.5H91v10.2h-3.2V40.5z"/>
	<path class="st1" d="M119,40.5h15.7v2.8h-12.5v7.4h11.5v2.8h-11.5V61h12.5v2.8H119V40.5z"/>
	<path class="st1" d="M136.8,40.5h3.3l6.6,19.5h0.1l6.6-19.5h3.3l-8.3,23.3h-3.3L136.8,40.5z"/>
	<path class="st1" d="M159.7,40.5h15.7v2.8h-12.5v7.4h11.5v2.8h-11.5V61h12.5v2.8h-15.7V40.5z"/>
	<path class="st1" d="M179.4,40.5h3l11.6,18h0.1v-18h3.1v23.3h-3l-11.6-18.1l0,0v18.1h-3.1L179.4,40.5z"/>
	<path class="st1" d="M207.4,43.2h-7v-2.8h17.3v2.8h-7v20.6h-3.2V43.2z"/>
	<path class="st1" d="M26.8,72.4h13.8l3.2,3.2v7.7l-3.3,3.3H30v9.1h-3.2V72.4z M39.1,83.8l1.5-1.5v-5.8l-1.5-1.5H30v8.8H39.1z"/>
	<path class="st1" d="M51.6,72.4h3.2l8.4,23.3h-3.3l-2.1-5.9h-9.2l-2.1,5.9h-3.3L51.6,72.4z M57,87l-3.7-10.9h-0.1L49.5,87H57z"/>
	<path class="st1" d="M65.4,91.9V76.1l3.7-3.7h10.5l3.6,3.6v2.6H80v-1.5L78,75.1h-7.4l-2.1,2.1v13.6l2.1,2.1H78l1.9-1.9v-1.5h3.2
		v2.6l-3.6,3.6H69.1L65.4,91.9z"/>
	<path class="st1" d="M87,72.4h3.2v10.2H95l5.9-10.2h3.5L97.7,84l7.2,11.7h-3.6L95,85.4h-4.8v10.2H87V72.4z"/>
	<path class="st1" d="M114.3,72.4h3.2l8.4,23.3h-3.3l-2.1-5.9h-9.2l-2.1,5.9h-3.3L114.3,72.4z M119.7,87l-3.8-10.9h-0.1L112.1,87
		H119.7z"/>
	<path class="st1" d="M128,91.9V76.1l3.7-3.7h10.7l3.6,3.6v2.6h-3.2v-1.5l-1.9-1.9h-7.6l-2.1,2.1v13.6l2.1,2.1h7.5l2-2V86h-5.2v-2.8
		h8.3v8.7l-3.7,3.7h-10.5L128,91.9z"/>
	<path class="st1" d="M150.3,72.4H166v2.8h-12.5v7.4H165v2.8h-11.5v7.5H166v2.8h-15.7V72.4z"/>
</g>
<linearGradient id="SVGID_2_" gradientUnits="userSpaceOnUse" x1="234.03" y1="77.145" x2="539.71" y2="77.145" gradientTransform="matrix(1 0 0 -1 0 152)">
	<stop  offset="0" style="stop-color:#02D7F2"/>
	<stop  offset="0.11" style="stop-color:#3BEAEF"/>
	<stop  offset="0.18" style="stop-color:#2DD3DE"/>
	<stop  offset="0.37" style="stop-color:#04BED8"/>
	<stop  offset="0.52" style="stop-color:#48FFFF"/>
	<stop  offset="0.71" style="stop-color:#22C0CF"/>
	<stop  offset="0.8" style="stop-color:#2DE6F0"/>
	<stop  offset="0.87" style="stop-color:#32DAE3"/>
	<stop  offset="1" style="stop-color:#0B748C"/>
</linearGradient>
<linearGradient id="SVGID_3_" gradientUnits="userSpaceOnUse" x1="153.2433" y1="128.8623" x2="498.9933" y2="-215.9477" gradientTransform="matrix(1 0 0 -1 0 -25.29)">
	<stop  offset="0" style="stop-color:#02D7F2"/>
	<stop  offset="0.11" style="stop-color:#3BEAEF"/>
	<stop  offset="0.18" style="stop-color:#2DD3DE"/>
	<stop  offset="0.37" style="stop-color:#04BED8"/>
	<stop  offset="0.52" style="stop-color:#48FFFF"/>
	<stop  offset="0.71" style="stop-color:#22C0CF"/>
	<stop  offset="0.8" style="stop-color:#2DE6F0"/>
	<stop  offset="0.87" style="stop-color:#32DAE3"/>
	<stop  offset="1" style="stop-color:#0B748C"/>
</linearGradient>
<polygon class="st2" points="522.1,1 372.7,1 234,139.7 338.5,139.7 349.1,148.7 539.7,148.7 539.7,16 "/>
<g>
	<path d="M404,58.5h-5.7l1.3,1.4v2.4h4.4v2.8h-4.4v2.6l-2.7,3l2.9,3.5v8.4h-3.4v-7.4l-3-3.6h-9v-3.1h10.3l1.6-1.7v-1.7h-11.9v-2.8
		h11.9v-1.8l-1.6-1.7h-10.3v-3.2h19.7L404,58.5z"/>
	<path d="M407.4,79v-3.4h3.4v2.3l1.6,1.7h7.2l1.6-1.7v-5.4l-1.5-1.7h-7.1v-3.2h7.1l1.5-1.7v-5.2l-1.6-1.7h-7l-1.6,1.7v2.3h-3.4v-3.4
		l3.4-3.8h10l3.4,3.8v7.5l-2.1,2.2l2,2.3V79l-3.4,3.8h-10.2L407.4,79z"/>
	<path d="M428.6,79v-3.5h3.4v2.3l1.6,1.7h7.1l1.6-1.7v-7.2l-1.6-1.7H429V55.7h16.2v3.2h-12.9v6.8h9.8l3.5,3.8V79l-3.4,3.8H432
		L428.6,79z"/>
	<path d="M449.9,78.7v-19l3.7-4.1h10.5l3.7,4.1v19l-3.7,4.1h-10.5L449.9,78.7z M462.6,79.5l1.9-2.1V61l-1.9-2.1h-7.3l-1.9,2.1v16.5
		l1.9,2.1H462.6z"/>
</g>
</svg>
