<?xml version="1.0" encoding="utf-8"?>
<!-- Generator: Adobe Illustrator 25.2.3, SVG Export Plug-In . SVG Version: 6.00 Build 0)  -->
<svg version="1.1" id="Layer_1" xmlns="http://www.w3.org/2000/svg" xmlns:xlink="http://www.w3.org/1999/xlink" x="0px" y="0px"
	 viewBox="0 0 1154.7 84.7" style="enable-background:new 0 0 1154.7 84.7;" xml:space="preserve">
<style type="text/css">
	.st0{stroke:url(#SVGID_1_);stroke-width:2;stroke-miterlimit:10;}
	.st1{fill:url(#SVGID_2_);}
	.st2{fill:#02D7F2;}
	.st3{fill:url(#SVGID_3_);}
	.st4{fill:url(#SVGID_4_);}
	.st5{fill:url(#SVGID_5_);}
	.st6{fill:url(#SVGID_6_);}
</style>
<linearGradient id="SVGID_1_" gradientUnits="userSpaceOnUse" x1="262.8097" y1="172.1752" x2="884.1111" y2="-447.4158" gradientTransform="matrix(1 0 0 -1 0 -91.36)">
	<stop  offset="0" style="stop-color:#02D7F2"/>
	<stop  offset="0.11" style="stop-color:#3BEAEF"/>
	<stop  offset="0.18" style="stop-color:#2DD3DE"/>
	<stop  offset="0.37" style="stop-color:#04BED8"/>
	<stop  offset="0.52" style="stop-color:#48FFFF"/>
	<stop  offset="0.71" style="stop-color:#22C0CF"/>
	<stop  offset="0.8" style="stop-color:#2DE6F0"/>
	<stop  offset="0.87" style="stop-color:#32DAE3"/>
	<stop  offset="1" style="stop-color:#0B748C"/>
</linearGradient>
<polygon class="st0" points="1136.1,1 1153.7,16 1153.7,83.7 540.1,83.7 529.5,74.7 353,74.7 342.5,83.7 1,83.7 1,1 "/>
<g>
	<linearGradient id="SVGID_2_" gradientUnits="userSpaceOnUse" x1="932.3376" y1="42.355" x2="1153.71" y2="42.355">
		<stop  offset="0" style="stop-color:#0B748C"/>
		<stop  offset="0.23" style="stop-color:#1D9DAE"/>
		<stop  offset="0.3976" style="stop-color:#48FFFF"/>
		<stop  offset="0.5354" style="stop-color:#25AEBC"/>
		<stop  offset="0.621" style="stop-color:#22C0CF"/>
		<stop  offset="0.7216" style="stop-color:#2DE6F0"/>
		<stop  offset="0.8259" style="stop-color:#32DAE3"/>
		<stop  offset="0.9078" style="stop-color:#2ABCC7"/>
		<stop  offset="1" style="stop-color:#3BE9EE"/>
	</linearGradient>
	<polygon class="st1" points="1153.7,16 1136.1,1 1015,1 932.3,83.7 1153.7,83.7 	"/>
</g>
<path class="st2" d="M32.5,34.5h-6.2v-2.4h15.2v2.4h-6.2v18.1h-2.8V34.5z"/>
<path class="st2" d="M44.4,32.1h13.8v2.5H47.2v6.5h10.1v2.4H47.2v6.6h10.9v2.5H44.4V32.1z"/>
<path class="st2" d="M61.3,49.3V35.4l3.3-3.3h9.2l3.2,3.2v2.3h-2.8v-1.3l-1.7-1.7H66l-1.8,1.8v11.9l1.8,1.8h6.5l1.7-1.7v-1.3H77v2.3
	l-3.2,3.2h-9.2L61.3,49.3z"/>
<path class="st2" d="M80.3,32.1h2.8v9h9.9v-9h2.8v20.5h-2.8v-9h-9.9v9h-2.8V32.1z"/>
<path class="st2" d="M107.7,32.1h13.8v2.5h-10.9v6.5h10.1v2.4h-10.1v6.6h10.9v2.5h-13.8V32.1z"/>
<path class="st2" d="M123.3,32.1h2.9l5.8,17.1h0.1l5.8-17.1h2.9l-7.2,20.5h-2.9L123.3,32.1z"/>
<path class="st2" d="M143.5,32.1h13.8v2.5h-10.9v6.5h10.1v2.4h-10.1v6.6h10.9v2.5h-13.8V32.1z"/>
<path class="st2" d="M160.8,32.1h2.6l10.1,15.9h0.1V32.1h2.7v20.5h-2.6l-10.2-15.9l0,0v15.9h-2.7L160.8,32.1z"/>
<path class="st2" d="M185.4,34.5h-6.2v-2.4h15.2v2.4h-6.2v18.1h-2.8V34.5z"/>
<path class="st2" d="M204.7,32.1h12.1l2.8,2.8v6.8l-2.9,2.9h-9.2v8h-2.8V32.1z M215.5,42.2l1.3-1.3v-5.1l-1.3-1.3h-8v7.7H215.5z"/>
<path class="st2" d="M226.5,32.1h2.8l7.4,20.5h-2.9l-1.8-5.2h-8.1l-1.8,5.2h-2.9L226.5,32.1z M231.3,45l-3.3-9.6h-0.1l-3.3,9.6
	H231.3z"/>
<path class="st2" d="M238.6,49.3V35.4l3.3-3.3h9.2l3.2,3.2v2.3h-2.8v-1.3l-1.7-1.7h-6.5l-1.8,1.8v11.9l1.8,1.8h6.5l1.7-1.7v-1.3h2.8
	v2.3l-3.2,3.2h-9.2L238.6,49.3z"/>
<path class="st2" d="M257.6,32.1h2.8v9h4.2l5.2-9h3.1L267,42.3l6.3,10.3h-3.2l-5.6-9h-4.2v9h-2.8V32.1z"/>
<path class="st2" d="M281.6,32.1h2.8l7.4,20.5h-2.9l-1.9-5.2h-8.1l-1.8,5.2h-2.9L281.6,32.1z M286.3,45l-3.3-9.6h-0.1l-3.2,9.6
	H286.3z"/>
<path class="st2" d="M293.6,49.3V35.4l3.3-3.3h9.4l3.2,3.2v2.3h-2.8v-1.3l-1.7-1.7h-6.7l-1.8,1.8v11.9l1.8,1.8h6.6l1.8-1.8v-4.2
	h-4.5v-2.5h7.3v7.6l-3.3,3.3h-9.2L293.6,49.3z"/>
<path class="st2" d="M313.2,32.1H327v2.5h-10.9v6.5h10.1v2.4h-10.1v6.6H327v2.5h-13.8V32.1z"/>
<g>
	<linearGradient id="SVGID_3_" gradientUnits="userSpaceOnUse" x1="1070.355" y1="41.705" x2="1084.355" y2="41.705">
		<stop  offset="4.475343e-07" style="stop-color:#0F0F0F"/>
		<stop  offset="9.217843e-02" style="stop-color:#121212"/>
		<stop  offset="0.1518" style="stop-color:#252525"/>
		<stop  offset="0.379" style="stop-color:#000000"/>
		<stop  offset="0.5531" style="stop-color:#353535"/>
		<stop  offset="0.6434" style="stop-color:#030303"/>
		<stop  offset="0.7439" style="stop-color:#050505"/>
		<stop  offset="0.852" style="stop-color:#171717"/>
		<stop  offset="1" style="stop-color:#000000"/>
	</linearGradient>
	<path class="st3" d="M1084.3,34.2h-4.1l0.9,1v1.7h3.1v2h-3.1v1.9l-2,2.1l2,2.4v6h-2.4v-5.2l-2-2.5h-6.4v-2.2h7.4l1.1-1.2v-1.2h-8.5
		v-2h8.5v-1.3l-1.1-1.2h-7.4v-2.3h14L1084.3,34.2z"/>
	<linearGradient id="SVGID_4_" gradientUnits="userSpaceOnUse" x1="1086.7451" y1="41.76" x2="1098.925" y2="41.76">
		<stop  offset="4.475343e-07" style="stop-color:#0F0F0F"/>
		<stop  offset="9.217843e-02" style="stop-color:#121212"/>
		<stop  offset="0.1518" style="stop-color:#252525"/>
		<stop  offset="0.379" style="stop-color:#000000"/>
		<stop  offset="0.5531" style="stop-color:#353535"/>
		<stop  offset="0.6434" style="stop-color:#030303"/>
		<stop  offset="0.7439" style="stop-color:#050505"/>
		<stop  offset="0.852" style="stop-color:#171717"/>
		<stop  offset="1" style="stop-color:#000000"/>
	</linearGradient>
	<path class="st4" d="M1086.7,48.7v-2.4h2.4v1.6l1.1,1.2h5.1l1.1-1.2v-3.9l-1.1-1.2h-5.1v-2.3h5.1l1.1-1.2v-3.7l-1.1-1.2h-4.9
		l-1.1,1.2v1.6h-2.4v-2.4l2.4-2.7h7.1l2.4,2.7v5.3l-1.5,1.6l1.5,1.6v5.4l-2.4,2.7h-7.3L1086.7,48.7z"/>
	<linearGradient id="SVGID_5_" gradientUnits="userSpaceOnUse" x1="1101.7952" y1="41.76" x2="1113.8953" y2="41.76">
		<stop  offset="4.475343e-07" style="stop-color:#0F0F0F"/>
		<stop  offset="9.217843e-02" style="stop-color:#121212"/>
		<stop  offset="0.1518" style="stop-color:#252525"/>
		<stop  offset="0.379" style="stop-color:#000000"/>
		<stop  offset="0.5531" style="stop-color:#353535"/>
		<stop  offset="0.6434" style="stop-color:#030303"/>
		<stop  offset="0.7439" style="stop-color:#050505"/>
		<stop  offset="0.852" style="stop-color:#171717"/>
		<stop  offset="1" style="stop-color:#000000"/>
	</linearGradient>
	<path class="st5" d="M1101.8,48.7v-2.5h2.4v1.6l1.1,1.2h5.1l1.1-1.2v-5.1l-1.1-1.2h-8.3v-9.4h11.5v2.3h-9.1v4.8h7l2.5,2.7v6.8
		l-2.4,2.7h-7.2L1101.8,48.7z"/>
	<linearGradient id="SVGID_6_" gradientUnits="userSpaceOnUse" x1="1116.9551" y1="41.76" x2="1129.7451" y2="41.76">
		<stop  offset="4.475343e-07" style="stop-color:#0F0F0F"/>
		<stop  offset="9.217843e-02" style="stop-color:#121212"/>
		<stop  offset="0.1518" style="stop-color:#252525"/>
		<stop  offset="0.379" style="stop-color:#000000"/>
		<stop  offset="0.5531" style="stop-color:#353535"/>
		<stop  offset="0.6434" style="stop-color:#030303"/>
		<stop  offset="0.7439" style="stop-color:#050505"/>
		<stop  offset="0.852" style="stop-color:#171717"/>
		<stop  offset="1" style="stop-color:#000000"/>
	</linearGradient>
	<path class="st6" d="M1117,48.5V35l2.7-2.9h7.5l2.7,2.9v13.5l-2.7,2.9h-7.5L1117,48.5z M1126,49.1l1.3-1.5V35.9l-1.3-1.5h-5.2
		l-1.3,1.5v11.7l1.3,1.5L1126,49.1z"/>
</g>
</svg>
